<mxfile host="app.diagrams.net" modified="2023-07-11T12:17:05.032Z" agent="Mozilla/5.0 (Macintosh; Intel Mac OS X 10_15_7) AppleWebKit/605.1.15 (KHTML, like Gecko) Version/16.4 Safari/605.1.15" etag="8GeJUgkTAiXaflTj8VPy" version="21.6.1" type="device">
  <diagram id="R1MVv1tGXKMoPeT53mLu" name="Page-1">
    <mxGraphModel dx="914" dy="568" grid="1" gridSize="10" guides="1" tooltips="1" connect="1" arrows="1" fold="1" page="1" pageScale="1" pageWidth="827" pageHeight="1169" math="0" shadow="0">
      <root>
        <mxCell id="0" />
        <mxCell id="1" parent="0" />
        <mxCell id="SrgSx0D-FuNyG_olPb56-41" value="" style="group" vertex="1" connectable="0" parent="1">
          <mxGeometry x="40" y="20" width="710" height="192" as="geometry" />
        </mxCell>
        <mxCell id="lqRVle8zpSfQ94BdNM4T-3" value="&lt;br&gt;alternative.out" style="rounded=1;whiteSpace=wrap;html=1;" parent="SrgSx0D-FuNyG_olPb56-41" vertex="1">
          <mxGeometry x="260" y="8" width="120" height="60" as="geometry" />
        </mxCell>
        <mxCell id="lqRVle8zpSfQ94BdNM4T-9" value="&lt;br&gt;Host" style="rounded=1;whiteSpace=wrap;html=1;" parent="SrgSx0D-FuNyG_olPb56-41" vertex="1">
          <mxGeometry x="520" y="123" width="120" height="60" as="geometry" />
        </mxCell>
        <mxCell id="lqRVle8zpSfQ94BdNM4T-10" value="&lt;br&gt;Serverless Environment" style="rounded=1;whiteSpace=wrap;html=1;" parent="SrgSx0D-FuNyG_olPb56-41" vertex="1">
          <mxGeometry x="520" y="8" width="120" height="60" as="geometry" />
        </mxCell>
        <mxCell id="lqRVle8zpSfQ94BdNM4T-11" value="" style="endArrow=classic;html=1;rounded=0;exitX=1;exitY=0.5;exitDx=0;exitDy=0;entryX=0;entryY=0.5;entryDx=0;entryDy=0;" parent="SrgSx0D-FuNyG_olPb56-41" source="lqRVle8zpSfQ94BdNM4T-3" target="lqRVle8zpSfQ94BdNM4T-10" edge="1">
          <mxGeometry width="50" height="50" relative="1" as="geometry">
            <mxPoint x="390" y="248" as="sourcePoint" />
            <mxPoint x="440" y="198" as="targetPoint" />
          </mxGeometry>
        </mxCell>
        <mxCell id="lqRVle8zpSfQ94BdNM4T-14" value="" style="endArrow=classic;html=1;rounded=0;exitX=0.25;exitY=0;exitDx=0;exitDy=0;entryX=0.25;entryY=1;entryDx=0;entryDy=0;" parent="SrgSx0D-FuNyG_olPb56-41" source="lqRVle8zpSfQ94BdNM4T-9" target="lqRVle8zpSfQ94BdNM4T-10" edge="1">
          <mxGeometry width="50" height="50" relative="1" as="geometry">
            <mxPoint x="390" y="248" as="sourcePoint" />
            <mxPoint x="500" y="88" as="targetPoint" />
          </mxGeometry>
        </mxCell>
        <mxCell id="lqRVle8zpSfQ94BdNM4T-16" value="" style="endArrow=classic;html=1;rounded=0;entryX=0.75;entryY=0;entryDx=0;entryDy=0;exitX=0.75;exitY=1;exitDx=0;exitDy=0;" parent="SrgSx0D-FuNyG_olPb56-41" source="lqRVle8zpSfQ94BdNM4T-10" target="lqRVle8zpSfQ94BdNM4T-9" edge="1">
          <mxGeometry width="50" height="50" relative="1" as="geometry">
            <mxPoint x="590" y="128" as="sourcePoint" />
            <mxPoint x="440" y="198" as="targetPoint" />
          </mxGeometry>
        </mxCell>
        <mxCell id="SrgSx0D-FuNyG_olPb56-2" value="" style="group" vertex="1" connectable="0" parent="SrgSx0D-FuNyG_olPb56-41">
          <mxGeometry y="28" width="120" height="130" as="geometry" />
        </mxCell>
        <mxCell id="lqRVle8zpSfQ94BdNM4T-2" value="" style="rounded=1;whiteSpace=wrap;html=1;" parent="SrgSx0D-FuNyG_olPb56-2" vertex="1">
          <mxGeometry width="120" height="130" as="geometry" />
        </mxCell>
        <mxCell id="SrgSx0D-FuNyG_olPb56-1" value="" style="shape=image;verticalLabelPosition=bottom;labelBackgroundColor=default;verticalAlign=top;aspect=fixed;imageAspect=0;image=data:image/png,iVBORw0KGgoAAAANSUhEUgAAANQAAADuCAMAAAB24dnhAAAA2FBMVEX///9lmtIARIIAWZxhmNFVkc9alNAAV5sASpUAQoEALHcAVZtdltBimNEAPn/k6vEAM3oATZYANHpqn9cAPH4AT5e/zuDz9voAKXYAMHl0o9a1x9tchrTY5PKeveEAR5SpxOTV4vEcY6K6z+mNstyQtN3L1eOSrMqCq9mnw+PK2u7t8vm1zOcNSYUSWZg7YpNUc56uu86pt8s5drFOfa8SU4+drcRhfaSJnLhJa5nV3OYmVIt0jK6TpL68x9dgibYrbKlzlb5FeKwAOI6CoMNCcqkxYpp6kbHIKcy1AAANZElEQVR4nNWdYX+aSBDG1QgGBDRASjTVaEysjebUNNVEU9vmmuv3/0aHokZ0gZnZXTDPm571V+Tv7izz7Mx6uVwKanSavXo+X+81O400Pk+++l8N1TDzK5n+f37tZ31H/GoqG6K1DKWZ9T1xqqMa+QMZaifr++JQo64eIi2l1j9qbHk3ChtpGVzKzYcMrZZSjGTyVVS+Zn2HaN0ZjGDaCy3jLuu7RMkPJjOJyZ+DHym0vNvoYNqTcutlfbcwDVjLeOQcVFpZ3y9Ad3kE0gorf+yhVQEFU1h+aFWyvu8YeU0FjbTCOuLQQgVTWIY6yPrumWpjg2kPK9/OmuBA/R5t5r3LVHtHljk143MimIpHZUqYBoOi4zElkQaDItU5htDq3/AGU1jHYEq+igimsLI2JQCDQVGWpgRmMCjKzJQgDAZFyk0GmVNL1DIepfRNyZ0pGWmFZaYZWhSDQVGKpsQPplSQVlgpmRIOg0FRGqYE7dYFYEn2+/1eOsEUlm9KJIaWEINBwpJmSoQZDIrkmJK2I9BgUCTelIg2GBSZili/L8FgUCTSlEgyGBQZhpjQkmcwKBJiSuLKgRmJ25S0lKOZee/iMyV3xSNEWsooUjOntAwGRURTkqbBoIhiSlI2GBRhTUkGBoMijCmpZGIwKIKbEmI5MPqT80Vjq2Je8MVBpkSowTAMVVXy9ZtmszUYDFqt5m2vbiqqKjLvSjYl4gxG0eepNzttRmLdb3eadZ9MVJIcb0r4y4GBTB/oppMw2xudnqoaYj4vxpSIMRimoTgtYNLZ+Jrf73GkKaoI2REy0Q3VaaGsXKWVV0V8lyxT4onIifxBuiUYg/atkLRZre+lGA0B35apGgOiKfBahoBZWFRD32iDf4Ew1TyXKe2Y/FimskPV5596RpHbZwsIalN9j2eHl0nQhrcAS+psrtXkvJS40oTHvRNnrJf2CucuhJEXWJ9t81bz1OCZ3+P6coRvc3Pl045y8ra8SINroIyi8DJ6g7wz4hR/lU+uuv41bnkGSu2JRlqqR8yqv5VLJyfln/4VeNJyRVKVb0CYPc63ko/k69TL3XFAqdKao9rYu3LU6wDp5OTsU65FXm2KeYmdUf08Jm9bBdNG5T/0tc+oy0Naqo74tlfBtFHpMVenMklZInbVA1I5jyc7SD7Ude5omXK5GwiVY1yXQ0y+iFBpMEGonPxOMHFCpcOUPAOdbwejRIaSvUa8K3a18HMiFhINysynxRTniljBRIcyjRTbC71IP8wKJjqUkmonKNsYbXMiQVBp98N3Dqkc5Z8YJAKUcZsuk28j9hYLp3gdPfNIUGkuEhs54VtgL+M8UEoGh9L6OxPQeYwLJhpUNme3BhsjsmMwBEKl9tQNq75a1x0zZhmnQ2Ux+ZYKJmByMFGgjMxOlrSMfYMhCsosctyW54vjn6tJyzgVSiX1znjtwW1dVVZS67eDNoGt//kcjoSDIqwSlVZdUY3iNn8zi4aq1AfI0PxzhRgmHBR+76hTZ+/4G0odkWtdllHDhIIysQMVe24HXCdp/zpFImGgkAOV2I8Basr2fl6B1zwKFGqgGpB+DNVJiq0vp7hgwkKhlr4WrHJhxrdYfjo5JwwTAgrzjPLgG/wHFfV3Nd5OaUhwKAOeyfZNxI5xscjeu/Z+I5dxCpQCfmQiK/0mc3dgckZHAkMVwRt96O4FBlX3+ow68zBQ4GWiQvg5lL3cv/JIWcYpUECm6B2tOKrQnhs2JyJDFaG7LXVSN9BOsjI+x+ZEZCjo7KN2ZGy6H7q/zviRoFDAta9NLvQryxys/5k3mFBQwBTJJBf6l8/2L/zBhIEyWiAmevnY1+8TAcGEgVJBu+cevcvEMa7FIUGhQAPF0bcF3PoSCgUKKfJAxVcwZEEZoJYqYkQlVTCkQYE2FEjdojHlwLVKZ4HYMVdevxu+BgQKtE6gG29W+pYUTKXSp0CXLKryn+DN7muICgIFevTuV5EAggRTqby+foW1/3J2uX73c+jLAU0/0OxDI4GCSRoUZPGrIGdfqEUqA6jiDQCqgxwpaAVDFhRoRUeFlPMNXMGQBgXZc6nDF3RgOVAyFOQxBQ4pcDnw7HSlqw3Uv8HrYGUvBy/+3UA9XgV/UQJDARwiPEeCBtNZoxJo8xHrl6vnVflPP3i1edisX/aDOQCAgthe4OKHKAeeRjwcu0tvfP4l4j7gUIDKQAMClZwTfTgodr/hx4Zy3r4jkD4ElPNY0LT7fz4WVPxC4RjfrYIvDJZsKMDq149Z0p38f65WCKR9h2JJhuJ8+Dpv2gZpJWBolUrllc7XH1C5Cl4HbmX95uk2ozjfeVNYmhR1zt95vLcKIUHnYCnQNk26Wv/F7rs7adLumxAoSPPODXMT3THne0jY0JKV+5mQ6sCAkaU7+TdXO2RChVamJpGxpjuvGhsJFVqyRsoEQB2sFMtgimGCzkFpI6VAoHqhoHLM/9wYIvgclAalQvqjwifm3mJH6X0OJmKVSqumOs9rsKDOL4M3KbtJoJLbO5TzWmCseUwlz8HSVSB2h9L5+t1wqgyCAjVkbnYpNjkRTLiEECgIlAnqNwjOLyyDCTTztlTw5V0oFLCUszzd6ACDKSycKREFBeqkbCj+Mk5A8ker8A+861cUFPA3HXuYYNrDur/matwhQIH2aP2o0knjtJLuVd7wLZg8UNCGl0mVymRP/H9+WRJU+AVCAVtNh8T5Zw2Df0/sxKRBwQqkuZyHW87fB2q7KUnqmaVBgfsyZxcUpovuzhUEdPJAu8ig5xDHBCr9IXwJdB86EQo6//zFQkcz/di/Bm93HLTdFNrw51Mhx+picngNzj5GcGMwvIN7fIFYLbSLMfMiXB2n4L50RK991wav7JbdjboKR28wvNkecWTZG9qgwdLsYUw3A72LGwwFTJU2X7MOGCxLZ4TTriqvtH57+FkPBfdbhKOkRNDSR8lXpJ2MgENhj2J3h3rM3ourDyOjKSRK5oQ4FIYbKl+zaY0dW5Zdm86gVyGcNkJA4aIquKGHoW67ITNsubb+/IA6lzjDngvDnEkk/WaDt3h6tvVa1fZVren289MCf9LyEl4rxkI5PwlQAdmsu/DVrZBPxaI2Z+BQjjHfyzxT1NjGbKVBoYJyYDWr/0Oti6mUQKHWFQxrmg3TNHg4QLfSQFDv5UB9kQXTYm1noNu5AKhQBcPOYALubBLAsBKh9sqB7nP6UKPdPBISWklQB+XA6oFPla2DjbfE0IqHcj4flgMvYDmbMB3u5STOwTioiHJgumHF3HVLwIqBiqpgWPM0oVg9C6s5GIMVCbVskWJfruCO0mMaRduXaKoIqPhyoP2SFtOLHX0X0XOQCbXbIsVU9Skdpqda3F1EFiFZUIByYC0Vqh/JG6PM5f0QClYO1FOgAjCx5+D+r5f5BgO2aSd/rOLnXjRW6TrXQwXTjqqSV4sXGFPhIHMqvYaOR+73G8bLlrqyj2LWvUPthlb5d+5uC3XYb5ggdy4tt/Dmia1NIe3OwfPL7YEGdr9hvGJ2wvmE2I0/xLrqr3+tP7rfMF4XUnL2H6R65Dq0Ssvf61+2fzmvkTlRgqrPwqeg94wKp10tQytol3NYBgMsyxbs8Bf4qbfVag6urnL3HReU+9JHAgfLG4FXcjaW+ym4ELX7YSOrKmw/cFLl+4IL1ma7oc/35fiy50KWwe4cVqyLUW1bxViQVptdafqI++c0Z88cvU1rXewEOL5P4ECWPuXCmo0gxccEhUuT2D4BNtaIPAm7zwKQDroXFrwRusKqzSlLhje5rwlAcqsHDxdvyj+jl/X26gtyuBZR9UbkJ+tT1pNlNq+KuLhVdV/Az+PFi10VMEh+ZjOPqreOXQFzsLCcCPpokljUnU2edZueyoQ+0GX3zQR6EhGvS1luzR4+jWfMZMObjf8OqzVX1Gcl7S0k9z+ApWmuXdO14fRp8rBYdH0txg+Tv9OhpVdtF2NH4z8G8oj0H+uCPm79oa7rLovYvvw//BeiaAJBk5kHW0xopSDXhj9D/l4Imu5yZV38xRiEioA8TLa02jM2MVvci3gkypNm31Pc6aR2xKHl1hLa6qLkvYh6aomWpr/Q3fZsWDvCOajVhuAeNKYW2rGFln9D/Fs9P44rtKyakK1GMaZEjCIMBkViTAm/tGiDQdHYOoI5GG8wKHqKa/NNQ4kGg6K+OFNCkIg9OKa6c/LxPF4J2i1l6kGQ30fKdeX2uWZgSnyDIRUpJ9Tvg6TpaINBUTdFU0I0GBSlZkrIBoOidEyJxWMwKKpINyXcBoOiRUFmaAkxGBRJNCWuGINBkSxTItBgUCTD72vVDIIprLEmeA66lmiDQZFQU+Km0R0JUV9YaGmQE6VpaSbGlFQlGgyKBJgS2QaDIk5TkoLBoIjHlEhz6/zqfqdlTr7BOK5gCovUBZaqwaAIb0pSNxgUVZ4xmZNvMI41mMKCmxLNLmRjMCgChlaGBoMiP7QSBytjg0FRkinJxK3za6HFNLe42jEYDIqeonoTpVQw0hLblPjBdDwGg6LZfD+0BJcDs9Firm9/5UWzXH3+UYMprMpkGhxz1O6nkzTyh/8BXVeuiN53p+AAAAAASUVORK5CYII=;" vertex="1" parent="SrgSx0D-FuNyG_olPb56-2">
          <mxGeometry x="46.64" y="6" width="26.72" height="30" as="geometry" />
        </mxCell>
        <mxCell id="SrgSx0D-FuNyG_olPb56-10" value="cppless program" style="text;html=1;strokeColor=none;fillColor=none;align=center;verticalAlign=middle;whiteSpace=wrap;rounded=0;" vertex="1" parent="SrgSx0D-FuNyG_olPb56-2">
          <mxGeometry x="10" y="30" width="100" height="30" as="geometry" />
        </mxCell>
        <mxCell id="SrgSx0D-FuNyG_olPb56-11" value="main entry" style="rounded=1;whiteSpace=wrap;html=1;" vertex="1" parent="SrgSx0D-FuNyG_olPb56-2">
          <mxGeometry x="10" y="60" width="100" height="25" as="geometry" />
        </mxCell>
        <mxCell id="SrgSx0D-FuNyG_olPb56-12" value="alternative entry" style="rounded=1;whiteSpace=wrap;html=1;" vertex="1" parent="SrgSx0D-FuNyG_olPb56-2">
          <mxGeometry x="10" y="92" width="100" height="25" as="geometry" />
        </mxCell>
        <mxCell id="SrgSx0D-FuNyG_olPb56-20" value="" style="group" vertex="1" connectable="0" parent="SrgSx0D-FuNyG_olPb56-41">
          <mxGeometry x="388" width="150" height="30" as="geometry" />
        </mxCell>
        <mxCell id="SrgSx0D-FuNyG_olPb56-21" value="&lt;font color=&quot;#ffffff&quot;&gt;4&lt;/font&gt;" style="ellipse;whiteSpace=wrap;html=1;aspect=fixed;fillColor=#000000;" vertex="1" parent="SrgSx0D-FuNyG_olPb56-20">
          <mxGeometry y="5" width="20" height="20" as="geometry" />
        </mxCell>
        <mxCell id="SrgSx0D-FuNyG_olPb56-22" value="Offload alternative entry to FaaS platform" style="text;html=1;strokeColor=none;fillColor=none;align=center;verticalAlign=middle;whiteSpace=wrap;rounded=0;" vertex="1" parent="SrgSx0D-FuNyG_olPb56-20">
          <mxGeometry x="20" width="100" height="30" as="geometry" />
        </mxCell>
        <mxCell id="SrgSx0D-FuNyG_olPb56-23" value="" style="group" vertex="1" connectable="0" parent="SrgSx0D-FuNyG_olPb56-41">
          <mxGeometry x="455" y="83" width="120" height="30" as="geometry" />
        </mxCell>
        <mxCell id="SrgSx0D-FuNyG_olPb56-24" value="&lt;font color=&quot;#ffffff&quot;&gt;5&lt;/font&gt;" style="ellipse;whiteSpace=wrap;html=1;aspect=fixed;fillColor=#000000;" vertex="1" parent="SrgSx0D-FuNyG_olPb56-23">
          <mxGeometry y="5" width="20" height="20" as="geometry" />
        </mxCell>
        <mxCell id="SrgSx0D-FuNyG_olPb56-25" value="Call remote function" style="text;html=1;strokeColor=none;fillColor=none;align=center;verticalAlign=middle;whiteSpace=wrap;rounded=0;" vertex="1" parent="SrgSx0D-FuNyG_olPb56-23">
          <mxGeometry x="20" width="80" height="30" as="geometry" />
        </mxCell>
        <mxCell id="SrgSx0D-FuNyG_olPb56-26" value="" style="group" vertex="1" connectable="0" parent="SrgSx0D-FuNyG_olPb56-41">
          <mxGeometry x="590" y="78" width="120" height="30" as="geometry" />
        </mxCell>
        <mxCell id="SrgSx0D-FuNyG_olPb56-27" value="&lt;font color=&quot;#ffffff&quot;&gt;6&lt;/font&gt;" style="ellipse;whiteSpace=wrap;html=1;aspect=fixed;fillColor=#000000;" vertex="1" parent="SrgSx0D-FuNyG_olPb56-26">
          <mxGeometry x="30" y="5" width="20" height="20" as="geometry" />
        </mxCell>
        <mxCell id="SrgSx0D-FuNyG_olPb56-28" value="Receive function result" style="text;html=1;strokeColor=none;fillColor=none;align=center;verticalAlign=middle;whiteSpace=wrap;rounded=0;" vertex="1" parent="SrgSx0D-FuNyG_olPb56-26">
          <mxGeometry x="50" width="80" height="30" as="geometry" />
        </mxCell>
        <mxCell id="SrgSx0D-FuNyG_olPb56-31" value="" style="shape=image;verticalLabelPosition=bottom;labelBackgroundColor=default;verticalAlign=top;aspect=fixed;imageAspect=0;image=data:image/png,iVBORw0KGgoAAAANSUhEUgAAAgAAAAIACAYAAAD0eNT6AAAACXBIWXMAAAsTAAALEwEAmpwYAAAgAElEQVR4nO2dCbhkVXXv963pTtXD7aa7BS4NFxCxUQgioC1qa1pxgIADUYyKgkaNU4wz6lMT44AvRmOiITgjkoBT4hQVp6ifvoiKIiI+5wHU54Ai84W8tbqqrueee4a19zmn9t6r/vv7FvS9VfU767/3OWv9b9Wpc8zu3bt6FF0K4zL4dcPX9xIBHnjggQceeOCFzFMlBjzwwAMPPPDAk0O8bRw88MADDzzwwPPK87px8MADDzzwwANv/DyvGwcPPPDAAw888MbP87px8MADDzzwwAPPD8/rxsEDDzzwwAMPPD88rxsHDzzwwAMPPPD88LxuHDzwwAMPPPDA88PzunHwwAMPPPDAA88PT5UY8MADDzzwwANPxlMlBjzwwAMPPPDAc+SpEgMeeOCBBx544KH5gwceeOCBBx54IW0cPPDAAw888MBD8wcPPPDAAw888BrmqRIDHnjggQceeODJeKrEgAceeOCBBx54Mp4qMeCBBx544IEHnoynSgx44IEHHnjggSfjqRIDHnjggQceeOCJAXrEgAceeOCBBx54coi3jYMHHnjggQceeF55XjcOHnjggQceeOCNn+d14+CBBx544IEH3vh5XjcOHnjggQceeOD54XndOHjggQceeOCB54fndePggQceeOCBB54fnteNgwceeOCBBx54fnheNw4eeOCBBx544PnhqRIDHnjggQceeODJeKrEgAceeOCBBx54jjxVYsADDzzwwAMPPDR/8MADDzzwwAMvpI2DBx544IEHHnho/uCBBx544IEHXsM8VWLAAw888MADDzwZT5UY8MADDzzwwANPxlMlBjzwwAMPPPDAk/FUiQEPPPDAAw888GQ8VWLAAw888MADDzwxQI8Y8MADDzzwwANPDvG2cfDAAw888MADzyvP68bBAw888MADD7zx87xuHDzwwAMPPPDAGz/P68bBAw888MADDzw/PK8bBw888MADDzzw/PC8bhw88MADDzzwwPPD87px8MADDzzwwAPPD8/rxsEDDzzwwAMPPD88VWLAAw888MADDzwZT5UY8MADDzzwwAPPkadKDHjggQceeOCBh+YPHnjggQceeOCFtHHwwAMPPPDAAw/NHzzwwAMPPPDAa5inSgx44IEHHnjggSfjqRIDHnjggQceeODJeKrEgAceeOCBBx54Mp4qMeCBBx544IEHnoynSgx44IEHHnjggScG6BEDHnjggQceeODJId42Dh544IEHHnjgeeV53Th44IEHHnjggTd+nteNgwceeOCBBx544+d53Th44IEHHnjggeeH53Xj4IEHHnjggQeeH57XjYMHHnjggQceeH54XjcOHnjggQceeOD54XndOHjggQceeOCB54enSgx44IEHHnjggSfjqRIDHnjggQceeOA58lSJAQ888MADDzzw0PzBAw888MADD7yQNg4eeOCBBx544KH5gwceeOCBBx54DfNUiQEPPPDAAw888GQ8VWLAG429KHZSHN/pdB5OcWoiHk6/P8U1wAOvYd5DKHZT3JVikWLKDEfAxxt44MXJUyVmsnlcMF9F8S2K/+GYmppaE6PHXAI88DzwrqP4HMWrut3u7sMPP2w2kOMNPPDi56kSM5k8/kufC2QMxRw88Kryrmq3W2fNz88vKTl+wQPPH0+VmMnizVOcZ+Iu5uCB58q7ieKNFFuNxQjo+AUPPP88VWImh7ed4qtGTzEHDzxX3m8pHm8S5wrkjYCOX/DAC4OnSsxk8PjEqJ+aMIoveOCFwvsAxUaTMwI6fsEDLzie142DJ+bNUXzZhFd8wQMvBN7lFAeb1Ajo+AUPvOB4XjcOnhXvbSbc4gseeCHwfk5xlBmOwI5f8MALiud14+BZ8Y6muNWEXXzBAy8E3jUU9w3s+AUPvOB4XjcOnhXvIhNH8QUPvBB4N/KFhwI6fsEDLzie142DJ+YdbuIqvuCBFwJvudNp/0UAxy944AXJ87px8MTjxSa+4gseeEHwWq3WWcrqAXjg1cLzunHwxGPlzP/Yii944AXCex1Fy1iMgOsBeODVwlMlRilvluIWE3fxBQ+8EHh85UzR554B1wPwwKuNp0qMUt4Oo6P4ggdeCLyPmMFltHNH4PUAPPCa46kSo4A3NWV2Kiq+4IEXAu+/zeCW2WtG6PUAPPAa46kSo4THt0CtWCwPo1jgaLfbCwsLG7du2rSwEvwz/370HJsATy3vLca9uYbe/EdxmRlcVntlxFAPwAOvEZ4qMYp4vd5qA2Dsi+RiTHrBC4LHd9kLqVk3xeN7atyxgfkDD7x4eKrEKOMlDYBxK5SLMekFzz+PxhsDbNZN8X41NWXuGvJ6gAdeYzxVYhTyRgbAOBbKVmtqMSa94PnntVqtswNt1k3xft/tdk8IdT3AA68xnioxCnl8DoCpUNzm5+eXYtILnn9e2gCYsJp1Uzy+dPAjQ1wP8MBrjKdKjEIePcRA5+LW7/eXYtILnn9e0gCYMJt1Uzy+2dYzqs5f6OsLHnjJF+oRo5PH/3EubgkDEIte8DzzRgbAhN2sm+S9ssr8hb6+4IGXfLEeMTp5/A/n4jY0ADHpBc8zjw2AiadZN8X7JyO4dHCM6wseeEmAHjE6efyDc3EbngMQk17wPPPM8GuALqGk+Y/ivRQzvtcDPPAa46kSo5PHv3AubvwtgMj0guef52QAlDX/UXyCYp3n9QAPvEZ5XjcOXiGPf1mluFkbAGXzB549z9oABNKsm+J9iWKLx/UAD7zGeF43Dl4pjx+oUtysDEAAesHzz7MyAIE166Z4l1NsV7K+4IHnf+PgiXj8YJXiJjYAgegFzz9PbAACbdZN8a6cnp4+UsH6ggeesXpdDGKU8vgJVYqbyAAEpBc8/zyRAQi8WTfF+3Wv17tH5OsLHnh7eF43Dp6Ix0+qUtxKDUBgesHzzys1AJE066Z4v+92OydGvL7ggbeH53Xj4IkGP7FKcSs0AAHqBc8/r9AARNasm+LdSHHqmNYDPPAa4XndOHiiwU+uUtxyDUCgesHzz8s1AJE266Z4fOngvxrDeoAHXiM8VWKU8vgFVYpbpgEIWC94/nmZBiDyZt0kr/TSwYGtL3jg7eGpEqOUxy+qUtzWGIDA9YLnn7fGAChq1k3x3krRaWg9wANvPDxVYhTwaOyqWNxWGYDQ9YIXBG+VAQigucbCe59JXTo40PUFD7zANg5eJq/b7e6uWNwWk7wa8+tSLgf1er1jp6en7zIK/pl+fxQ9bh38OvDW8O5AsVGyIDWu74oBCKi5xsL7JMX6mtfDgAdeozxVYhTxer3VBsDYF7XFmvM7jOI8it8FWHy18vhksy9SPMrk3KGu5v3vjcrmb9y8i1ut1tYY6gt44OkSo4yXNADGrRgt1pjfsyiWTdjFVzvvMyZxXXoede9/NN4YkN5YeZevX79uv9DrC3gTzlMlRiFvZACMYyHiuwHWlN+ZprliCZ4d4zLT4NvM9Nfr2YHpjZJHx96lmzYtbAu5voA34TxVYhTy+BwAU6EYzc/PL9WQ39EUt5iIiu8E8P65qf0vbQAC0Rslj0zAJzZsWN+ush4x1SvwIuOpEqOQZ4S3A84KLkD9fn+phvw+ZMZQLMGzipvn5mYPbmL/SxqAgPTGzHtZlfWIqV6BFxlPlRidPP6PczFKGADX/BYoboq4+KrltdvtZzWx/40MQGh6I+bxeTNHua5HZPUKvJh4qsTo5PE/nIvR0AA45zc1ZY6LvPiq5VGjPreJ/Y8NQIh6I+d9xeR8g6NsPSKrV+DFxFMlRiePf3AuRsNzAJzz63Q6Jysovip51Kg/1MT+Z4S3A459/jzwCm8epKRegRcTT5UYnTz+hXMx4m8BVMmv1+vdXUnxVccjA/C2hvY/JwMQ2/x54F1uxnMdB/DAa26ELkYZj39ZpRhZG4Bkftu2bd1ErOsVFF+NvCfZrm16fXP2P2sDEOn8+eDtdlgPqwEeeI2N0MUo5PEDVYqRlQHIyo/+0nxPWQ4V8gPPjXcDxT42a5u3vhn7n5UBiHT+fPHOc1gP8QAPvMZG6GKU8vjBKsVIbADy8iMmX/73pqI8KuQHnhvvLOm6lq1vxv4nNgARz58v3jUUPcv1EA3wwLPled04eCIeP6FKMRIZAEF+T8jLo2J+4NnzPk8xLVlXi/VNDpEBiHj+fPPuEVB9AW+CeV43Dp6Ix0+qUoxKDYBFfqdRXJuznViKb+w8/jhmXdmaJofD/ldqACKevxB4LwyovoA3wTyvGwdPNPiJVYpRoQFwyG9fitdS/Chvm4EX3xh519HvP0Bxv6K1zBqO+1+hAYhw/oLitVqt8wOqL+BNMM/rxsETDX5ylWKUawBqyK9PceAoKJcDZ2dnD5mbm7vdKPhn/n3yedIAb+52/X5/+wEHbJ+SLkhyVFjfXAMQenONgddqTX01oPoC3gTzVIlRyuMXVClGmQYgYL3g+edlGoAYmmskvJ8o21/Ai5SnSoxSHr+oSjFaYwAC1wuef94aAxBRc42B91tl+wt4WniqxCjg0dhVsRitMgCh6wUvCN4qAxBZc42Bt6xsfwFPA0+VGCW8bre7u2IxWkzyQtcLXhC8FQMQYXONgbdsuyA8At5fwIudp0qMIl6vt9oAGPsitBiTXvCC4O0xAJE21xh41gYg8P0FvJh5qsQo4yUNgHErRIsx6QXPP4/GGyNurjHwrAxA6PsLeBHzVIlRyBsZAONYiPhugDHpBc8/r9VqnR1xc42BJzYAMewv4EXMUyVGIY/PATAVitH8/PxSTHrB889LGwATV3ONgScyALHsL+BFzFMlRiHPCG8HnBVcfPr9/lJMesHzz0saABNfc42BV2oAYtpfwIuYp0qMTh7/x7kYJQxALHrB88wbGQATZ3ONgVdoAGLbX8CLmKdKjE4e/8O5GA0NQEx6wfPMIwPwjybe5hoDL9cAxLi/gBcxT5UYnTz+wbkYDc8BiEkveJ559NDfmnibawy8TAMQ6/4CXsQ8VWJ08vgXzsWIvwUQmV7w/POeb+JtrjHw1hiAyPcX8CLned04eIU8/mWVYmRtAJTNH3j2vDNMvM01Bt4qA6BgfwEvYp7XjYNXyuMHqhQjKwMQgF7w/POOM/E21xh4KwZAyf4CXqQ8rxsHT8TjB6sUI7EBsMiP709/NMWjKZ5F8dy8aLdbZ7bb7US0zkw8zq99FMWdas6vbr2Txtti4m2uMfCWLddDNMADz5bndePgiXj8hCrFSGQAhPm1zODt4R/k5eSQ3yi+YwZmYKrm+auid5J5PzVxNtcYeMsBrC944HW9bhw8EY+fVKUYlRoAYX5zFO/N2UadxfJdFNM1zp+r3knnnWfibK4x8JYDWF/wwOt53Th4osFPrFKMCg2AMD/+q/yCgm3UXSzfWuP8uegFz5jHmTibawy85QDWFzzwig1AbGKU8vjJVYpRrgGwyO9PS7bRRLG8f6DrMSm8fc3gs+rYmmsMvOUA1hc88PINQIxilPL4BVWKUaYBsMzvy4Lt1F0sPxvoekwS72MmvuYaA285kPUFb8J5qsQo5fGLqhSjNQbAMr/9JNtpoFjesnHjhr0DXI9J4j3SxNdcY+AtB7K+4IEX0MbByxq7KhajVQbAIb97l22jqWLZ6/XuHtp6TBiPT8b8aWTNNQbeciDrCx54gWwcvExet9vdXbEYLSZ5Dvk9sIjfZLHs9brHh7Yek8Zrt9vPjay5xsArvR1w3nqEvr+AFylPlRhFPGqCuysWo8WK+d0pj910sZyZmb5jaOsxaby99962QGvxi4iaaww8awMQy/4CXoQ8VWKU8ZIGwLgVosWK+XUofpnmjqFY/mzLls2tqvMX+vrGwOt0Oo+PqLnGwLMyALHtL+BFxFMlRiFvZACMYyHiuwHWkN9rjby41VUsX17H/IW+vjHwdu48pkcPfdrE0Vxj4IkNQIz7C3gR8VSJUcjjcwBMhWI0Pz+/VEN+fG34n5vxFcsfU2yoY/5CX9+IeDsofm/Cb64x8EQGIPL9BbwYeKrEKOQZ4e2As4KLT7/fX6ojv6kpcxzxrhlDsbya4s62+cW6vpHxHmvCb64x8EoNgJL9BbzQearE6OTxf5yLUcIAVM5vZmb6qFZr6tIGiyVfcOhQ1/wiXd/YeG8yYTfXGHiFBkDZ/gJeyDxVYnTy+B/OxWhoAGrL7853PnKm0+k8zAxuFvN1M/ho4Nc2QXmN4mdkKL7earXeSb8/2QzuNlgpvwjXNzZem+J9JtzmGgMv1wAEsL7gTRJPlRidPP7BuRgNzwGISS944fPmKT5vwmyuMfAyDUBA6wvepPBUidHJ4184FyP+FkBkesGLg8cm4MMmvOYaA2+NAQhwfcGbIJ7XjYNXyONfVilG1gZA2fyB1xyvR3GuCau5xsBbZQACXl/wJoDndePglfL4gSrFyMoABKAXvMh47Xb7sbTPXRdIc42Bt2IAYlhf8PTyvG4cPBGPH6xSjMQGIBC94EXIm56ePpZP6AygucbAW256PcADT8LzunHwRDx+QpViJDIAAekFL1LeoYfedpYeejrFb42eZt0EbznG9QVPH8/rxsET8fhJVYpRqQEITC948fO2UbyK4ncm/mbdBG858vUFTwnP68bBEw1+YpViVGgAAtQLnh7eJopnU1xq4m3WTfCWlawveJHzvG4cPNHgJ1cpRrkGIFC94OnkHUnxUorPUtxk4mnWTfCWA1gP8MDLNwAxilHK4xdUKUaZBiBgveDp583TvnuXdrt9RrvdOqvVar2D4r2t1tRF9NjHXYNfT5xENMr7hnE3E8uBrQd4E8pTJUYpj19U5S+RNQYgcL3ggRcD7zTj/k7CcoR6wZsEnioxCng0dlV8G3KVAQhdL3jgRcITG4CM43c5Qr3gaeepEqOE1+12d1f8DHIxyQtdL3jgRcITGYAc8156O+Aa8gMPPDT/2Hm93moDYOxPPFqMSS944EXCKzUABe/cWRuAAPSCp5WnSowyXtIAGLczjxdj0gseeJHwCg1Aycd2VgYgEL3gaeSpEqOQNzIAxq3577kbYEx6wQMvEl6uARCcsyM2AAHpBU8jT5UYhTw+B8A4Nn+O+fn5pZj0ggdeJLxMAyA8YVdkAALTC55GnioxCnlGeDvgrODi0+/3l2LSCx54kfDWGACLb+uUGoAA9YKnkadKjE4e/8ep+acMQCx6wQMvBt4qA2D5Vd1CAxCoXvA08lSJ0cnjfzg1/4QBiEkveODFwFsxAA7X6cg1AAHrBU8jT5UYnTz+wan5cwzPAYhJL3jgxcDbYwAcL9KVaQAC1wueRp4qMTp5/Aun5s/B3wKITC944AXPo3FahSt0rjEAoesFTzfP68bBK+TxL52a//AxawOgbP7AA692XrvdPr3CFTqX07zQ9YKnl+d14+CV8vgB1+ZvbQAC0AseeMHzOp3OGRWu0Lmc5oWuFzydPK8bB0/E4wddm7+VAQhEL3jgBc9LGgBjeZKuGRqAmPSCp5PndePgiXj8BNfmLzYAAekFD7zgeSMDYOyb/x4DEJte8HTyvG4cPBGPn+Ta/EUGIDC94IEXPI/PATBuzX9kAKLSC55OnteNgyca/ETX5l9qAJrWOzMz80dULJ9ND72D4ksU36X4FcWPKC6j+BDFWRQnUcyPOz9PvI0Uf0rxWoqLKK6guJLi5xTfofX8fKvVejPN29Pm5uZup0BvKe/Odz5yZnq6dxxpfjFpv5Ae+hrF9yl+Pfz/1yneQ/HXFH9MkfnXy7j0GuHtgLOC1nc59PUAbzJ4XjcOnmjwk12bf6EBaErvli177UWF/JmU2xWWb5PeQPGvFMc1mV+SNz09/Uf00Aso3jyMZ1Ds48orye/eFO+juDlvDnLWl5vhE02GQao5v9HYQPEYin8wA+PGBm1XE+vR7/e3077yt6TzKsvP1H9L8QaKHTXozc2vgOdkAIYal8eQH3jglfJUiVHK4xe4Nv9cA9CE3jvd6YjpTqfDX4/6ecVbGHN8gprznZpaD/6Lk/7S5AZya8a2r6d4pg2vJL/bU/xnmWbB+v6S4ukUbVu9FvPHf11flZVfqzX1yfXr1+1Xx3p0u925drt1Jmm8psLZ9By8fhfQa/cf8/FrbQASOpfHkB944JXyVIlRyuMXuTb/TAPQhF6+4iA11M9XLObpYnkz/XX4gp07j52uez0o11cJ8niulJeT39SQkfsXf0qvdH0/a5p5Z+cwit8V5Ucm4LKtW7dsrrIexPkjim9X+B59Vn6/I/P5yDEev1YGIKV1eQz5gQeePU+VGAU8GrsqNP81BqAJvb1e7y6U0y9qbv6JptP6j16vO+uaX1pvt9u5v8n+yz8d/E7AvmW8nPmbNoPPrK31CufvFxR3legVru+MGXzOXpof/eX+4gr784OJcX3NzT+Z29/v3HlMbwzHr9gAZKzvcij1BTzwwtg4eJm8bre7u2KxXEzy6s6PGvM9KKerm2r+Cd4nTA2fga9fv44/37/SIqcnF/Fy5o+b6Ucq6pXENWbwDpFtflnjdRb5XSYBZoxT+V2dppp/gvcmipZtcpbzJzIAOfmV3g64hvzAAw/NP3YeNdjdFYvlYlP5zc3NHtzkX/4ZvA8bweffRXrpofdb5vV6h/l7Z016JcFv2d+x4voebzLeESnIjxuYVYOdmjLH0etvHEPzH8UrbfJzmL9SA1Ayf1YjlnoFXoQ8VWKU8ZIGwLgVysUm8tt7720bWq2pb46x+Y/i5Tbzl9RLDz3JIbe3W87fs2vWK4nvbty4YZvj+m6l+JlDfn0JnAe9djvF/xtj8x/Fn0nyczw+Cg1ASX5WBiCmegVeZDxVYhTyRgbAOBZKvhtgE/m1Wq3Xe2j+HLdQ3EM6fyO9xOSvi13rkN/bLeaPz/a/vma9ovmj9TjPYX35JMX/cMxPZAAOOGD7FO2DH/XQ/Dn4q4Lbi/KrcPzmGgBBfmIDEFu9Ai8ynioxCnl8DoCpUCz57Py68yNXwp/73+Kh+Y+CL5wzI5k//nmaBj38VZf8qLGeK5w/fkv8vxvSK+LRvnKy5fo+rUJ+pQaA82i323/uqfmP4sNF+VU4fjMNgDA/kQGIsV6BFxlPlRiFPCO8HXBWcPHp9/tLdedHTfFzFYo5f2b9LYof0+tvrdAcniGZv6Hev3edv5QBKJq/h0t4OXr5XY0fUFxuBO8gFPAu37BhvegcCTP4yt91wvysDQDP0z777L2eGD+t0Pz5ipHfNIMrJFYxT/fNyq/i8bvGAFjkV2oAYq1X4EXGUyVGJ4//49S8Ugaglvzor8wTHYo5N7hzzeBra+0Rb/v2xfXEexA12U85NAf+Gtw6wfxx8Zd85S9z/hIGoGj+OmbwroRt82cj9BgzuDTwaPDb8rczA9OS+Z38Ah7H6cWruWfwOyJfE/KsDcBoPeiv/+c4NGs2QK+huEOSt3nzps18A55Wa+rrDvvfxcN5XZVfxeN3lQGwnL9CAxB5vQIvJp4qMTp5/A+n5pUwALXlRw3xIsvi+xuK+5XpNYN7AVxtqfXpJfO3xdh95W/N/A0NQNn8PUjKSzSHcyh6JdN/GzP4+qO0+Y9MxVQucTBeb8GzMgCj9dix43ZzxPmxZbP+HsUds3ijteWLQpGx4Hd/Si+ulIrdWbwKx++KAXCYv1wDoKBegRcTT5UYnTz+wal5cQzPAaglv9nZ2cP4bXuLfLj53s5C79HG7kS9bw0v+pLFyzzBzXb+hgagbKo+KuUNm0PmFQZzxnSSL2w2uwt4bMZW1rDC2+prDEByfbvdzkMteV+h2CuPl7G+DzN27+y8r+bj97QK85dpAJTUK/Bi4qkSo5PHv3BqXoMGNlV6O2BpftQMXy3NheImirs76H28jd5er3ufHN5fWORa1AzfXjJVB5icRuTIyxr8TsZPLZrNBQWcn5fk52QA0utL+8qHLHi/HM5jLi9nf3mtRb43842H6jp+aZxWYf7WGABF9Qq8CHleNw5eIY9/6dq8OKwNQF5+9ND/leQyjGc56uXxPqleajRnZ/D4ioG/sMi1aP7KGvYzLHjfoLC+pDHr4ssXWzSba032VRNXDFzF5r/KAKTXl+8GSbwbLFgPSOsV7i/87silkm2wvna7/fS6jl9inV5h/pbTPEX1CrzIeF43Dl4pjx9wbV7WBiAvP2LeoSyPRHCj6zjq5cHbyn17N6X1Z3e4w46ZFO+RFrmWzV+ZAfiMBe9eJaw1Izl/ZHY+bdFsTkmh+CORqwV6rQxA1vp2Op1HWHDenadXuL/8adk2EmbxM3Udv3xCYoX5W07zFNUr8CLied04eCIeP+javKwMQEl+zyrKIxWPqKB3NDI/v8/SS3Fs6rUvk+YqmL8iA7DeDIq5hPdZiejkSM9ft9t9oEWzSee9j1Cv2ADkrS899lYLzhF5eoX7C3/t8dt5/JTW5c2bF/aq4/hNGgCHuVuuoFeUH3jgSXheNw6eiMdPcG1eYgMgyE96DX3+7na3hvlbcwGkAr3PTr1WdK6CcP6KDMDxFrxHSYXvEZ/fXL8l0Ubx/SSPclmqsfn/DzXAfsH6Sj8q+kKZXuH+8vQsfo7eBxSB8kY6v5EBcJy/5YDqC3gTzPO6cfBEPH6Sa/MSGQBBfvz2sfQz9fNrmj/+COHXQr3/kXrt6WV5WsxfkQH4GyGPr4OwVSq8ZP5eVaYtEfuNeAcffCB/Le93dTR/jq1b91rIye82FpwXCvRKxvY0u2A9XiGFjkZWfnwOQIX5Ww6ovoA3wTyvGwdPNPiJrs2r1AAI8zuggJ+OR9c4f+cL9f4s9brNZnAd+KrNv8wAfEjI+6JUsGA9jivINR0PTvJardY5dTR/fv22bVs35eT3QAvWUTUebysXNipZj0/YQPPyM8LbAefM33JA9QW8CeZ53Th4osFPdm1ehQbAIr9Vb3UXxbp1/cW65o/GIy30bkq99oys5znMX5EB+K6Q91KJWOF68FmP+2IAACAASURBVGfevyrJeRQvTPI2btywD+X3I+Frc5t/ygCk8/srIesXW7ZsbtV4vL08mV/BelwpBZash5MBGJ2LEFB9AW+CearEKOXxC1ybV64BsMwv8zPWdFA+P6tz/mZmpo+w0Hu3DMzjTOJyukPGtZZn02caAL7BEBdyYX4Plui1WI9PC/Lms97flebxuQD02Jcynv85U3IlxqTOoQHIyu9fJLlRfKLO443GKRbHx0IZTLAe1gYgkddyHcdHoPUKvIh4qsQo5fGLXJt/pgFwyO8fyrbD+VDD+Xyd83fQQUt94t4k1PuYHBy/M3AqX5e+0+k8bMOG9fvy/Qcs5m+NAdi9x5zM3MFiPQ6X6LVYjzeU5T1cj//O4fGdC+9pBsaOTdJRw9//sIiXjOE5AFm5XSSYU87tnDqPN0uzeHQZT7AeVgYgldtyHcdHoPUKvJh5qsQo4NHYVaH5rzEAjvn9W9E2RjlRUX9b3fPXak1dLtSbeXndLL1kBE4W8DINwIjX63V3C9eDr2eQdVGe3PwE8/fUopwTef3Qcj0yDUDW/sffAshhfKMotxGPDNlz6zzehmbxZuHxcUIZT7AeYgOQMX/LodQX8MALY+PgZfLor9XdFZr/KgNQIb9P5fGTeVFR/191zx+ZitKrAg7jNRLe7sHbXicKmasMQJJHDfBU4Xr81EavcP7WfEXSZKwHxfWW67HGABSYzzwDUPhtkRGD7xVQ9/FG3CuEx8cZEl5JfiIDkDN/pbcDriE/8MBD84+dZ/GXZqEBqJjfZVnsdGEjA/CUuuePHnqTUOc7JbxhftYGIM0jrU8VrselNnqF83enrG1lNRvKc4MEOByrDEDJO09ZBoBPULwlK7c0r9fr3bvu4424X8zbdirOlPBK8is1AAXzZ20AYqlX4EXIUyVGGS9pAIx9899jAGrI7wdpbk5xe3RVvRn5SW/48j4hj4eVAcjiUWN9vvD1a74CWMN63C69nYJms7cUahIGQPCxU5YB6Gfoz+TRjn1s3ccbPfTxvO2n4mUSXkl+hQagZP6sDEBM9Qq8yHiqxCjkjQyAcWv+e+4GWEN+VxlZcXtoVb0Z+Ukv6/thIY+HrQHIajYvEr5+1ffOa9pf9jWy9eBYsuD+UMArMgCbMp6XyaO4vY3g0SiZP+nHRa8W8opGrgEQzJ/YAMRWr8CLjKdKjEIenwNgHJs/x/z8/FIN+a1877ykuFldZlU4f9K/tD9psR5iA9Bqtc7N4f2NkPEBS72SscHI1oPjUAvuD4XNP88A7J1+XgFvf1vRgvk7NyfXdLxeyCsamQZAOH8iAxBjvQIvMp4qMQp5Rng74Kzg4tPv95dqyO+3Rlbc7l1Vb0Z+0gvL/JfFeogMAOtLGYAk75XCvN5tqVcyZoxsPTjuKAFyHvT6NQagQFeWAdjPpOavgHcbG8HC+XtzQb7JeGMN67HGAFiYp1IDEGu9Ai8ynioxOnn8H6fmnzIAzvnR+JWwuIneAbCcvxdK9LZaUxdZrEepARhpTBiANE/6DsAH695f2u32Jotmc9sy3ii/tAEo0ZVlAFbuAyDIb3+pXov5O78k51G8tob1WGUALNaj1ABEXq/Ai4mnSoxOHv/DqfknDECl/IhzpbC4pe9B76I3PV4h0UuN+oMW61FoAJI6hwYgiycyJhSfqnt/mZ+fO9Ci2Wwv443ySxoAga4sA8BX2JM2wx1SvRbzl3kL6XTQmp5Vw3qsGADL5l9oABTUK/Bi4qkSo5PHPzg1f47hOQCV8iPO94TF7TE16E2PwqsQJhr1ey3WI9cApOdvaACyGM8uyivB+1Ld+8vs7MwdLZrNtjLeKLeRAZDoMhkGoNvtzlk0w2Okei3mr/QqhJxPu91+WQ3rcdqIZ9n8cw2AknoFXkw8VWJ08vgXTs1/0MCmSm8HXJYfMb4mLG5PrkFveuR+rptq1G+2WI9MA5BTzPNuBvTnBfOwwqO5+2bd+8v09PRdhOvBVyGcLuMlDUCZpkT007ydO49hxk3CZngvqV6L+Su8DsAoJzIAz6y6HjROc2z+mQZAUb0CL0Ke142DV8jjXzo1/+Fj1gYgnR81148Ji9vLJDzL+fuoRC/l+LcW67HGABTMX54BOCkrrwzer+veX/gqesL1+JWEN8rPFNwLICP6WTzK6yfCZniqVK/F/P0kb3vJde10Oo+suh5kIk53bP5rDICyegVeZDyvGwevlMcPuDZ/awOQlR8113eW5TCMC2rQmx7fF+p9ioXMVQagZP7yDMBd0nnl8davX7dPnfsLNZ/n5W07Fd+U8BLrYW0A0rxWa+rLwmb4Eqle4f7C91u4NWtb6fXodrv3qboeZCLOcGz+qwxAAPUFvAnmed04eCIeP+ja/K0MQF5+Rv6Vt6/VoDc5+O3rZaHeB0mhJmEABPOXZwD2M8L1mJrKvFVx6ShYD+ktdz8m4SXWw8oAZPHILH5A+Pp3SfUK95cjsraTvR5Th0iARfklDYDFnK0yAIHUF/AmmOd14+CJePwE1+YvNgAl+T0mL4dUXGsGt5qta/52WOi1ueDNiQJemQGYorhGmN/pNqJ5lMzfpzPyzIrXCXmjITYAfDfALB49dpaQcbGFXsk4Jb2NnPW4gaIjheblNzIA0vlKxXJA9QW8CeZ53Th4Ih4/ybX5iwyAIL9jc9hZcXSN8/cXQr03GruifqLF/OUZAB4XC/N7i43okvmbNQOjJVmLJwh4ySE2AFu37rWQw3uskHETxUbL/IrGPyb5BevxtUJKxsjKj88BkM5VRiwHVF/Am2Ce142DJxr8RNfmX2oAhPmtNwV3eUvFS2qcvw8I9X5VCuQ86K+3ky3mr8gAvE2YH99LoSXNr2T+7l+Qazp2Wu5/IgPA+rZt27oph3e0RX6n1Hi8fTeZX8F6nGcDzcvPCG8HnDN/ywHVF/AmmOd14+CJBj/ZtfkXGgDL/L5asp1RfhfXNH/8+f81Qr2vlwBHemk8yGL+igzA4y3W42hpfiXzV3hdhERcP03Dcv8rNQAjjQkDkObxOzG/E+b4tpqOt0PT+RWsxxOl0JL1cDIAw5yWK+qV5AceeKU8VWKU8vgFrs0/1wA45Pf3Zdsa5nTr3NzsjqrzR+MUC71/WgZL6k0agDJNJscAMG92dub2Fuvxd9L8CtaD//L8qSBnDpcrEBYagKTOoQHI42V+dTOD96t99tl7Yw3H24vT+RWsx2ESoGA9rA1AIq/linpDrlfgRcRTJUYpj1/k2vwzDYBjfjaXz/3nqvNHnC8I9fIZ1VvLeEm9IwNQpCcRawxAkjclv3zu1Wb4mXdZfgXr8Uhhzv/Tbrde7LD/5RqA9FoMzwHI4zy3LL8Rp91uP73i8cHnRFwlPD6uNIOTNwuHcD2sDEAqt+UKekOvV+DFzFMlRgGPxq4KzX+NAaiQH9+BLvOt3Yz8+GpwNmflr8qv0+k8xELvp8p4ab18DkABr9AApHlkdl5nsR5r3gWwWA/+SGTlc+6i4HxmZ2cOd9j/Mg1A1v7H3wIo4Ny2LL9E/Hzz5oW9KhwfZ1ocH/9YBrNYD7EByMhvOZT6Ah54YWwcvEwe/bW6u0LzX2UAasjvXWl+QfG9xAz+OrPSu25df3EqdfOhEn1PKuJl6TXC2wGblAHI4vV63XtasPhEyvuW5ZezHm+QbGPwDszUNxzXd40BKFjfIgPA45K8/DJ47zeCv8zTg157BMV1FsfHPYp4lushMgA5ektvB1xDfuCBh+YfO48azG6LZphrAGrK736mvLgl4002eg899Laz9Bf1Zyz0Xk+xVx6vQK+1Acjjbdmymc/u/78WvJ9TLFqux6kSduJt9ec5ru8qA1CyvmUG4K/y8svhPcMmUdK4kV7/XYvm/z1T8E0Mh+Oj1AAU6LU2ALHUK/Ai5KkSo4yXNADGvvnvMQA15sd/pX3LyJr/KM42g5PXCvXyZ8rU/P/d0uy8tWz+cvRaGQAB7y8teBzfmZmZPly4HnyC43VlzMS8XbewsPE2juu7YgAE61tmAPh8h99b8LgpPleSJO0n+9DrL7Z8Z+zZeTzH46PQAJTotTIAMdUr8CLjqRKjkDcyAMat+e+5G2Cd+dF4ikXzH8UnKA7O0zs93Ts6ecdBoV6+7vtRZfOXo9fWAJTxNlD8VsocavxNp9N59M6dx07nrAc32FebnOvbZ/CGb/+33lphfX+Y5hWsR5kB4PEGC97KfFNsKWAeP5W44ZBwf2EjsjkLVuH4zTUAQrMjGrHVK/Ai46kSo5DH5wAYx+bPMT8/v1Rnftu379engvYDh48lbjaDC/vwX8t83f4HUzybGv+niHGLA+99kvnL0Ss2ANRQzxXO34skvIzmcIUZ3GuB3+b/EzO4kh5f6//XDrwb5+ZmD3ZdXxo/tGjWpQaA5m7fKbvP6JMNmy/Y84ThnDzMDL7q92UH88nRxF0qMw2AMD+RAYixXoEXGU+VGIU8I7wdcFZw8en3+0t150d/uZ5uUXxtmqGNmVj1fW7L9RAZgOFf1OcK54/vRndVQ3pFPMr1H6us71TiK42C/AoNwGg92u3WWU3pFfJ+aTK+flnD8bvGAFjkV2oAYq1X4EXGUyVGJ4//41wsEwagtvz4bWv6y110sZey/Bybwyst5i9rlBqARFM912L+TmpIr4R3ZbvdXihLMGuM5i9tAEpyyDUAyfXgC/0Q69sezeKji/KrcPyuMgCW+RUagMjrFXgx8VSJ0cnjfzgXy6EBqD0/Ym83g4vbjLv580mIs2X5lei1uajRuZbz986a9Urmj88TOEGaYHIk529KflGjXAOQtR69XneXSd3WuaJe6Ws/LMnP8fhYMQAO+eUaAAX1CryYeKrE6OTxD87FcngOQFP58dcCrQp7xWbIFyK6g+X8ZY0TpPkNDYDNtHFjXPkO/BiaP//+5TYJjkZ6/qaG53YIc5kv46XWY83XAivolcT3TepkwpqP39Mq5JdpAJTUK/Bi4qkSo5PHv3AulvwtgIbze2qV/KSvNYPbxz7AIb+sscsiv3+wmrjB4HdHfjym5v8eI7zTYHJkzR/xviHMhc/BmCrjZazHG2vQKwk+gfIOyQ3XffzSOK1CfmsMgKJ6BV6EPK8bB6+Qx7+sUiytDYCDXr7DWuHtgis2wxvN4JsDrvmlxz4W+T1FCk3mNzc3dzAxvtNw8/+gGVwi2Dq/rPkzg29WSPL5poSXsR5sGl5bQa8kfmNSd15s4vhtt9unV9ifl9M8RfUKvMh4XjcOXimPH6hSLK0MQAW9p5ic78JXbP585bx715Bfevy3ID9+12G7DTSZ37p1/f1brdZnG2r+rzMlF1gqyy9j/h4jzOmvhbyswSbgOWbwLkLdzf9yih0Weq3HiNfpdM6oYO6W0zxF9Qq8iHheNw6eiMcPVvlLSWwAatDLN4H5jGV+RcEnce1bY37JsZPihpL8zrQBZuXHlzemh15qBpctrqP581cNH+oiWDB/bCj+qyQnbrLrhbyicTczeCehjubP7z7xZafXWeq1Gkle0gAI8ss0AIHUF/AmmOd14+CJePyEKn8piQxAjXr5Lzy+cMulFZr/V8zgK3VN5LfC6/V6d6G/0C+ivG5O5Mdn1PNJfA+35ZXkd6AZfEPgJuEcpOfuasr11Z1Oe72rXuH8zVGcZQbfn0/mw5+r8930Fix5RYMNx9MpfpShV7K/8FpdRHFsBb2ikeaNDEBJfrkGIKD6At4E87xuHDwRj5/k2vxFBqApvb1e9z7UtP5lanjp1pz8RvFjMzhJ7O7jym/E2rZt66aZmZnDKMfb08ObqvJK8uPzD55H8TlT8A2K4ZreQPP3n9T0n8T3Shjz/sdGjj/+OJxif5M46a/u9ej356mfdk4hreeT5l8Jmj+/C/EqkzrRr6n8snh8DkBBfhIDEEp9AW+CeV43Dp5o8BOrvE1aaADGpZcvC2sGt8LlS93y5YD57m9cRI8vyjHA9aiTx1+lu7MZXAaYb2vMN8N5AjXDh8/MTN/5oIOW+sr0lvLufOcjZ2ZnZw8xg69qPs4Mvj74NDP42t29TM41/ceV34hnhLcDzgo6XpdjWQ/wdPO8bhw80eAnuzb/QgMQqF7wwIuB52QAhsfscoR6wVPIUyVGKY9f4Nr8cw1AwHrBAy8GnrUBSBy3yxHqBU8hT5UYpTx+UZWz6dcYgMD1ggdeDDwrA5A6dpcj1AveJPBUiVHAo7Gr4lfpVhmA0PWCB14kPLEByDh+lyPUC552nioxSnjdbnd3hea/ygDEoBc88CLhiQxAjnkvvR1wDfmBBx6af+y8Xm+1ATD2Jx4txqQXPPAi4ZUagIJ37qwNQAB6wdPKUyVGGS9pAIzDWccUizHpBQ+8SHiFBqDkYzsrAxCIXvA08lSJUcgbGQDj1vz33A0wJr3ggRcJL9cACM7ZERuAgPSCp5GnSoxCHp8DYBybP8f8/PxSTHrBAy8SXqYBEJ6wKzIAgekFTyNPlRiFPCO8HXBWcPHp9/tLMekFD7xIeGsMgMW3dUoNQIB6wdPIUyVGJ4//49T8UwYgFr3ggRcDb5UBsPyqbqEBCFQveBp5qsTo5PE/nJp/wgDEpBc88GLgrRgAh+t05BqAgPWCp5GnSoxOHv/g1Pw5hucAxKQXPPBi4O0xAI4X6co0AIHrBU8jT5UYnTz+hVPz5+BvAUSmFzzwgufROK3CFTrXGIDQ9YKnm+d14+AV8viXTs1/+Ji1AVA2f+CBVzuv3W6fXuEKnctpXuh6wdPL87px8Ep5/IBr87c2AAHoBQ+84HmdTueMClfoXE7zQtcLnk6e142DJ+Lxg67N38oABKIXPPCC5yUNgLE8SdcMDUBMesHTyfO6cfBEPH6Ca/MXG4CA9IIHXvC8gw5a6i8sbNzabrcXzOAY20FxLMXJFC+g+FeKy0yOAYhNL3g6eV43Dp6Ix09ybf4iAxCYXvDA08Tj4+/xFO+nuMH8wQCEkh94E8zzunHwRIOf6Nr8Sw1AgHrBA08rbyvFc+l4/U6g+YE3YTyvGwdPNPjJrs2/0AAEqhc88FTzDj/8sNmQ8wNvcniqxCjl8Qtcm3+uAQhYL3jggQceeGPgqRKjlMcvcm3+mQYgcL3ggQceeOD54KkSo4BHY1eF5r/GAISuFzzwwAMPPDR/8Oh13W53d4Xmv8oAxKAXPPDAAw88NH/w6PW93moDYOwvOrIYk17wwAMPPPDQ/MEjTtIAGPvmv8cAxKQXPPDAAw88NH/wEgbAuDX/PXcDjEkveOCBBx54Y+KpEqOQx+cAGMfmzzE/P78Uk17wwAMPPPDGxFMlRiHPCG8HnBX8zkG/31+KSS944IEHHnhj4qkSo5PH/3Fq/ikDEIte8MADDzzwxsFTJUYnj//h1PwTBiAmveCBBx544I2Dp0qMTh7/4NT8OYbnAMSkVzxI31Kn035ku93+m3a79XetVuscDnrobNcYMZIBHngFvH+hfe8s2gfP7HY7D960aWFLKMcHeOCJIN42Dp6Ex79wav4c/C2AyPSWjX0oXkpxScUrJIrmDzzwLHk3UXyc4okUM0Y4Aj7ewJsAnteNg1fI419WKW7WBiDQ+etTPJfidybe5gDeZPF+TPHnFG1TMAI93sCbEJ7XjYNXyuMHqhQjKwMQgN6scSczKKaamgN4k8P7JMVmkzECPd7AmxCe142DJ+Lxg1WKkdgABKI3PR5Kca0Jp5iDB54L7zsUh5nECPR4A2+CeF43Dp6Ix0+oUoxEBiAgvclxPMWyCa+YgweeC+9nFPtRhHq8gTdhPK8bB0/E4ydVKUalBiAwvaNxKMVvTLjFHDzwXOKr3W5nPsDjDbwJ5HndOHiiwU+sUowKDUCAennwSVOXmvqLL3jgeee1Wq03BHa8gTehPK8bB080+MlVilGuAQhUL4/HmYaKL3jgBcC7eXZ25vCAjjfwJpSnSoxSHr+gSjHKNAAB6+XvTv+kgt7YmwN4E8BrtVrvDuR4A2+CearEKOXxi6oUozUGIHC9J1fUG31zAG8ieLeQCdjXOIzAj1/wYuapEqOAR2NXxWK0ygBEoPctgRfzy9vt9l/2er1d09PTd+Ggfx9LzKPosay4N8WfUTyL4oMm8ZXGGvK7guI5FPcZbY/z4HxGuQnyS8cxFA82g0vd3lCQ39cpnkxx3DBY30/GtB63UlxI8YipKXNX0ndcp9N5BDXUc4l1c2D7SxGP589qhH78ghcxT5UYJbxut7u7YjFaTPJC1nvAAdtJ3tQvAm7+F2zfvl+/ol7+iIMb7Jcr5vceiukkuO71oFzYOPw+I79/puhkvGQDxaeL8q6p+T8qTy8fL/TQ9ZZMH82f40Kb9Qj9+AUvYp4qMYp4vd5qA2Dsi9BiLHr5xkUBN/8ramj+K4PNDv3VejLl9COH/PhyyAvp+Wtifdvt9ktS+V1C0Sp4KZuA72TlXdN6/IdA76scuD4+RviW7XqEfPyCFylPlRhlvKQBMG6FaDEWvST2noE2//+hRvjMJuZvYWHjbVqt1gcs8/v3PF7d+c3MzByZmr9nChD8UcINppn1eJxA711tuR6aP8f1tusR8vELXoQ8VWIU8kYGwDgWIr4bYCx6u93uA0Ns/vx6Wof7NDV/O3ce06OH3mSR0z8U8erMb9u2rZtS8/cgIeppppn1OF6gd28bpqfmP4qezXqEfPyCFyFPlRiFvOFnms7FiN9Wj0UvaT0pxObPMT3dO67h+eOLH10ozOsNAl4t+W3evLBXatsnWCDfU/d60D5yH4HeTVKe5+bPMZc3eTHWK/Ai46kSo5BnhLcDzgouPv1+fykWvZ1O5yRXrSO9TRXzoQFoev7WUfxUkNvHx7X/kfYjU9sWGQDmLSxs3Eqv/76Hd2JEBiCA5p9rAGKtV+BFxlMlRieP/+NcjBIGIHi99NADXbQm9TZVzHu93t3GNH+nCvK7od+f339M+9/fprZdagCSPDZONH831bUeCQNQpLfUAATS/DMNQOT1CryYeKrE6OTxP5yL0dAAxKLXyQCMo5hTHNuA3rzx9bL8Wq3WJ7du3bK54fW4p1n7lbpCA5DFa7fbzynSUxarjdgeA1Cmt9AABNT81xgABfUKvJh4qsTo5PEPzsVoeA5ALHqtDcAYi7nEAKw3iYvq0GuPmp2dPcRh/s4U5vcjMgJ/Tb9/gBlcwCd5QZ8DyzbCeczMTN9x9UWDutz0H0bxdoqbMnLINQB568tfeaSHP5CnqSjSazE8B6BMWq4BCKz5rzIASuoVeDHxVInRyeNfOBcj/hZARHqtDMCYi7nEAKw6YTPB+UGn03mMxfzdtga9hReZGa0H7R+XWM5fpgEQrO9mih8J+GV67yWYv0wDEGDzXzEAiuoVeBHyvG4cvEIe/7JKMbI2AB71ig2Ah2JuZQByeM8WThlfaOfGinpzDUByPZIGQDhXawyAxfryHGa9q2CzHk4GINDmv8cAKKtX4EXG87px8Ep5/ECVYmRlADzrFRkAT8VcbAAKeMsUhwqn7gcV9WYagPR6jAyAxXydUMQT7C/PK9tGiV5rAxBw8+ePNOaU1SvwIuJ53Th4Ih4/WKUYiQ1AAHpLDYDHYi4yAALey4TT99WKetcYgKz1IN4llnN2QhFPsL/wuxsfyeML9FoZgJCbP8fee2/boKxegRcRz+vGwRPx+AlVipHIAASit9AAeC7mhQaAddFfc/cT8P5VOIU/rKh3lQHIWw8zNBoWcUIRT7i/bKFYc+dAoV6xAQi9+fPr99ln743K6hV4EfG8bhw8EY+fVKUYlRqAgPTmGoAAinmuARjpTRuAHM45kvmbyr4Ln5MBKFkPawNQ0/5yDzP4SMR2PUoNQLvd3hTA/iLiJQyAlnoFXkQ8rxsHTzT4iVWKUaEBCExvpgEIpJhnGoCk3qQBKOD8Wdn88UV+atB7YTq/nPVwMQB17S8vNPbrUWgAOI+NGzdsC2B/EfGGBkBTvQIvIp7XjYMnGvzkKsUo1wAEqHeNAQik+WcagLTekQEoYFxKkfu224jX6XQeVYPeC4XrYWUA+BbGde0vW7ZsbrVaUx+3XI9cAzDSu2nTwrYA9hcRb3gOgNP8BXj8ghcZT5UYpTx+QZVilGkAAtW7ygAE1PzXGIAsvWwACl7/TYolyfxRV3xzDXovFK6H2ABwPqTx5Dr3lw0b1i8S9yoLvZkGIDl/SQNQYf7Gsv/xtwCqzF9gxy94kfFUiVHK4xdVKUZrDEDAelcMQGDNf5UByNNLzDvRwx9PxMco3klxBsW0ZP6oefENdK6pqpdMxLuF6yEyAImGdbJgffnOhreX6OXo9brHE/sWobY1BiDNGxmAKvM3xv3P2gAEfPyCFztPlRgFPBq7KhajVQYgcL17DECAzX/FADQ9f9S4/6kOvcR5jzC/UgOQ+ov1ZIFe/sviG8biRjf00EuF+u5VxuNzAKrO3xj3PysDEPjxC17MPFVilPCo4K75brmxK0CLSV7Iemk8MNDmv8cAND1/nU7nNMrv1jr0JgxAWX6FBiA9d8NzAMqkdYevf0uR3lR+/K7BpwQa71XG428BVJ2/Me5/YgMQ+vELXsQ8VWIU8Xq91QbA2BehxVj0UnM5KdDmz689tsn527HjdnPUtLlh3lyH3qEBkOSXawBy5q/0dsDmDwaA47QsvTnztw/Fz0t03kvAczIAnsynyADEcPyCFylPlRhlvKQBMG6FaDEWvTROCrH5c9BC3G1M83cQxUer6h2eAyBJJ9MAFMyfrQHg6xnssNhfjqcoOh/gXoL9z9oAeHznqdQAxHL8ghchT5UYhbyRATCOhYjvBhiL3qQBcNVrGirm09O948Y4f3y53BdRiD4OyNFbeDfAxFhjAErmz9YA8Ou/sffe2xYs5u/lBXrvJZg/KwPg+WOnQgMQW70CLzKeKjEKeXwOgKlQjObn55di0TsyAFX0NlXMEwZgnPP3jAp6nQyAYP6sDEDiHYl3WMxfh+KzMEa9HAAAHQRJREFUWXppH7mPYP7EBsBz8+f4pFn9zZFVQQb+Ipq7RExdVPT8shgjj+/3sFC20MkRY32OnqdKjEKeEd4OOCu4+PT7/aVY9PI5AK5aR3qbKuZDA+Bj/l7rqNfaAAjnT2wA0qx2u32GxfzxuSu/TOvt9VYZgLz5ExmAAJq/Zt6bBGu8MmKtz9HzVInRyeP/OB+cCQMQvF4jvB1wkd6mitvwHIBa9Qp5fP2Ayxz0WhkAi/krNQBzc7PdHN71FEcI8+JxfzP8GOQP67BiAIrmr9QARN5cQ+fxOu9XurrDEXl9jpunSoxOHv/D+eAcGoBY9DoZgHEUNwrJ7YBt9UrHiQ56xQbAcv4KDQDrOvjgA+cKeGxm5i20v3q1EdtjAMrmr9AARN5cY+C9umxRR0NBfY6bp0qMTh7/4HxwDs8BiEWvtQEYY3GTGID0lQAzPiNtXUC/fwrFRoupmzKDSwnb6C01ADzv9PpLLOcv1wCM1veQQw6eL+G9XSJ6ZCZozr44Yg3PASh7aa4BUNBcQ+ddTbG5bIF4KKnPcfNUidHJ4184H5z8LYCI9FoZgDEXN4kBWHXCZgnv1xQPtpjCF1rqLTQAo/Wg/eMSy/nLNADJ9U0agALOYyX5Ma/fnz+QWL8c8kpvB2xyDICC5hoD7wWC9dFUn1XwvG4cvEIe/7LKwWltADzqFRsAD8XNygAI8+Pvu5eaAJ6n6eneMZZ6cw1Acj2SBkA4V2sMQHp9RwaghHMtxR3K8htFp9PheeLzAZwMgJLmGjrvKiP4eEdZfY6e53Xj4JXy+IEqB6eVAfCsV2QAPBU3sQGwzO83puAt09H88ZUCiXODhd5MA5Bej5EBsJivE4p4HPy2vZB1BcW6Ml5if+FvRFgbACXNNQbeX5QtTAD1FDzXEboYpTx+sMrBKTYAAegtNQAei5vIADjm95eS+aNmfZmF3jUGIGs9iHeJ5ZydUMTjn/lbABa8d5TxEvtLz8j25xUDoKi5hs777nB9ckcA9QW8FM/rxsET8fgJVQ5OkQEIRG+hAfBcLAsNAOvqdrv3c8zvPZL5IwPwGQt9F5bx+GcjvB1wIk4o4g3X18YAcJxR8/63xwAoaq4x8B5RtCCB1BfwUjyvGwdPxOMnVTk4Sw1AQHpzDUAAxTLXAIz0pg2ART6flswfPfRhC+aFZbzhelgbAMH62hqA66anp4+sa//juwEGsL9MEo/fRWrlrUdA9QW8FM/rxsETDX5ilYOz0AAEpjfTAARSLDMNQFJv0gBY5vRe4fxZvwMgWA8XA1C2vlYGYDhn396yZa+96tj/Nm7csC2A/WWSeA8oWo+A6gt4KZ7XjYMnGvzkKgdnrgEIUO8aAxBAcRvFGgOQ1jsyAA55PUc4f1dYMC8UroeVAeh0OicL1ldsAJLrwNdIqGP/27RpYVsA+8uk8D5bth4B1RfwUjxVYpTy+AVVDvZMAxCo3lUGIIDiloxVBiBLLxsAh7yuo9hXMH98sN5kwb1QuB5iA8DzRRpPFqyvyADkrMfjsoBlIzl/SQNgMV8hNtcYeHcrW4+A6gt4KZ4qMUp5/KIqB/saAxCw3hUDEEhxS8aKASg4mFzu3Pjnwvm7uw2X/pp+t3A9RAZgNGcJA1C0vqUGoGA9+DryR+aBs0Z6/kYGwGa+LPID7w/xfsl6BFRfwCvjqRKjgEdjV8WDfZUBCFzvHgMQSHFLx7ECvTYGgP/yf6LF/L3CRi8ZgPcI16PUACTnbWgAyta30AAI1uNbFP2iDYxG1vzxOQDSuXLMr04efwPkApugtb2QDV4iLrRkfLkGvXwRqzUXcgq8voCH5h8Xjwrumu+WG7sCtJjkhayXxgMDbf57DIBA7zEUF5fEf1K80Mje9h+NDsUPC3L7CcWlzCd9X261pr7cbrdeLVyPd6Xy4+b727z5G54DUMTjkWsALNbjvLKN5M0ffwugYK5Cav4cc2U6y/Q6HG//VYPed6ShodcX8ND8o+P1eqsNgLEvQoux6KXmclKgzZ9fe6zH+XtCRk7LZvCuwD4OvLLRprgnm4mM+Su9HbDJMQAO6/H4vA2U6HUyAJ7Mp8gA1Li+dXzMdiPFAQ3lBx6aP3gjXtIAGLdCtBiLXhonjbn4ioMW4m6e5o/fCr8qI6cnO/LE+W3btnVTqzX1rdT8ORkAx/Xgj0mOyMuvQK+1AfD4zlOpAahxffm7+pfUoPd1DeUHHpo/eEneyAAYx0LEdwOMRW/SALjqNQ0V8+np3nGe5u9/Z+TEHwe0HXlW+XU6nTNS82dtACqux6r7BQj1WhkAzx87FRqAmtf3z2rQew3F1obyA2/cPFViFPL4HABToRjNz88vxaJ3ZACq6G2qmCcMwDjn71QzuANeOq93OvKs85ubmzs4tW0rA1DTerzLUu9mKdtz8y80ADWvb4/iuzXofWlD+YHng6dKjEKeEd4OOCv44O73+0ux6CUDcF9XrSO9TRXzoQEY5/zxtw6uy8nttePa/3q97mxq2ycKcNOm/vV4goXeAyXMAJo/m7vMS+jWvb40nlyD3v9Hsb6J/MDzxFMlRieP/+NcjBIGIHi9lO+RLlqTepsq5sKz3630FvAeQvH7gvzeNMb9L/3X9CPLeK1Wa82leGtYj+tnZqaPFuo9UcDz3fw5fu2wHtaj2+3MUz5X1aD3GU3kB55HnioxOnn8D+diNDQAsejlz3qz3vIOoZi/vgG96cFv0760bA4on0vGuP/9cWr7rynjUcM5saH1+PbWrVs2C/SeL+T5bP4cX3RYD6vBr2u3Wy+qQS+fdzKjoJ6ClwLoEaOTxz84F6PhOQAx6b24it4Gizm/Hb/mwic16OUxRfEwiu9I8+v1uvcZ03r8eyoHfht4cx5v585jeq1W62NNrQex379ly+bcO8+ZwdfcbpHyPDZ/jsbPpt+wYcNtKKera9D7WCX1FLw0xNvGwZPw+BfOxYi/BRCZ3hdV0St9rSPvSjP4i7guvftTPM0Mv5plmd8v+C/tBteDv3742pxcvkCxlOZRY95EDfrsMawH3z1x75QkvljSUyhucOD5aP4cK3fRa+p4o7/+X1OD3ss2bFjfVlJPwas6QhejjMe/rFKMrA2AZ713rKh3HMWcG/ZbKc7OC2qE56Rj+Bi/7qOm+Mp+Nvl92wzOks/NxTI/jg9RXF2S081mcCe4Nw94Ux+mnH47xvXg7X+C4k1m8Jb/lQHvL1nxczP4tkRjx1u/P38g5XV9DXpP9lgPwGuY53Xj4JXy+IEqxcjKAASgl8cH0xqNXK+PYg4eeLbR+Al1ZOreWoPe/8Mf6yiqp+C5jtDFKOXxg1WKkdgABKKXB3/Wvmzc9GpoDuDp5n2fYrrJ4212duaOlNvNVfXydUgCqAfgNcTzunHwRDx+QpViJDIAAekdjdcZN72xNwfwdPP4Gx4nNX280V//76yqt9Wa+mhA9QC8BnheNw6eiMdPqlKMSg1AYHpHg3fOT5qwizl44NnGS5o+3virv5TfTRX13jozM31MQPUAvAZ4XjcOnmjwE6sUo0IDEKDe5OCvm10ecDEHDzybOP+AA7ZPNX28tdvtv6qqt9Vq/VuA9QC8mnleNw6eaPCTqxSjXAMQqN5VvIWFjVupGH08wGIOHnjS4Lf9X8HXLxjH8UYPfayi3pvm5mZ3hFgPwKuXp0qMUh6/oEoxyjQAAetdw9ux43Zz7XbrLNJ7Y47GmJsDeLp5/HW/h435ePtVFb18LYeQ6wF49fFUiVHK4xdVKUZrDEDgenN5pJlv8vIuE+7lgsEDbxR8Lwe+rHN/zMfblop6r123rr9/DPUAvAZ4qsQo4NHYVbEYrTIAoesV8vaneB7FRRS/MfE1B/B08n5CcQHFY42/u+YdUkUvv9MWYT0Arw6eKjFKePw93IrFbTHJC12vI28vioMojkoGzdVRvV7v2Onp6buMgn/m36efKwnwguB9zrg36480kN8RZnD74fn0Tunp+NhRoL/U7HQ67dMU1APwbHmqxCji9XqrDYCx/4tmMSa94IFXMvgyxa5/qZ83hvx88/Y11d7p+J4Z3JUyFr3gVeWpEqOMlzQAxu0tzcWY9IIHXsnYYwAc36bPNACB67Xl8U2RrjfVPuZ4UkR6wavCUyVGIW9kAIxb899zN8CY9IIHXsn4UIXP6NcYgND1OvK+YtybP8eVFHMR6QXPladKjEIenwNgHJs/x/z8/FJMesEDr4g3vOug6zkx56V5oet15J1l3Jv/KJ4fkV7wXHmqxCjkGeHtgLOCD26+LGhMesEDr4jXarU+7Nj8VxmAWPQ68u5qqjV/Dv52zaZI9ILnylMlRieP/+PU/FMGIBa94IGXy0saAGN/XJwXm94KvC8a9+Y/ildFpBc8F54qMTp5/A+n5p8wADHpBQ+8XN7IABi3d8XOi01vBd5DTLXmz3GdGXyrIAa94LnwVInRyeMfnJo/x/AcgJj0ggdeLo/PATCOH4mZgQGISm8F3hTFF2q4SNLZkegFz4WnSoxOHv/Cqflz8LcAItMLHni5PJO4DoBttFqt82PTW4XX7Xb/uIYrJC5T3D4GveC587xuHLxCHv/SqfkPH7M2AMrmDzxdPCcDMDDDqwxALHor8UjzRRWvI8Lxb7HoBa/hEboYhTx+wLX5WxuAAPSCB14Rz9oA/OHdsBUDEJPeSrzp6em7knbrm2eZ1fN36/R077gY9ILX4AhdjFIeP+ja/K0MQCB6wQOviGdlAFZ/HLbHAMSmtzKPHrrQuDf/0dx9LBa94Ml5XjcOnojHT3Bt/mIDEJBe8MAr4okNwNrzYfYYgKbzC5F3CMXNxrH5j6Lb7R4fiV7whDyvGwdPxOMnuTZ/kQEITC944BXxRAYg5/jIvRlQjfmFyvsXU6H5D+fvS2bw7YIY9IIn4HndOHiiwU90bf6lBiBAveCBV8QrNQAFx4e1AQhAb128fSiuNe7NfxQPiUQveAKe142DJxr8ZNfmX2gAAtULHnhFLys0ACXHh5UBCERvnbzcewQYeX25wgzuOBiDXvBKeKrEKOXxC1ybf64BCFgveOAVjVwDIDg+xAYgIL118jZS/Mq4z98ozohEL3glPFVilPL4RVUu57nGAASuFzzwikamARAeHyIDEJjeunlnmmrNn+MnFLOR6AXPhqdKjAIejV0Vmv8aAxC6XvDAKxlrDIDF8VFqAALUWzePGzc38CofK3I8MxK94KH5x8vrdru7KzT/VQYgBr3ggVcyPmjcm9cXKE4pik6n83CKUxPx8LLXRMi7wHH+kvFLig0NrC94aP7gjXi93moDYOya/4oBiEUveOCVjH8z1ZtX1c/AwRvE3zSwvuCh+YM34iUNgHE70Bdj0gseeCXjdSbMZjiJvGsotgW+v4CH5h8vb2QAjOOBzncDjEkveOCVjCcG2gwnlff6kPcX8Ep4qsQo5PE5AKbCwT4/P78Uk17wwCviTU9PHxlwM5xE3k1zc3OHhrq/gFfCUyVGIc8IbwecFXxw9/v9pZj0ggdeEW/nzmOnab/+XqDNcCJ5rVbrXaHuL+CV8FSJ0cnj/zgfnAkDEIte8MAr5LXb7ZeE2gwnlHfL9PT0nULdX8ArfrEeMTp5/A/ng3NoAGLSCx54hbytW/daoId+ZsJshpPK+2Bd6xv6/qeKp0qMTh7/4HxwDs8BqDW/Vqu1hR5+LMVrKM62CXrtOalgxqMpNteVX4beFsWxFC+k+CfL/M6x1aiQ9wozuAnMfE3rIRolvKeacJvhpPJ21bi+1gM8B54qMTp5/Avng5O/BVBXfsO/vPhrWDdKcyrLL/H49RSvNgWXGC3LL2f+7kHxlRryC734joP3azO4AlyrwnqIhoDH58d8LrL50877XI3razXAq8bzunHwCnn8yyoHp7UByMqv3+9vp4e+JsnFMr90XEyxV03z9ziKm2vOL9TiO07ev1P0HNZDNCx4vJ98N8L508w7scb1FQ3w0Pw18/iBKgenlQHIym9paX9+6/eLZXk45pcVn6ZoV5y/4ymWG8oPPGPOsVwP0XDgHWFKzgcIdP608r5uMt4hqrC+hQM8NH/tPH6wysEpNgB5+dFDTyvKoWJ+eXF6hfnjnL/TcH4Tz5uaMscFcHzw2JfiS7HNn2Leo2pe38wBXnWe142DJ+LxE6ocnCIDUJKf6G1Wx/zy4tIK8/fgMeQ38bxWq/XuAI6P0eB3qV5PcVMs86eY9z2T+IiopvVdNcCrh+d14+CJePykKgdnqQEoye+QHO44itF+jvN3zpjym3Te7/jCPIEdbwdTnE+53RzB/GnmPXW0IIHVU/ASPK8bB080+IlVDs5CAyDI7/gCdtPF6O6O83fRmPKbeN7GjRv2DvF4W79+3X7tdvsp/C4F5XmFSbwzUEVv6OsREI/Py+gHWE/BS/C8bhw80eAnVzk4cw2AML/7lfCbLEa7HOfvE2PKb+J569b1FyM63qYpFqRBBmJhYWHj1k2bFlaCf+bf23Amldfvz3cCrKfgJXiqxCjl8QuqFPNMA2CR32GCbTTSbObmZm/rOH9vHUd+4E1du2XL5twzvotGwMcbeOBNDE+VGKU8flGVYr7GAFjmN0Xxo7LtNNBsvl1h/k4dQ37gGfN+6YIkR+DHG3jgTS5PlRgFPBq7KhbzVQbAMb/nF22jiWbTbrf/ssL8zZiEaYm0ucbAu4/NovAI/XgDD7yJ5akSo4TX7XZ3Vyzmi0meY35zFJdl8ZtoNq3W1FcOOmipX3H+TqG4NeLmGjrvQtsFieF4Aw+8ieSpEqOI1+utNgDGvogv1pTfQRTfN803m2/3+/MH1jF/7XbrBcS7NcLmGjrvsxR92/WI4XgDD7yJ46kSo4yXNADGrZAv1pgf3wXwfNPMX9a3tFqtd/CZx3XOX7fbeSixvx9Rcw2ZxzdseqVJXeTFZj1CP97AA2+ieKrEKOSNDIBxLOR8N8C685uZmTms3W6/kBr2Oyk+Rtvg791/3CE+SvEOYj1/bm729k2tx/bt+/Ffq39iBncyfL9tnqyPdCbCWW+MvI9QvJ1+/ySKvetYj5CPN/DAmyieKjEKeXwOgKnwl9z8/PxSTHrBAw888MAbE0+VGIU8I7wdcFbwOwf9fn8pJr3ggQceeOCNiadKjE4e/8f5M9yEAYhFL3jggQceeOPgqRKjk8f/cD6Ba2gAYtILHnjggQfeOHiqxOjk8Q/OZ28PzwGISS944IEHHnjj4KkSo5PHv3D+6hZ/CyAyveCBBx544I2R53Xj4BXy+JdVvgdubQCUzR944IEHHnh1jNDFKOTxA1UuAmNlAALQCx54wfN6vd7dW63WOaOgh862iDfGphc8nTyvGwdPxOMHq1wBTmwAAtELHnjB8zqdzhkVrri4HJte8HTyvG4cPBGPn+Da/MUGICC94IEXPG9kAIzbNTqWY9MLnk6e142DJ+Lxk1ybv8gABKYXPPCC57Xb7dONW/MfGYCo9IKnk+d14+CJBj/RtfmXGoAA9YIHXvA8eug042gA6Hhdjk0veDp5XjcOnmjwk12bf6EBCFQveODFwHMyAMNjdjlCveAp5KkSo5THL3Bt/rkGIGC94IEXA8/aACSO2+UI9YKnkKdKjFIev6jK/d7XGIDA9YIHXgw8KwOQOnaXI9QL3iTwVIlRwKOxq0LzX2MAQtcLHniR8MQGIOP4XY5QL3jaearEKOF1u93dFZr/KgMQg17wwIuEJzIAOeZ9eQz5gQcemn/svF5vtQEw9iceLcakFzzwIuGVGoCCd+6sDUAAesHTylMlRhkvaQCMw1nHFIsx6QUPvEh4hQag5GM7KwMQiF7wNPJUiVHIGxkA49b899wNMCa94IEXCS/XAAjO2REbgID0gqeRp0qMQh6fA2Acmz/H/Pz8Ukx6wQMvEl6mARCesCsyAIHpBU8jT5UYhTwjvB1wVnDxmZmZ+aNNmxa2ciwsbNzabrcX6DHr4Nfx60cs8MCbcN6TjFvzFxmAWOsVeJHxVInRydtpHJt/xW8PgAceeM3wfm8KRuT1CryYeKrE6OTtMHEVN/DAA6/4NT8xOUNBvQIvJp4qMTp5M2bwlmEsxQ088MArjk+bjKGkXoEXE0+VGL28i008xQ088MArjr8zqaGsXoEXGc/rxsEr5b3IxFPcwAMPvOK4v0mMAOoLeBPM87px8ES8w008xQ088MDLj19QrNyFLZD6At6E8rxuHDwr3sdN+MUNPPDAK47nmuEIrL6AN4E8rxsHz4p3BMUtJuziBh544OUHn/0/RxFifQFvAnleNw6eNe8tJtziBh544BXHIyhCri/gTRjP68bBsx6zFP8n0OIGHnjg5cfrKEKvL+BNGM/rxsGz5/G1/akA/TSw4gYeeODlx0cpOjHUF/Ami6dKzKTw1q3rH9BqTV0cSHEDDzzw8uNdFLMx1RfwJoenSswk8bZt27qRHjqX4lajp1iCB54W3nUUz6CIsr6AN6E8VWImg3eMGVxaNOZiCR54Wnj8TZ0LKA6g0FBfwJsUnioxk8e7O8U/U3zXxFMswQNPA4/v1fElipdQHGyGQ1l9AU8zT5UY8DZR3IXivhSnjKLT6Tyc4tREPDz5uG2AB94E8x5CsdsMrs/B385ZNQKrB+CBh+YPHnjggQceeOCFsHHwwAMPPPDAA88PT5UY8MADDzzwwANPxlMlBjzwwAMPPPDAk/FUiQEPPPDAAw888GQ8VWLAAw888MADDzwxQI8Y8MADDzzwwANPDvG2cfDAAw888MADzyvP68bBAw888MADD7zx87xuHDzwwAMPPPDAGz/P68bBAw888MADDzw/PK8bBw888MADDzzw/PC8bhw88MADDzzwwPPD87px8MADDzzwwAPPD8/rxsEDDzzwwAMPPD88VWLAAw888MADDzwZT5UY8MADDzzwwAPPkadKDHjggQceeOCBh+YPHnjggQceeOCFtHHwwAMPPPDAAw/NHzzwwAMPPPDAa5inSgx44IEHHnjggSfjqRIDHnjggQceeODJeKrEgAceeOCBBx54Mp4qMeCBBx544IEHnoynSgx44IEHHnjggScG6BEDHnjggQceeODJId42Dh544IEHHnjgeeV53Th44IEHHnjggTd+nteNgwceeOCBBx544+d53Th44IEHHnjggeeH53Xj4IEHHnjggQeeH57XjYMHHnjggQceeH54XjcOHnjggQceeOD54XndOHjggQceeOCB54enSgx44IEHHnjggSfjqRIDHnjggQceeOA58lSJAQ888MADDzzw0PzBAw888MADD7yQNg4eeOCBBx544KH5gwceeOCBBx54DfNUiQEPPPDAAw888GQ8VWLAAw888MADDzwZT5UY8MADDzzwwANPxlMlBjzwwAMPPPDAk/FUiQEPPPDAAw888MQAPWLAAw888MADDzw5xNvGwQMPPPDAAw88rzyvGwcPPPDAAw888MbP87px8MADDzzwwANv/DyvGwcPPPDAAw888PzwvG4cPPDAAw888MDzw/O6cfDAAw888MADzw/P68bBAw888MADDzw/PK8bBw888MADDzzw/PBUiQEPPPDAAw888GQ8VWLAAw888MADDzxHniox4IEHHnjggQcemj944IEHHnjggRfSxsEDDzzwwAMPPDR/8MADDzzwwAOvYZ4qMeCBBx544IEHnoynSgx44IEHHnjggSfjqRIDHnjggQceeODJeKrEgAceeOCBBx54Mp4qMeCBBx544IEHnhigRwx44IEHHnjggSeHeNs4eOCBBx544IHnled14+CBBx544IEH3vh5XjcOHnjggQceeOCNn+d14+CBBx544IEHnh+e142DBx544IEHHnh+eF43Dh544IEHHnjg+eF53Th44IEHHnjggeeH53Xj4IEHHnjggQeeH54qMeCBBx544IEHnoynSgx44IEHHnjggSfj/X8CcZtPRhXXMwAAAABJRU5ErkJggg==;" vertex="1" parent="SrgSx0D-FuNyG_olPb56-41">
          <mxGeometry x="305" y="8" width="30" height="30" as="geometry" />
        </mxCell>
        <mxCell id="SrgSx0D-FuNyG_olPb56-32" value="" style="shape=image;verticalLabelPosition=bottom;labelBackgroundColor=default;verticalAlign=top;aspect=fixed;imageAspect=0;image=data:image/png,iVBORw0KGgoAAAANSUhEUgAAAOEAAADhCAMAAAAJbSJIAAAAk1BMVEX///8lLz4SIDIIGi4ZJTYeKTkVIjQjLT29wMQWIzQcJzgOHTARIDIgKjoMHC8GGS0AEyrd3uDt7u/u7/Dn6Or4+fmbnqQAESinqq/Q0tSFipG1uLx7gIhnbXZiaHFxdn5ZYGowOUeVmZ8ACCQ7Q1BIUFzHyc3W19paYGqrrrOCho1BSVUAACBKUVyYm6EzPEoAAB1sPcL2AAALTUlEQVR4nO2daXuqOhCAy5JEQTZlE1AQrWut9///uisJVLS1AgnV8zzzfjhfipDJMjOZmeS8vQEAAAAAAAAAAAAAAAAAAAAAAAAAAAAAAAAAAAAAAAAAAAAAAAB/ijcZO4NdmEdR7sdTd+w9u0FicXf7bDUMLFPGZ2TFCsh7msfjZ7dLEIOUBPoQEakOMTRsfhz8zbNbx800ISP1WrgahoxXofPsNnLgrbfa8K54pZD6YrZ+dkO7sp5b2pUwQ1nWFV0eqppRn7CqOf8nx9FNL/IRJFuB/X5Wo7t49xkls3d7acnoS0jNjibPbm9r8o9q+RHVQvPPgXv99/HAz+yLkEMrfE47u7LJ9K91RtL1HePn+lssV/0wytyfn3pJQqmcoEReff7WcM+JVqNSRlWK/6yBvCRW2Wh5ET5cX5NQwtVwR3/ROn4m1QzFit/IN/PyoBxyZdt340SwWalsRPC+sX505yYbdXx8fU/OWbHxGK5a2fHdgvULnr+62XAXzADgrGVLnSNbjaPZa+86xicmYNBeZ3jl8tXTHtolDO9I5xqxO5nv1GTq5pU1akpnGtE7GraIjaI9ENsqgYRsKem7ri/YUxGJ9KqOuKNTla/n3V/BJoG6fVFt8474l5FE91XKp6g2CcVXBPT/RqPzgKRJlO/W05dyxl0aiSELzkaFMtsxqsPzblk7ZZHzMjM2GYrRgymu7//RUM/81xjJDbWE6pz7Re5NVE5CcpC8wjhmGtXzArp7F0i3YPP5EYApHcKRL+JdqWUpiinjWsCKyNmzbWRaSGgcxGwMnEEcx2GezA9ILyM5RF1Mhby7K5NlsXhMIUNYf+00zPCwjADgp4roF+4WOfWxt3MjvdxSP9OZ896LFSOLHsISd2Yzpbp63u7YpU0IerNbPos5qs8L4/ijoouP/X1gx5w55Wnxxnmh8UadN00NCG3m4jzJ9LtS0cNqr4ogUnh3ZjxMbepz9/oN74joR54TbaTLUO05gjSlzpzV51K4z6zwSc2+oytZMYiI37XvwrGwhqhvl2NNt1XoGWZ/vCKFQ9P7Lm5VdKT5jGnqLM4SGsfeFXlUeKjarO/P/MCmsBVa/wtkWhgMY9X7d26YTOM9+pu+dU9EQCCo3SfjlCwtk7r+Wv/pBm9Lu/LPalPcXSbpl2IgNen/k3SbPfqjmL8brZSrkBHe9/xFz3uLCnvRPWfQhnGkyTcRsaA/t98ZhPl+Nt9mK6bSpv273/kSf8lHEJZ1U/noZZJO1uFssQwUHasaQgb7qGbZh2jQp5SbY1UrI2m6vZrv/TAeiHdovE141PBI+6kuzsCymvbmQ+2+amWG2jZ0Jv10ppsfDf02NlyHYGPbT+lmpJSfxVLSW3HoOiW6cV+6agbJSQ+2cWaVxmEZPX774NP3P3NKxNgXJGfSX3T+ILPqJamGOlIsO1guPz4+loFtji4FjxiJjoV7c7YEiZ0+ls/LArkA42FR+zwc0n9URnC3aYOT/VXPd1ZjNj4mfrzeuHQ5eONNHM7wVw8Q6yg2/jZjeSF10cTqDuxfZtg9qzY94mp6EmSieb72vi/0ySAlo/Ix9SByreyZgLhZFeGn3FpCL8fVFCQjaRu6d9WY+3koLbImMNy/W7LGNTR97SWcHpXyz2h08h9sdSchZrMZCYuFT5mAdlP3zP+SEJnKLf/9sA4jq1yAapA1WQbugWkFwxKzFiesEMFs7Lx8SYjS9eAb3/rdOZTPI3vWdGlFrOAPidl9R7QBatb4ZZcxlBro9FhiA0jkrMW62jGlqotw+zfUKzRapJcuEhLlYSA3KiuFNalZTWrFjq1cWcCWaqu2fVNtDCX7wf54zkraJOvYVmvkVESDPy21pjPebBNUZxKWmWr9N8s8PjAzhIYd8nPMRvOH+2k4tl0Wm0qoJaxcUVLvi+iUjww7Ge/JoehDonG6qE6HkDqVUA6991LE9zsLbHNgD+jzbo0c0DS4zDmINH5gHFopASahf3Zm2YIc/jyKTqlEzbSryqfhG0I6/poxOdFV2C5CUkl49vZYhYx6+CFx5LBtUgN1exeHOsAWVxhlyt7R7kcXCd8+74q4YcWIROWJLyXFIPIFbOkkbZs+q0lY6vSzurmZiZsVnaIEcdmzNe1AlUPXeFSTtrWqdQnPHhG16Di7eqQ8ukBGnFFemoPmSfLT1EvrcPqVhG8Rm6h6fS6NF1RAA/OGsfMuc6wOS4m0LbW4lvAtD0qVeXli/R8VUOLew65pzdl7d78mLHYprcP2NxK+RWzPL9e85Pj8iEH4d7BU1/MUwFNd1TqaTiWsVysmLI5ct83n5cm7Bim0jMHq3lU0T9/697R+4aoeMx1RvbKs9dXsQ0i0bF/4NXr3V9E8PW67Wr6N4VketilfXrTeREw4kK6jYfdTAoVv236Wfx/DswNXHt8SncZZF2FcjhQmh4Q39YreOzOAkuA056YYQ9S9sI/WVpLWEsrfJawOtxkLsUUjG9TFnl1g9TJCJDxvJagjikTUvNffWpSDHDr/njptSidN872qtvS1NaEVB47BN4Z0A6a0dY79D0VRPr6fYFozs6hmAovwNoW1QFnn31O3r3WNsxMX/DC3Y5agwwJPqE0LXcpR8xYr3PuvK8qzTVhcUXNsdvErL9A5QAQWI/ksCynuyC8tCBt19x7GLJwlMI2VMxGbpwgeQHWhxWFkqWMq9LBBxESUxZxq9nj3FsztE1szl8gCRZxqEmd1pEvDLAH3NI1qvTxnoRtFRFIllzn3+GePGfG+oiAJUM3Mp2yiWgLWYhFl4QwnxrQ1Cp8zed7uolruytuXa5H7/CQtcicalwfhsRMVXIP4aVMbWBexTI11jnaXCIiXllshSebQxz4L0yzrGjlhO2LcPO36Ey5VWnyT9NzfLEHaPU2X29+jiV9GQ13xzH9aIkIQxxso1GB0P8kcsRSofPv70rtBUveg94aWv/Fba3YqR9I7vchLRtIdZztkd0oZWucWzlnqib8eg51lluwOS3FS2r4fdxMh20wRpaO+CWm+QBZxzwTzJQluPZ+cFTvKq/+sUGKZJcLlQ5fF6JicCqJORhtK2p5a2SlMAuuerdmcWA+gDielx6xOwBQT2fLKTBFu40t6EbvTRRrd913GWzaLCX5vOYwui90Ju+jNOWnlaDR2H5ytWTb+1xxvUpbhISNq45k4rEYACboH4Mx0wSYcPjVbjF6usT4xHl38uEPsQaKfmu9jpyw7R2yBQa2pysoKDLtJ4UQslTNUNR4mPZyqLpEoi4beyW5ZamGhZ0wqvVgUWf/eai9elfIRs9E1c3l1Q4TxuPTyzKaa/6rgFMFkVt1VOdSO92+OccNDVcWLjIYqcpqVXSIZ8iJd/9orTiKVNy1o4k8J+aSqw0amNMsH7nWdsudN1vn8Umsvrxqn5Ty/bDa91vWwv3fvqbdOqvuJEenjoJdzqG7vPG/KhspSe58nuU/J97MDKi7QrR5Qg6iNq+LOgkpGyRjaKA1v7659c+N8ZVcP6X2dXA2laqqytiBVZhR3ytT+ojWp6b9mk9qXowhEHVnBUjqmuR/S+HJ01JfKV627ZrXqvlaM85OFpN8hqtm42LeOkyBMrl5kqPRslaKYuHbOxLCOvR6uHu+O6Pb8Wr1VyFx0PpnkRAvlUf8Z8iHs/QzbNFqoMv5+OIkgWUZZzLNC3Pio/XKXOxnKq93fXJHhDPK5tAzs4mYnhmUv1e3nPS3YAjfek0D/3oFEkwMp+tv7hjxnWivG3wg8puPsovlJDyyd/p8KGMumPVrNGrgD/xLF/4uxDv3iaFie+7vN+NVv4QUAAAAAAAAAAAAAAAAAAAAAAAAAAAAAAAAAAAAAAAAAAAAAAPhX+B/sy69hNczzZQAAAABJRU5ErkJggg==;clipPath=inset(22.77% 10.27% 23.21% 5.8%);" vertex="1" parent="SrgSx0D-FuNyG_olPb56-41">
          <mxGeometry x="563.46" y="11" width="31.08" height="20" as="geometry" />
        </mxCell>
        <mxCell id="SrgSx0D-FuNyG_olPb56-33" value="" style="shape=image;verticalLabelPosition=bottom;labelBackgroundColor=default;verticalAlign=top;aspect=fixed;imageAspect=0;image=data:image/png,iVBORw0KGgoAAAANSUhEUgAAA9UAAALuCAQAAAAKif1OAAAABGdBTUEAALGPC/xhBQAAACBjSFJNAAB6JgAAgIQAAPoAAACA6AAAdTAAAOpgAAA6mAAAF3CculE8AAAAAmJLR0QA/4ePzL8AAAAJcEhZcwAAAGAAAABgAPBrQs8AAAAHdElNRQflAxoHAiGJSYnjAAA1NklEQVR42u3deXycVb3H8e+ZTJOmWdqyFQoV2RcBAeWyKCjgxkXkKgVl5wqKV7mCgIjgwqooq8AVFVFURBYFEUQEWUSoIKuCssgii0D3pk3TpFnO/aNpaNJJM5nnTM55fvN5v15KMnmep79JZs73+Z1nGecFAChfu+/WfHWrXR3qUpv61Ke2/p91qWP5Uuru/2r+KrbVpr4gNU3OvAWnSRnWLmjiCEuMV+MIS7SqbpU/r1PrCFto1PgRlpiowip/XlTLCFuYoAaX4RdVIUdUA0Ap3j+vf+pFvaBZmqNZmqu2FaIYKG2Shmb5lrpU22YKeKIaAIb4p79Rt+vhgV4ZyKZOx+gMtVYc10Q1AKzgPv8t/VaMjAhtHZ2jwyoMa6IaAPr90Z+gR2IXAcM+oEu1SQVxXRj9KgBgzyv+ML87QY2qul1v08m+c9Q9Ml01gJrX48/WN9UVuwzUiI11qT44qt6aqAZQ417yh+pPsYtAjdlf39NqZcc1E+AAatpP/NYENcbc9dpWfyq7VyaqAdSsTn+YP0KLYpeBmvSK9tB53pcV10yAA6hRb/iP6oHYRaDGHaorNG7EiXCiGkBN+qvfVy/FLgLQnrpRLSOENRPgAGrQb/wuBDWScKfep9kjdM101QBqzg3+EwMfpgHEt5l+r/VX0VkT1QBqzC/9QQQ1ErOR7teUYcOaCXAANeVafyBBjeQ8r33UPmzvTFQDqCG/9oeqJ3YRQAkPaV91DRPWRDWAmnGr/zgdNZJ1l45S6eusiWoANeIeP11LYxcBrMJVOqfk45xWBqAmPOT35L5kSF5Bt+n9K51eRlQDqAHP+l00N3YRQBnW0RNafUhYMwEOwLwlfj+CGjnxuo5Z6TGiGoB5Z+nJ2CUAZbtGNw6Z8GYCHIBxr/qN1RW7CGAUpukfal5hEpyuGoBx5xLUyJlXdPqg7+mqAZjW6adqfuwigFEq6mG9faCvpqsGYNotBDVyqEfHrHA7FKIagGk3xy4AqMh9unLgaybAARjW56dqZuwigIqsrqe1hpPoqgGY9hRBjdyaq1P6vyKqARj2l9gFABlcoRlekoqxCwGA6nko4LaKOlvbx35CSN49OjvYtvr0WT3qC46oBmDYP4JtqVm/0Idd9u3AuvfJ+bOCbe2v6tQEumoAlj0faDtTdbO2J6hRljPdUv/toFvkDHAAZnX6JvUF2M7bdbOmEdQom/ef02WBtrVYExynlQEw64UgQb2v7ieoMSrOXarDA22rT5wBDsCw5wJs4wu6QU0ENUap4K7QYeG2FvvpAEC1ZI3qOl2iC1yBoEYF6tyV+t9A2+K0MgBmZTupjHO+kY1z3/HjdEGALRHVAMx6KcO603SLtiGokYlz56vRZ7vO2ouoBmDY7IrXXFcPaCpBjQDOcvX+6xnW9+JYNQDDKo/qaQQ1gtk/8xaIagBmzYldABAEUQ3AqC6/KHYJQBBENQCjKp/+BtLBsWoAhjH9DSuIagBGEdWwgK4agGFMgMMKohqAUXTVsICuGoBhc2MXAARAVAMwjEu1YIETUQ3ArPbYBQAB0FUDMIyohhVENQCjFscuAAiArhqAYXTVsIKoBmAUUQ0L6KoBGMYEOKwgqgEYRVcNC+iqARhGVw0riGoARtFVwwqiGoBJvX5J7BKAAJgAB2AW09+wg6gGYBLT37CBrhqAWR2xCwCCIKoBmNUZuwAgGKIagEldsQsAgiGqAZhEVMMOohqASUtjFwAEwbFqAGbRVcMOohqASUQ1bKCrBmAWE+Cwg6gGYBJdNWygqwZgFlENO4hqACYxAQ4b6KoBmEVXDTuIagAmEdWwg6gGYBIT4LCBCXAAZtFVww6iGoBJRDVsoKsGYBYT4LCDqAZgEl01bKCrBmAWXTVsIKoBmNUduwAgCCeiGoBRvbELAIKgqwZgVk/sAoBgiGoAJtFVwwa6agBm0VXDDqIagEl01bCBrhqAWXTVsIOoBmASXTVsoKsGYBZdNewgqgGYRFcNO4hqACbRVcMGJsABmEVXDTuIagAm0VXDBrpqAGYR1bCDqAZgEhPgsIGuGoBZdNWwg6gGYBJdNewgqgGYRFcNG5gAB2AWXTXsIKoBmERXDRvoqgGYRVcNO4hqACbRVcMGumoAZvXFLgAIgqgGYBYT4LCDqAZgko9dABAMUQ3AJKIadhDVAEwiqmEDx6oBmMVpZbCDqAZgEl01bKCrBmAWUQ07iGoAJhHVsIGuGoBZRDXsIKoBmERUww6iGoBJRDVsYAIcgFlcrAU7iGoAJtFVwwa6agAAkkdUAzDI01TDCLpqAEaR1LCEqAZgEFENK+iqARjF+d+whKgGYBBdNSwhqgEYRFTDCibAARhFVMMSohqAQUQ1rKCrBmAUUQ1LiGoABhHVsIKuGoBRXKwFS4rhNjXX/0bdsZ8PalKjxscuIVNVzRpX1nItK71hV/436tXkYj/zFNRiV93t29WtdkmL1NP/WKeW9H/Vq4Wj3mKf2mI/qVFbUx81+A4IFNWv+vN1uRbHfjYAVkqpOrUO+n75joHTpP5HGjSh/6vlOwMFTex/ZJKcmjVO49Woolr612pVnSaoQfWanOiugd2ofsk/q39pluZobv//urU8oiFJ1/n9k3xNVsorSFQ/47+tq7Q09rMBUFKv5g/6fn6F2xlOvZ+syZqs1bTsv+tqY22q9SIPlvaius//Wr/QHzU7diHJO1Lb+M1MhXXmqH7En6MbOCoE1LClmqmZKz26iT9Yn9fkaAOmtah+we+nx2MXkROLNF0P+DRneyqR8bSy+/w+fgf9kqAGsJJ/6jS9Rcf61yNlpq2oftTvRFCPwpP6TOwSAqswqu/2u/hddYuxtwOAkNp1sTbXJb43wkBhaWx62e/NtPcoXaXvm3kJVNhVP+kP8Hvoz7GrB5ADC/V5vVN/GfNh085sX58/XG/ELiKHjtMTZsJ61FH9iv+E30bXx64aQI48rl10qu8Z04HTzih9je6JXUIudeq/FWM+J7xRd9XX+211raG3AICx0atv6F16cQwHDyvjlPdnxC4htx7RD2OXEEzZUT3T/5c/QPNi1wsgp/6iHXTLmCWolaj+k56JXUKOna4uIy+EMqP6935r3RS7VgC5Nlf76twxGjqNjND6VewCcu11XRW7hADKngD/gd+H8w8BZNank3SU7x6DHLUS1XfGLiDnfhy7gEBGjOpe/3l/NPf2BhDIFfqIFlU9SW1Edadn+jubGYp1ZX84ZXTVHX4fXRK7TgCm3KYPqK3KA6iNi7VeGvjYDVTG60+xSwhilVG91O+v38WuEIA5D2hPzatqWOe+lZIkzYldgAFPxC4gsxG66l5/iG6NXSMAkx7R+6sa1jaimp46u5djFxDEsFHd6w/mVicAquZRfVhLqpaoNqK6IXYBBnTGLiCIYaP6BF0buzYApv1Zh6ivSplqI6rXil2AAfnf3VnFBPg1/juxqwNg3g06sUpbthHV0wwETWzrxi4giJJR/Xf/qdh1AagJF+r/qpKqNqJ6nNsqdgm5t33sAjIbpqtu9/urPXZtAGrEF/RAFXLVxsVa0vtiF5Bz47R77BKCKBHVx+mp2FUBqBndOkQLg4e1ja5a+mjsAnJuL63hYteQVcmu+j7/o9h1Aagpz+uo4Nu0EtU7urfHLiHXvhy7gECGRHW3/x8zL3EAeXG9rg088NgZx06NXUCOHaydct9Tl+yqL9CTsasCUIOOCzwJbieqp+s9sUvIqbfq4tglBDMoqmf6M2PXA6AmvaGzg27PTlQ79yOtFruIHFpDv9NqBnrqZQZF9UVaHLseADXqIj0dMF+tnAEuSRu6X2lC7CJy5i26V5sbCeohE+Bt/nuxKwJQs5bqlIBbs9NVS9J73R2aEruIHPmwHtEWRoJ6mRWi+mItiF0NgBp2o+4PlrC2olraxT2p/WMXkQsb6Drd7PJ/idabBnXVHd7OAXgA+RSur7YW1dIa7jp3nw5SS+xCEjVOb9endJee0/6GYnq54vIvbuKTUQFEdq9u8R8OMtDai2pJepd7l3r9M3pMj+kZzdEbmqWO2EVFUFSLJqtVk7Wu1tG6WkcbaWvVG4xoadlreSCqrwm44QbtGvu5ARgT/w58d8NTtJevCzDk2oxqSapzW2pLHTzw/WI/S/PUrXZ1qUMd6lK7utWrhf0/71BX/1cLRvitdGpJ4FobNX7EZSYPfDVh4MNJlj82SU5Nqtc4Nfc/2qpWtWiC0VAeXn9Uz/e/D7bJOv3M5AQEgJX1+GP0/YDbe0JX6fAA27Eb1UM1uQ20QewiUGX9x6p/NbDflRVBDdSSovueu2j4D76vwKlaEiBnLV2shdq2wmllNwTaZEE/1IEENVBTjnU/L2Ois1z/VojPIaidrhq1oD+qHw+yMadLdARBDdScT7i7tVawrb0cYBtENawY6Krn+9eDbPA8fZagBmrSTu7P2jx2ESsgqmFJQZL+FWBDThfqeIIaqFkbuhnaI3YRA4hqWDHQVc/OvKmCLtdxBDVQ0ya73+szsYsADCpI0qyMG6nTj3QkQQ3UvKK7LPD54ECtC9RV1+taHU5QA5AkHeuuVWPsIgBTCpI0N9MmTtZ+BDWAAdPdgbFLAEwpSNKiTJtoiv0cACSGKXAglIEJ8PbYlQAAgGEQ1QAAJIuuGoBRnEADSwqStDh2FQAAoAS6agAAkkdUAwCQLLpqAACSR1QDAJC0giR1xK4CAACU0D8B3um7Y1cCAACGUWD6G4A9XFcNK/q7aq6qBgAgXXTVAAAkq7+r5qQyAADSVZC6YtcAAACGRVQDAJCs/glwohoAgHQR1QAAJKu/q14auw4ACIzrqmEJXTUAAMniWDUAAMkrEtVA+Xr8otglDNGuLPfwr9d6zBQDSfMyG9WLfM/Ak1ww8Gj3CndmW6LOga8XqrfE0tL8YbbeMczvrFcLh6tHPSUfXzrsbV0XyI/6WXdV7XY2wz+zahvuN4cwCvqRP5ywBhKXZFS3+4f0shZrkRaqV/O1PGSXReRC9apPbZKkHr3Z46wYvgDK0acjNd5/nLAGklZM7Qxw7y/XaXo9dhlAjejVoRrv9yWsgUQleFrZIj9dRxPUwBjq1gH67eiPtwAYM0lF9Wy/i26IXQRQc5bqAN1DWANJSqyrbvMf1JOxiwBqUof21u2mwpoZfViSUFT/rx6LXQJQszq0j240FdaADUl11Xf7n8UuAahpS/VxXUdYAwlKJqp/G7sAoOZ16yD9hLAGkpPMx3U8H7sAAOrVJzWDsAYSktQE+KuxCwAgqU+zY5cAYIhkonpO7AIAAEhOUp9XndqHIAAAkIaCMn0uTzhENYBwuK4aVvR31Sl8ctESn0ZvDwBAahLpqumpAQBYWUJddaxPQwYAIHWJdNVENQAApdFVAwCQrIQmwBfHLgAAgEQlMgGexm1YAABIS0JdNVENICSuq4YlRDUAAMnq76qZAAcAIF101QAAJI2oBgAgWV5Sodf3xa5DUmfsAgAASFQhhZ6arhoAgFK8iGoAABJXSOH8b6IaQFhcVw0r6KoBAEheMY2oXlqFbY5Xo6QGTZAkNal+4CdOk1ZabrlJK+yN16tphZ+0qDjwdZ1ah/lXl/97pbWqbtifFdWyijVXrL8SWdcvR4uKtDJJ2MQ/F7sEAIF4SUUbE+CXax1N1mpqVaOk8WokMgAARiTSVWfbYWjQkXKEM4CastjP0izN1hzNUa/mq1cL1a12dalDfWrrX6p34EOGe7SojK12aknsJ5bB5/Udk1mQSFRnq2ItghpATej1f9EjekyP66lcR2q1XKwm/w1jeZDQBHi2qF4jdvkAUHUL/QX6vt6IXUbivqkJ/ivGwtpIV92UaW0ASN/9/ghxumA5vqp6f5KhsPZK5rrqbFE9Pnb5ABJjaKSWJJ3rdyWoy3ayvu9j1xBWItdVZ6uiIXb5AFBFp/mTZCx7qsrrs/qJmV/Yso/riF2FJLpqABjOz/3psUvInT4dpbvNhLWRqKarBmDVy/5zsUvIpR4dqHlmwtpEVNNVA7DqKwNXSGN0ZupLsUsIwksqpPBp1XTVAFDKi/7q2CXk2JV61khfbSKq6aoB2PQjpTHzmU89ujR2CQEkdFpZtiqq/0EUABDDzbELyLmr1WuirzbRVRczrQ3AHhvXVS/wf4tdQs7N1cOxS8jMzLHqukxrA0CanuJq6sweiV1AEIlMgBPVADAU9/vO7sXYBWRmpqtmAhyARR2xCzCgnA/+TJ+JqKarBmBRY+wCDLDxcU4mJsDpqgFYtFbsAgx4S+wCMktoAjzbDgNdNQCLNotdgAHbxS4gCBNRTVcNwKI13eaxS8i5Vu0Uu4TMEroFSrYdBrpqADbtHbuAnJuuehOX2CfSVWe7dpCuGsBgJsZnSZ8080xicDomdgkBJHSsmq4aAFa2pds3dgk5Nl3bGdnTMTEBTlcNwKpv8oFEFWrVhbFLCIauGgAStrk7J3YJueR0hdY10VMnNAGe7Vg1UQ3ArmPdp2KXkENna7qJoF4miQlw7zmtDACG8z0Tp0eNpVP1ZTNBnUxXnbUGumoAlhXcJe4nmhS7jNz4gs4yE9TLmIhqumoA1h3mntCRnGJWhqN1fuwSgkrmFihZP5GVrhrAYMaaKknSeu6Hbqau00l6v9aMXUyyDtV35Uz9+b2kIl01AORFq9tf+0uS5vmZmqPZekNzNF8dWqJOdahL7erWIvVI6hr4EM0l6oxd+BiZrh+rYCqolymm0FVzrBpAWAZH6yFWc6tVsFa77x7V8nkL+WmqM/mnp6sGgJrRPMogmxy7YEhK5LQyjlUDCMtka4WalMxpZUyAAwAwnCS6aibAAQAohVugADCKCXBYYiKq6aoBADYl01VzWhmAsOiqYYmJ08roqgEAdiXRVXOsGkBYdNWwIpkJcLpqAACGY2ICnK4aAGBTMl111tPKCrGfAIDEMAEOS5KIarpqAABKMXNjUfafAQzGqABLTHTVTIADAGwyc6ya/WcAgzEqwBITE+B01QAAu5LoqjlWDSAsRgVYkcwEOF01AADDMTEBzv4zAMCmZLpqboECICx24GFJElHNBDgAAKVwCxQARjEqwBK6agAAkpZEV80tUACExagAK5I5rYyuGgCA4ZiIavafAQA2mTmtjK4awGDswMMSG10170oAgEnJHKvOdloZPTWAodh/hyUGJsB5SwIArEqmq85WA101gKHYhYclBqKatyQAwDIDE+B01QAAq5KZAM92WhldNYChGBdgSRJRTVcNAEApRm6Bwt4zgKEYF2AJXTUAAMkycqyaqAYwFF01LDEQ1bwlAQCWJRHVTIADCItdeFjhJRWydbQp4C0JALDMQEtq4CkAAFBSMl01x6oBhMW4AEuSiOqMTyF2AQAAVFESOUdXDSAsxgVYkcwEeDZJ7G0AAFAlBnLOwFMAEBhdNSxJoqtmAhwAgFK8TLSkBp4CAADDSqKrzoauGsBQjAuwIpnTyvi4DgAAhmMg59h7BjAU4wKsoKsGACB5BnKOvWcAQzEuwJIkuuqMTyF2AQAAVAkT4AAAJM9AzjHRBWAoxgVYkUxXnQ1vSQCAZUl01dxYFEBYjAuwwkhXDQCAZUlENV01gLAYF2CFkY/rAADAsiS66mzYewYwFOMCLEmiq87/7gIAANVg5LQy9p4BAJYlEdUp1ADAEnbhYQWnlQEAkLwkuups2HsGMBTjAqxIpqvO/+4CAADVQlcNwCDGBVhBVw0AQPLoqgEASJqBqAaAodiFhxVGJsB5SwIALKOrBmAQu/CwIpmuOhvekgAAy5LoqlOoAYAl7MLDCiMf1wEAgGVJTIBzWhkAAMOhqwZgELvwsILTygAASF4SXXUKNQCwhF14WGHktDLekgAAy5KYAM//7gKAtLALDyvoqgEASF4SXTUAhMUuPKxIpqvmumoAAIaTRFQDAIDhMAEOwCBm22AFE+AAACSPrhqAQezCwwq6agAAkkdXDcAgduFhRTJddTa8JQEAliUR1SnUAABAmgxMgNNVAxiKcQFWJDMBnkINAACkqRi7gOzYewYwlPVxodO/oNc0X42apI20zhg/3df8o3pJs9Sgek3TptpGdRF+4Yv9g/qH5shrsrbUf2iS0T+6l1SkowWA/Jjtf67f6V51rvDYZn4PfVrbjkFU/dX/TL/Sv4Y8Okl7+sO1l4pjFJbe36wf6A/qWuGxonb1R+mAMathbDEBDsAgZ3LA/pc/xq+vL+j2QUEtPaPLtJ3e7/9S1cG03R/it9X5KwW1tEC/0ke0mX7m+8ZgOL/Hb6d99dtBQS316G4drO30B3OB4sVpZQCQC97/wG+l/9OSYZf4g96lk/3SKkVVt5+un69yiRd0mHbVc1WNym5/rN9Dfx3250/q/TrQLzYX10l01QCAVZnpd9fRWjzCUj36lnbXrKoM60fr92UsNUM76t6qxcoi/wFdPOI87DXaTf82FG3JdNXcWBQAhvey301/LHPZGXq33ggeVLf4H5e55Dx9QHdUJSiX+L10T1lLPqqd9IqhsKarBmCUnZ34ef69enYUy/9TH1F30KF9sf/cKJbu0n76a/Bo6fWH6P6yl35VH1G7oXhLIqrpqgGgNO8/qRdHuc5DOjdoDd/Xy6NafpEO1JLA4fJV3TCq5R/X4WELiCaZCXAACM3KTvzVuqmCtc4P2FN2+++Mep2n9O2gv4W/+vNGvc4NujmFXjSIJLrqbKy8IQFgqF5/ZkXrzdPNwWq4YZQ99TIXal7AePmsuitY60RV63z4sZRMV23gdwkgMTZ24n+jZypcs5zztctzdUVrtY1waddozPAzKlrvWV0ZrIa46KoBIFm/rnjNxwJVsNDfXuGalUV8KZdWvOblwWqIh4/rAGCWjZ342ypes5JJ61LuHHJntPI9rI4gg3ufv6PidR82ctFWEhPgAICVzfOzKl53ocLc5PPBitfs0d+C/BYe15wMa98XpIbYkuiqs7Gx7wwgLAsjw3MZ1u3ToiA1/CXDuq8HqWA015Sv7KkgNcTEaWUAkLBKp56XWRikhuczrLsgSAWvZlo7S0eejiSiGkBIvK2tSOEvOTvDuvVBKujJtLaNVjCFV0JGFqa5AIRmYWRYK9PaawaooMsvybD2pCC/hcZMa68epIaYvKSChZczAFi0gcZVvG6zxgcY3htclqDcMMhvYd1Ma28RpIbYiGoAJlkY28a5rSted+1ANVQelM3aJEgFb8+wbkG7B/o9xEVUA0Cy/rPiNbcPVMGWFa/5bhWDBMxGmlrxuu/R1NyHXDJngANAaLkfoSVJ+1W85m6BKnhfxWtOD1RBwVW+pQMD1RAbXTUAJGtbV1nkFrRvoAoOULGi9dYOGJNHVrjjtaEOC1ZDXEQ1ACTslIrW2lvrBRrcp7h9KlrvZE0IFi/buI9VtN55ajAScUQ1AJOsjG0fdKOfBHf6csAKvlLBkdJNdHTQ38I5ah71Oh/WR028CLhYCwCSd/Goz+Y+XDsHHNq3d58e5RoT9Msgl4q9aWN34SjX2FxXhSwgMqIagEl2xrap7gY1jGL5zfSdwBVcoJ1GsXRBP9A2wX/9R7kTRrH0GvqNJtp5CXAGOACkbmd3o5rKXPYtulWtgUOq0d1U9u1MxutaHVyVkDxXx5a55Ma6X5uYCWomwAGYZWts28vdpWllLLejZmjDKjz1tdx9ZV3+9VbdoelV+tU7d5G7sozbjL5Hf9amtv78RDUA5MF/uCf1P6pbxRKtOkd/0rpVGtTXcXfqK5qwiiXq9SX9Xe+uaqgc7p7VoavYDVtNF+kurWEu2IhqAMiFVvdd96yO1Ror/aSod+lc/UtfcuOqOKQX3ZnuBZ2oKSV+tr7O0ks6x4W7QGs467mfuif0hRJVTNPpek7HOouxFua+bwCQGJtj24buIl3gn9AMvaE5clpDa2gD7aaWMXq6U9y5+rZ/THfrZb2uJZqsSdpOu2izMf11v81doAv0rH9AL2meOtSkTbSjtpMz+Uf3IqoBIGcK7u2ZPsIiK+e2D3aH8Sw2dZvGLmHMcAY4AJNoQ2CHxUl9AACM4GItAGYxtsEOohoAgKQR1QBMYmyDDUyAAwCQPM4ABwAgaXTVAExibIMdRDUAAMniWDUAsxjbYAdRDQBA0ohqACYxtsEGL84ABwAgcXTVAExibIMdRDUAAEkjqgEASBYXawEwi7ENdhDVAAAkjTPAAZhEGwIbmAAHACB5RDUAkxjbYAdRDQBAspgABwAgeUQ1AJMY22AHZ4ADAJA0umoAJjG2wQaOVQMAkDyiGoBJjG2wg6gGACBZTIADMIuxDXZwBjgAAEmjqwYAIGlENQCTGNtgA8eqAQBIHlENwCTGNthBVAMAkCwvzgAHYBRtCOygqwYAIGlENQCTGNtgA2eAAwCQPKIaAICkEdUATGJsgx2cAQ4AQLI4Vg3ALMY22EFUAwCQNKIagEmMbbCBCXAAAJJHVAMwibENdnAGOAAASaOrBgAgWRyrBmAWYxvsIKoBAEgaUQ3AJMY22MAEOAAAyeMMcAAm0YbADrpqAACSxQQ4ALMY22BHgRlwAABSRlcNAEDSCnWxKwCAKqANgQ1eTIADAJA4umoAJtFVww66agAAkuVFVw3AKLpq2EFUAwCQNCbAAQBIGl01AJOYAIcNXKwFAEDy6KoBmERXDTuIagAAksUEOACz6KphB101AABJo6sGYBJdNWzgbmUAACSPqAYAIGlMgAMwiQlw2EFXDQBAsrhYC4BZdNWwg64aAICkEdUATKKrhg1MgAMAkDy6agAm0VXDDrpqAACSRlQDAJAsbiwKwCwmwGEHUQ0AQNKYAAdgEl01bGACHACA5NFVAzCJrhp20FUDAJAsJsABmEVXDTuYAAcAIGl01QAAJI2uGoBJTIDDBo5VAwCQPKIagEl01bCDCXAAAJLFBDgAs+iqYUeRrhoA8miun605mqOZWqDFWqpF6lGb+jRffWrrX2axlq701WCdWhL7iQT0WV0qZ3AvrUhXDcAig+O1pB5/vx7W43pcT6sndjEJ+q4m6NzYRVQBUQ0AubDAn6sfaE7sMhJ3nib4003tp3kxAQ4AuXCHP1KvxC4iF85Qoz/ZVFhzWhkAo2yN1Wf5DxLUZfuyLvGxawiLi7UAIHGn+K/KWPZU2bG6wswvjIu1AJhlp6u+yn8zdgm543W0/mAmrOmqASBp//bHxC4hl3p1kOaYCWu6agAmWemqzxy4RhqjM1tfjF1CEEyAA0DSZvsrY5eQYz/TU0b6aibAASBZv1BX7BJyrFeXxC4hELpqACbZmAC/NXYBOXeNekz01XTVAJAo7x+MXULOzVf+f4McqwZgloWu+nUtiF1C7j0au4AgiGoASNTs2AUY8GLsAoJgAhyASRa66o7YBRiwKHYBmTEBDgAJa4hdgAFNsQsIgq4agEkWuuopsQswYP3YBQRBVw0AiVpHzbFLyL1tYxcQBFENAIkquB1il5BzzdoldgmZeTEBDsAoCxPg0l6xC8i56Wow8UKgqwaAZB0gxujKOVn5VDK6agAmmWimtL77r9gl5NjH9A4DLwMu1gKAxJ2hcbFLyKlWXRS7hGDoqgGYZKCdkiRt6U6MXUIuOf1Q61l5EahQjF0BAGAVztBusUvIobO0v5Gg9iKqARhlZJyWVHQ3abvYReTMKTrFzgtAUoGjIACQtknuXu0du4gc+bzONhXUdNUAkAPN7tc6nXuXleXThk4nW46uGoBJxtoqFd3X3L91pQ7RZlxrvQqH6jI5U398L6lIVw0A+dDqDtfhkrr8q5qp2XpDMzVbnWpTrxaqW+1aqsVaqsUDa8yPXfIYm64fq2AqqJcpOlfne2NXAQCBGRyvBzS4jbTRKNfp8F2j/ndWDP18mKY6k3/4ojRORDUA2DbBTYhdAiri1R/VnbEryeROreZj1wCkZGHsApJgsrlCjSpKeT9a3V1zR2MAALWkIO4vC8AgumrYQVQDAJAsL6mQ/wlwAAAso6sGYBIT4LCDqAYAIFlMgAMwi64adtBVAwCQNLpqACbRVcOG/glwumoAANJFVAMwia4adjABDgBA0uiqAQBIFseqAZjFBDjsYAIcAICk0VUDMImuGjZwtzIAAJJHVw3AJLpq2FGQ6mPXAAAAhkVUAzCJrho29B+rHh+7DrXELgAAgGQVpIbYNegIHRe7BAAAEpVEVDt3gb4YuwgAkt6m7WOXEAgT4LChfwI8flRLzn3bnRO7CKDmHawHNY2MAxKTSFRL0pfcuewHA9E06CJd5ZrMvAnNPBFAxXSiWjrR1ftjYxcB1KT1db12IN2A5CQ0Ab7c55kGByLYT4+aC2pjTwc1LamuWpK+5Dr8GbGLAGpGi/bSZ7Q7uQYkLLmolk53i/35sYsAjKrTJE3RVE3VetpC22gLjSOmgcQlGNXSuerQZbGLACKrV9PA1+PUPPB1nVoHvi5o4qCvJqqgJtVrvBpVVIukyZJaVFSjWjVJk9RSM8FcM08UxnklGtXOXeqPko9dBjCCyWUu5zRphCXGq5FkATCMJKNaKjgrt2EAEAf7PrAjiXuAAwCAUhK8WAsAwqCrhh1ENQAASSOqAZhEVw07iGoAAJLFsWoAAJJHVAMwiQlw2MHFWgAAJKt/Arzo6KsBWENXDTsKkla4uzAAAEgLUQ3AJLpq2NA/AU5UAwCQLqIagEl01bCDqAYAIGlENQAAyeJYNQCzmACHHUQ1AABJI6oBmERXDRuYAAcAIHkFSWqKXQUABEZXDTvoqgEASFpBklpiVwHAkPn+/tgliK4aVgwcq54UuxIAZnT4ffRU7CIAUwqStGamTfxRi33spwEgDd1+ulLoqQFLCpK0VqZN3Kp36u+ENQB5/yn9LnYR/ZgAhw0DE+BTMm7oae2s6whroOYdr5/ELgEwqCBJE1zWy7UW6RM63ncT10ANO81fFLuEFdBVw47Csv9sknlDXhfqvXqJsAZq1KX+9NglAAYNTIBLbwuywRnaUsf7h30fgQ3UmKv9scG2tXaQrdBVw47isv/sop8H2VyHLtSFWlPb+C21mdbTmlpHa6uR9wxg2q3+CPUF2tZUfTr20wES0x/VB+g4dQfb6GzdqTtX+L7et6pVk9SqFo3XODVLalFRRbVIalK9CpooaYIaJE3uX6tVdStsY6XviH8gEff7/QOOH2eoKci7myECdvRH9RruQ/7mqv0jSzVHc0JvdIVJ9sEx3qAJZT3xcu7R5kzeHmbZjhEQyh3qCLatrXRE7KdjUrtftjPVoS5JUlf/36xb7ZKkXi0ssVanlgy7Ra8FZf7b5S+5zPxRLd02MJ+zq/7X5P6Z10BUSwerelFdbQuzbwJAEs5lxmxE7X6m5mu+5qlNi7VUi9SjhepVm/q0QF7z5bVAfWqTtFC9scsdM9drkT/F6KtnIKo/oolqi10NgJq2pz4UbKi1OGbf5r+jv+m12GUk61TJaFgXln/R6D4buxYANa2gb8UuIWGv+T39XrqNoF6lU/UNc1cgrXCxliSdwCdsAYjoEL0jYEdkq7l6yG+vu2IXkQsWw3pQVK/uPhO7GgA1q0lnxS4hWc/6D2tm7CJy41SdaS6sCyt+c5KaY9cDoEZ9RdOCNsJ2uuolfm/Nil1ErnxNlxoL60FRvYYLd78hACjfZjo+dgnJOk3PxS4hd47TjWbCesixakk6VRvHrgpADbpY9Xba4KBeS+pDUPKiVwfrITNhvVJUN7rLDU0bAciHT+kDwQceKyPZRVoau4RcWqJD1WkmrAtDH3ivOzh2TQBqysY6P3YJyerzP41dQm49o2/ELiGIEhPgknRBoM+1AYCR1etatVShBbbRVT/Mmd8ZfEuvGemrS0T1mu7aN29iBgBV9U1tbyNVq+KO2AXk2lL9KHYJgRRKPbib455BAMbC4Tq+SkFtI/+fjF1Azl2uvtz31cNMgEvS8e6A2NUBMO/d+n7sEhL3j9gF5NzLejp2CUEUhvvBFXp77NoAmLaxfq2GqjW/Nrpq7vid1d9jFxDEsFHd7O7QFrGrA2DWerpNq9vI0ypaFLuA3Jsdu4AgCsP/aE13hzaIXR8Ak6bodm1EUI+gx3fFLiH3xsUuILNVHKteZl13h6bGrhKAOWvpLm1R5aC2sB9QdE2xS8i9abELCKKw6h9v5O7WRrFrBGDK+rpHW1pI0jEwJXYBOVfUDrFLCKIw0gKbuge1a+wqAZixte6rekct2eiqpQ1jF5Bzuxo4H2LECfBlVnd36KDYtQIw4X26T+vlfvAcOx+MXUDO7Re7gEDKiGqpwV2lr6oudq0Acs3pBP1OrWMU1Db2B/aOXUCuratPxi4hkLKiWnLuDPcnjloDqFirrtN5rmgjQcfMFu59sUvIsdPUaOT1VmZUS9LO7hEdGrteALn0H3pc08d02DQyRuvM2AXk1jt1ROwSgijzWPWbJrqfuuu1Xuy6AeRKk87XDG1gJTvH2E7OyiTu2GrVNbIzhzOqqJak6e5ZnaPW2HUDyIn36lEd7+rMDJpj7//0ztgl5NBlpm6xM+qolhrdl9wzOorTzACMYBv9Rne7TaMMmXbG6fHuBm0eu4icOUEHmXkBjHoC/E1ru8vdUzpajbGfA4BEbapf6DHtY2bAjGmam8H9LUZhb1n7IOcKo1qSNnHfc//S6dok9nMAkJRW/bfu0lP6hCtEDGpb+wiT3R36uhpil5EL79R1snbApZht9bXc1/Q1PeHv0P16XC/EfjYAollNb9H22kE7aBuNMzZQpqDBnaYD/Sm6Sb2xS0naW/QbTTD1+vPKHNXLbO221vGS2v2LelGvaK7maV7//8/TXPnYzxRAEC2aoFa1apJa1aJWtWg1ra1pWkfTkruCNbFygtjM/Uqv+O/pBj0du5REteoWrWPwTx8kqpdrdltr6xKPe79A0nxJberTQvWqXd1arKWSpC51SJJ6tbB/+QX94d6u7kHbeXOJ5frUNuIjXgtGfARIU6PGD/q+ddDpnE6TBv20XoM/h2nCkAnTiQNHvJav+eYWJg/6b72a+n/WrHFq0AQVNNHgAJhH09zZOluv+bv1lOZonhaoV23qVrukpVosSf3fpaColkHfN6l+0PeTB33XoAmDvm8ZFFF1Q649Gvr6niSnd2trk6/ToFE9HOcma+ifJDXzS7T+y3cmBltYcvppfonHVt61kN58Mw22RJ0lHh1dBbevtJsyGodoqwxrh/FH/S7D2lO1qyaWeHycmks8OnRQWGZCyaOBzSU/83ZiyVM9Sr3O60pe3liqrnFqNjnQxGD7FznVHVzGUj1+kaThxiKpU0vK+teGBu5yrSWuBJqomGcoWDUmUZ0Hk0u8uNLeuVjZ1j5LVH9UH4v+BnM+S1TvoGuiPwMgJUW3fBRbI3YpqFiGi7UAAMDYIKoBmMQUC+wgqgEASBYT4ADMoquGHUQ1AABJI6oBmERXDTuIagAAksWxagBm0VXDDqIaAICkEdUAACSLCXAAZjEBDjuIagAAkkZUAzCJrho2MAEOAEDyiGoAJtFVww6iGgCApBHVAEyiq4YNHKsGACB5RDUAAEkjqgGYxAQ4bGACHACA5BHVAEyiq4YdRDUAAEkjqgGYRFcNGzhWDQBA8ohqAACSRlQDMIkJcNjABDgAAMkjqgGYRFcNO4hqAACSxQQ4AADJI6oBmMQEOOwgqgEASBpRDQBAsjhWDcAsJsBhB1ENAEDSiGoAJtFVwwYmwAEASB5RDcAkumrYQVQDAJA0ohqASXTVsIFj1QAAJI+oBgAgaUQ1AJOYAIcNTIADAJA8ohqASXTVsIOoBgAgWUyAAzCLrhp2ENUAACSNqAZgEl017CCqAQBIFseqAQBIHlENwCQmwGEHUQ0AQLKYAAdgFl017CCqAQBIGlENwCS6athBVAMAkCyOVQMwi64adhDVAAAkjagGACBZTIADMIsJcNhBVAMAkDSiGoBJdNWwgQlwAACSR1QDMImuGnYQ1QAAJI2oBgAgWRyrBmAWE+Cwg6gGACBpRDUAk+iqYQMT4AAAJI+oBmASXTXsIKoBAEgaUQ3AJLpq2MCxagAAkkdUAwCQNKIagElMgMMGJsABAEgeUQ3AJLpq2EFUAwCQLCbAAZhFVw07iGoAAJJGVAMwia4adhDVAAAkjagGYFK2rnqxvI/9DIBlvCeqAWAlT+jU2CXAjDsyru/pqgGglG/qPPpqBPBdf1zGLTiiGoBN2U8rO0lXENbI6Fv+c8r6MqKrBoBheB2tGwhrZPAtf3KQ7RDVAEwKcbFWrw7RvYQ1KuL9FwIFNV01AKPCXFe9RB/R44Q1KnCCLgqyna1U54hqACaFugVKmz6kfxLWGKWv+AsDbemrYgIcgFF7qSnQlmZqT71MWGMULvBnB9rSlpouohqAUVPdF4Jt6xX9p+YS1ijTJf6EYNv6ugpOKsZ+Sihfm++T1KEuSd1qlyTNlyQtUo+ktkxbf0GPRB+K/p1x7eu91KAJkgqaKElqVZ2kRo2XNE7N3Ba6ppykH2hWoG39XR/WJZ4XEEb2Jx0fbFtbabokyUUfnWtCj5+rNi3UAi1Qm3rVq4WSOrVE0sKB75eos/97qV3dkrrUIfX/FKFMliQ1a5yWB/s4Nfc/4jRJ0ng1SpqogopqkdSkZrVqoiZpkibLMV7nxmX+s7FLADK4Vgc4iaiuqhf9nZqhF/Qv/Vs9sYtBIA16q96qDbWr9tRahHbiev02+kfsIoAKbaknVCCqq+kW/1U9HrsIVJXTHjpbOxLXSfu1/2jsEoAKLe+pieqq6PSH6pexi8CYcDpR32JKPGl7+LtjlwBU4M2emqiugsX+Q7ovdhEYQ4foJwNvKKTnQb9z5nswA2PvzZ6ai7WC6/WHENQ15iodE7sErMKO7vDYJQCjtnX/ud/L0FUHdoK/IHYJiOAyfYa+Olmz/GZaELsIYFRu0wdXGFPoqoO6Ndit5JAvx3Gf6ISt5U6LXQIwKh8bFNR01UG96rfV3NhFIJLN9bCa6KwT1eN31KOxiwDKNF5/14aDRhO66oBOIqhr2NM6L3YJGFbRXauW2EUAZTpxSFDTVQf0V7+9+mIXgYia9Zym0Fcn64f+U7FLAMqwof620gwdXXUwpxHUNa5dnFKYsqPcx2OXAIyoqKtKHEqjqw6kzU9RV+wiENk0vcTtUBLW5nfWU7GLAFbpHH2pxBhCVx3IzQQ19Ioejl0CVmGi+63Wil0EsAq764slHyeqA3kkdgFIAq+DtG3gfqn62EUAw5iiq4e58yFRHUi2T1qGFa/GLgAj2NX9kGEPSWrRb7X2MAfQeM0GMj92AUjCvNgFYESHussZ+JCcel2vdwx7pguv2EDWjl0AkrBO7AJQhk+674uz/5CSgn425P5kQ3+OINaLXQCSwOsgH45yFxLWSIbTpSt8ilYpRHUgu8UuAEngdZAXx7rrND52EYCkev1U/zPCniPXVQfS7dfmOGXN216P0KrlyN3+Y3ziFiJr1vX60IjjBl11IOO4ExJ0aOwCMCq7u3u1fuwiUNPW04wygpquOqDX/CbqiF0EIlpX/1QjXXXOzPNH6ObYRaBG7aartW5ZYwZddTBT3bGxS0BUZxHUObSau0nnqhi7DNScor6qu8oMarrqoDr9jvpb7CIQyQd16zD3GUL6HvBH6h+xi0AN2Uo/0g6jGC/oqgMa767WhNhFIIopupKgzrGd3GM6TQ2xy0BNaNE39ciogpqoDuxt7tLYJSCCon4x7A0BkQ/17uvuMb0/dhkwbpyO0jM62dWPcrwgqgP7b/fF7BtBzlys3QlqA7Zwt7u7tUvsMmBUgz6pp3W5W6eC0YJj1cF5f5CuiV0ExtAX9W2C2pRb/QW6S4yNCOctOkpHa62KRwqiugqW+D30QOwiMEY+pus5Sm3QS/4m3aUHNDN2Ici5KdpHB+k9GUcJoroq5vid9HzsIjAG3qE/qomgNmymf1rP6zXN1hzN0izN1hx1xy4KOdCsnbWrPqAdguzKE9VV8g//Lm5ZaN66erDs6yJhR5tfog4tUrcWqGvQV1KHuiT1aqEkaZF6JHWrfdl66uvfwoIVptfbif4cGqdmSa2qU4ua1KRJau7/7+qaqvW0tqYEHRmIagBIxBLfOfD18oBf0WItLbnegpJH1nu0qPS/os6Sjy9Ub4lHl+92rEqpWitV7q5L47AftzJxmPOll8VrKc0a1/9VQ/8FtwVN7H+kpf8GOa2qezOgx3wH/f8B9GGpjrr3vngAAAAldEVYdGRhdGU6Y3JlYXRlADIwMjEtMDMtMjVUMjA6MDc6MDkrMDA6MDCArVNNAAAAJXRFWHRkYXRlOm1vZGlmeQAyMDE2LTA0LTIyVDE2OjM5OjM5KzAwOjAwgCs05QAAAABJRU5ErkJggg==;" vertex="1" parent="SrgSx0D-FuNyG_olPb56-41">
          <mxGeometry x="566.27" y="128" width="27.46" height="21" as="geometry" />
        </mxCell>
        <mxCell id="SrgSx0D-FuNyG_olPb56-34" style="edgeStyle=orthogonalEdgeStyle;rounded=0;orthogonalLoop=1;jettySize=auto;html=1;" edge="1" parent="SrgSx0D-FuNyG_olPb56-41" source="lqRVle8zpSfQ94BdNM4T-2" target="lqRVle8zpSfQ94BdNM4T-3">
          <mxGeometry relative="1" as="geometry">
            <Array as="points">
              <mxPoint x="143" y="93" />
              <mxPoint x="143" y="38" />
            </Array>
          </mxGeometry>
        </mxCell>
        <mxCell id="SrgSx0D-FuNyG_olPb56-15" value="&lt;font color=&quot;#ffffff&quot;&gt;2&lt;/font&gt;" style="ellipse;whiteSpace=wrap;html=1;aspect=fixed;fillColor=#000000;" vertex="1" parent="SrgSx0D-FuNyG_olPb56-41">
          <mxGeometry x="120" y="6" width="20" height="20" as="geometry" />
        </mxCell>
        <mxCell id="SrgSx0D-FuNyG_olPb56-16" value="Compile program with alternative entry" style="text;html=1;strokeColor=none;fillColor=none;align=center;verticalAlign=middle;whiteSpace=wrap;rounded=0;" vertex="1" parent="SrgSx0D-FuNyG_olPb56-41">
          <mxGeometry x="140" y="1" width="120" height="30" as="geometry" />
        </mxCell>
        <mxCell id="SrgSx0D-FuNyG_olPb56-50" style="edgeStyle=orthogonalEdgeStyle;rounded=0;orthogonalLoop=1;jettySize=auto;html=1;entryX=0;entryY=0.5;entryDx=0;entryDy=0;" edge="1" parent="SrgSx0D-FuNyG_olPb56-41" source="SrgSx0D-FuNyG_olPb56-44" target="lqRVle8zpSfQ94BdNM4T-9">
          <mxGeometry relative="1" as="geometry" />
        </mxCell>
        <mxCell id="SrgSx0D-FuNyG_olPb56-44" value="&lt;br&gt;main.out" style="rounded=1;whiteSpace=wrap;html=1;" vertex="1" parent="SrgSx0D-FuNyG_olPb56-41">
          <mxGeometry x="260" y="123" width="120" height="60" as="geometry" />
        </mxCell>
        <mxCell id="SrgSx0D-FuNyG_olPb56-45" value="" style="shape=image;verticalLabelPosition=bottom;labelBackgroundColor=default;verticalAlign=top;aspect=fixed;imageAspect=0;image=data:image/png,iVBORw0KGgoAAAANSUhEUgAAAgAAAAIACAYAAAD0eNT6AAAACXBIWXMAAAsTAAALEwEAmpwYAAAgAElEQVR4nO2dCbhkVXXv963pTtXD7aa7BS4NFxCxUQgioC1qa1pxgIADUYyKgkaNU4wz6lMT44AvRmOiITgjkoBT4hQVp6ifvoiKIiI+5wHU54Ai84W8tbqqrueee4a19zmn9t6r/vv7FvS9VfU767/3OWv9b9Wpc8zu3bt6FF0K4zL4dcPX9xIBHnjggQceeOCFzFMlBjzwwAMPPPDAk0O8bRw88MADDzzwwPPK87px8MADDzzwwANv/DyvGwcPPPDAAw888MbP87px8MADDzzwwAPPD8/rxsEDDzzwwAMPPD88rxsHDzzwwAMPPPD88LxuHDzwwAMPPPDA88PzunHwwAMPPPDAA88PT5UY8MADDzzwwANPxlMlBjzwwAMPPPDAc+SpEgMeeOCBBx544KH5gwceeOCBBx54IW0cPPDAAw888MBD8wcPPPDAAw888BrmqRIDHnjggQceeODJeKrEgAceeOCBBx54Mp4qMeCBBx544IEHnoynSgx44IEHHnjggSfjqRIDHnjggQceeOCJAXrEgAceeOCBBx54coi3jYMHHnjggQceeF55XjcOHnjggQceeOCNn+d14+CBBx544IEH3vh5XjcOHnjggQceeOD54XndOHjggQceeOCB54fndePggQceeOCBB54fnteNgwceeOCBBx54fnheNw4eeOCBBx544PnhqRIDHnjggQceeODJeKrEgAceeOCBBx54jjxVYsADDzzwwAMPPDR/8MADDzzwwAMvpI2DBx544IEHHnho/uCBBx544IEHXsM8VWLAAw888MADDzwZT5UY8MADDzzwwANPxlMlBjzwwAMPPPDAk/FUiQEPPPDAAw888GQ8VWLAAw888MADDzwxQI8Y8MADDzzwwANPDvG2cfDAAw888MADzyvP68bBAw888MADD7zx87xuHDzwwAMPPPDAGz/P68bBAw888MADDzw/PK8bBw888MADDzzw/PC8bhw88MADDzzwwPPD87px8MADDzzwwAPPD8/rxsEDDzzwwAMPPD88VWLAAw888MADDzwZT5UY8MADDzzwwAPPkadKDHjggQceeOCBh+YPHnjggQceeOCFtHHwwAMPPPDAAw/NHzzwwAMPPPDAa5inSgx44IEHHnjggSfjqRIDHnjggQceeODJeKrEgAceeOCBBx54Mp4qMeCBBx544IEHnoynSgx44IEHHnjggScG6BEDHnjggQceeODJId42Dh544IEHHnjgeeV53Th44IEHHnjggTd+nteNgwceeOCBBx544+d53Th44IEHHnjggeeH53Xj4IEHHnjggQeeH57XjYMHHnjggQceeH54XjcOHnjggQceeOD54XndOHjggQceeOCB54enSgx44IEHHnjggSfjqRIDHnjggQceeOA58lSJAQ888MADDzzw0PzBAw888MADD7yQNg4eeOCBBx544KH5gwceeOCBBx54DfNUiQEPPPDAAw888GQ8VWLAG429KHZSHN/pdB5OcWoiHk6/P8U1wAOvYd5DKHZT3JVikWLKDEfAxxt44MXJUyVmsnlcMF9F8S2K/+GYmppaE6PHXAI88DzwrqP4HMWrut3u7sMPP2w2kOMNPPDi56kSM5k8/kufC2QMxRw88Kryrmq3W2fNz88vKTl+wQPPH0+VmMnizVOcZ+Iu5uCB58q7ieKNFFuNxQjo+AUPPP88VWImh7ed4qtGTzEHDzxX3m8pHm8S5wrkjYCOX/DAC4OnSsxk8PjEqJ+aMIoveOCFwvsAxUaTMwI6fsEDLzie142DJ+bNUXzZhFd8wQMvBN7lFAeb1Ajo+AUPvOB4XjcOnhXvbSbc4gseeCHwfk5xlBmOwI5f8MALiud14+BZ8Y6muNWEXXzBAy8E3jUU9w3s+AUPvOB4XjcOnhXvIhNH8QUPvBB4N/KFhwI6fsEDLzie142DJ+YdbuIqvuCBFwJvudNp/0UAxy944AXJ87px8MTjxSa+4gseeEHwWq3WWcrqAXjg1cLzunHwxGPlzP/Yii944AXCex1Fy1iMgOsBeODVwlMlRilvluIWE3fxBQ+8EHh85UzR554B1wPwwKuNp0qMUt4Oo6P4ggdeCLyPmMFltHNH4PUAPPCa46kSo4A3NWV2Kiq+4IEXAu+/zeCW2WtG6PUAPPAa46kSo4THt0CtWCwPo1jgaLfbCwsLG7du2rSwEvwz/370HJsATy3vLca9uYbe/EdxmRlcVntlxFAPwAOvEZ4qMYp4vd5qA2Dsi+RiTHrBC4LHd9kLqVk3xeN7atyxgfkDD7x4eKrEKOMlDYBxK5SLMekFzz+PxhsDbNZN8X41NWXuGvJ6gAdeYzxVYhTyRgbAOBbKVmtqMSa94PnntVqtswNt1k3xft/tdk8IdT3AA68xnioxCnl8DoCpUNzm5+eXYtILnn9e2gCYsJp1Uzy+dPAjQ1wP8MBrjKdKjEIePcRA5+LW7/eXYtILnn9e0gCYMJt1Uzy+2dYzqs5f6OsLHnjJF+oRo5PH/3EubgkDEIte8DzzRgbAhN2sm+S9ssr8hb6+4IGXfLEeMTp5/A/n4jY0ADHpBc8zjw2AiadZN8X7JyO4dHCM6wseeEmAHjE6efyDc3EbngMQk17wPPPM8GuALqGk+Y/ivRQzvtcDPPAa46kSo5PHv3AubvwtgMj0guef52QAlDX/UXyCYp3n9QAPvEZ5XjcOXiGPf1mluFkbAGXzB549z9oABNKsm+J9iWKLx/UAD7zGeF43Dl4pjx+oUtysDEAAesHzz7MyAIE166Z4l1NsV7K+4IHnf+PgiXj8YJXiJjYAgegFzz9PbAACbdZN8a6cnp4+UsH6ggeesXpdDGKU8vgJVYqbyAAEpBc8/zyRAQi8WTfF+3Wv17tH5OsLHnh7eF43Dp6Ix0+qUtxKDUBgesHzzys1AJE066Z4v+92OydGvL7ggbeH53Xj4IkGP7FKcSs0AAHqBc8/r9AARNasm+LdSHHqmNYDPPAa4XndOHiiwU+uUtxyDUCgesHzz8s1AJE266Z4fOngvxrDeoAHXiM8VWKU8vgFVYpbpgEIWC94/nmZBiDyZt0kr/TSwYGtL3jg7eGpEqOUxy+qUtzWGIDA9YLnn7fGAChq1k3x3krRaWg9wANvPDxVYhTwaOyqWNxWGYDQ9YIXBG+VAQigucbCe59JXTo40PUFD7zANg5eJq/b7e6uWNwWk7wa8+tSLgf1er1jp6en7zIK/pl+fxQ9bh38OvDW8O5AsVGyIDWu74oBCKi5xsL7JMX6mtfDgAdeozxVYhTxer3VBsDYF7XFmvM7jOI8it8FWHy18vhksy9SPMrk3KGu5v3vjcrmb9y8i1ut1tYY6gt44OkSo4yXNADGrRgt1pjfsyiWTdjFVzvvMyZxXXoede9/NN4YkN5YeZevX79uv9DrC3gTzlMlRiFvZACMYyHiuwHWlN+ZprliCZ4d4zLT4NvM9Nfr2YHpjZJHx96lmzYtbAu5voA34TxVYhTy+BwAU6EYzc/PL9WQ39EUt5iIiu8E8P65qf0vbQAC0Rslj0zAJzZsWN+ush4x1SvwIuOpEqOQZ4S3A84KLkD9fn+phvw+ZMZQLMGzipvn5mYPbmL/SxqAgPTGzHtZlfWIqV6BFxlPlRidPP6PczFKGADX/BYoboq4+KrltdvtZzWx/40MQGh6I+bxeTNHua5HZPUKvJh4qsTo5PE/nIvR0AA45zc1ZY6LvPiq5VGjPreJ/Y8NQIh6I+d9xeR8g6NsPSKrV+DFxFMlRiePf3AuRsNzAJzz63Q6Jysovip51Kg/1MT+Z4S3A459/jzwCm8epKRegRcTT5UYnTz+hXMx4m8BVMmv1+vdXUnxVccjA/C2hvY/JwMQ2/x54F1uxnMdB/DAa26ELkYZj39ZpRhZG4Bkftu2bd1ErOsVFF+NvCfZrm16fXP2P2sDEOn8+eDtdlgPqwEeeI2N0MUo5PEDVYqRlQHIyo/+0nxPWQ4V8gPPjXcDxT42a5u3vhn7n5UBiHT+fPHOc1gP8QAPvMZG6GKU8vjBKsVIbADy8iMmX/73pqI8KuQHnhvvLOm6lq1vxv4nNgARz58v3jUUPcv1EA3wwLPled04eCIeP6FKMRIZAEF+T8jLo2J+4NnzPk8xLVlXi/VNDpEBiHj+fPPuEVB9AW+CeV43Dp6Ix0+qUoxKDYBFfqdRXJuznViKb+w8/jhmXdmaJofD/ldqACKevxB4LwyovoA3wTyvGwdPNPiJVYpRoQFwyG9fitdS/Chvm4EX3xh519HvP0Bxv6K1zBqO+1+hAYhw/oLitVqt8wOqL+BNMM/rxsETDX5ylWKUawBqyK9PceAoKJcDZ2dnD5mbm7vdKPhn/n3yedIAb+52/X5/+wEHbJ+SLkhyVFjfXAMQenONgddqTX01oPoC3gTzVIlRyuMXVClGmQYgYL3g+edlGoAYmmskvJ8o21/Ai5SnSoxSHr+oSjFaYwAC1wuef94aAxBRc42B91tl+wt4WniqxCjg0dhVsRitMgCh6wUvCN4qAxBZc42Bt6xsfwFPA0+VGCW8bre7u2IxWkzyQtcLXhC8FQMQYXONgbdsuyA8At5fwIudp0qMIl6vt9oAGPsitBiTXvCC4O0xAJE21xh41gYg8P0FvJh5qsQo4yUNgHErRIsx6QXPP4/GGyNurjHwrAxA6PsLeBHzVIlRyBsZAONYiPhugDHpBc8/r9VqnR1xc42BJzYAMewv4EXMUyVGIY/PATAVitH8/PxSTHrB889LGwATV3ONgScyALHsL+BFzFMlRiHPCG8HnBVcfPr9/lJMesHzz0saABNfc42BV2oAYtpfwIuYp0qMTh7/x7kYJQxALHrB88wbGQATZ3ONgVdoAGLbX8CLmKdKjE4e/8O5GA0NQEx6wfPMIwPwjybe5hoDL9cAxLi/gBcxT5UYnTz+wbkYDc8BiEkveJ559NDfmnibawy8TAMQ6/4CXsQ8VWJ08vgXzsWIvwUQmV7w/POeb+JtrjHw1hiAyPcX8CLned04eIU8/mWVYmRtAJTNH3j2vDNMvM01Bt4qA6BgfwEvYp7XjYNXyuMHqhQjKwMQgF7w/POOM/E21xh4KwZAyf4CXqQ8rxsHT8TjB6sUI7EBsMiP709/NMWjKZ5F8dy8aLdbZ7bb7US0zkw8zq99FMWdas6vbr2Txtti4m2uMfCWLddDNMADz5bndePgiXj8hCrFSGQAhPm1zODt4R/k5eSQ3yi+YwZmYKrm+auid5J5PzVxNtcYeMsBrC944HW9bhw8EY+fVKUYlRoAYX5zFO/N2UadxfJdFNM1zp+r3knnnWfibK4x8JYDWF/wwOt53Th4osFPrFKMCg2AMD/+q/yCgm3UXSzfWuP8uegFz5jHmTibawy85QDWFzzwig1AbGKU8vjJVYpRrgGwyO9PS7bRRLG8f6DrMSm8fc3gs+rYmmsMvOUA1hc88PINQIxilPL4BVWKUaYBsMzvy4Lt1F0sPxvoekwS72MmvuYaA285kPUFb8J5qsQo5fGLqhSjNQbAMr/9JNtpoFjesnHjhr0DXI9J4j3SxNdcY+AtB7K+4IEX0MbByxq7KhajVQbAIb97l22jqWLZ6/XuHtp6TBiPT8b8aWTNNQbeciDrCx54gWwcvExet9vdXbEYLSZ5Dvk9sIjfZLHs9brHh7Yek8Zrt9vPjay5xsArvR1w3nqEvr+AFylPlRhFPGqCuysWo8WK+d0pj910sZyZmb5jaOsxaby99962QGvxi4iaaww8awMQy/4CXoQ8VWKU8ZIGwLgVosWK+XUofpnmjqFY/mzLls2tqvMX+vrGwOt0Oo+PqLnGwLMyALHtL+BFxFMlRiFvZACMYyHiuwHWkN9rjby41VUsX17H/IW+vjHwdu48pkcPfdrE0Vxj4IkNQIz7C3gR8VSJUcjjcwBMhWI0Pz+/VEN+fG34n5vxFcsfU2yoY/5CX9+IeDsofm/Cb64x8EQGIPL9BbwYeKrEKOQZ4e2As4KLT7/fX6ojv6kpcxzxrhlDsbya4s62+cW6vpHxHmvCb64x8EoNgJL9BbzQearE6OTxf5yLUcIAVM5vZmb6qFZr6tIGiyVfcOhQ1/wiXd/YeG8yYTfXGHiFBkDZ/gJeyDxVYnTy+B/OxWhoAGrL7853PnKm0+k8zAxuFvN1M/ho4Nc2QXmN4mdkKL7earXeSb8/2QzuNlgpvwjXNzZem+J9JtzmGgMv1wAEsL7gTRJPlRidPP7BuRgNzwGISS944fPmKT5vwmyuMfAyDUBA6wvepPBUidHJ4184FyP+FkBkesGLg8cm4MMmvOYaA2+NAQhwfcGbIJ7XjYNXyONfVilG1gZA2fyB1xyvR3GuCau5xsBbZQACXl/wJoDndePglfL4gSrFyMoABKAXvMh47Xb7sbTPXRdIc42Bt2IAYlhf8PTyvG4cPBGPH6xSjMQGIBC94EXIm56ePpZP6AygucbAW256PcADT8LzunHwRDx+QpViJDIAAekFL1LeoYfedpYeejrFb42eZt0EbznG9QVPH8/rxsET8fhJVYpRqQEITC948fO2UbyK4ncm/mbdBG858vUFTwnP68bBEw1+YpViVGgAAtQLnh7eJopnU1xq4m3WTfCWlawveJHzvG4cPNHgJ1cpRrkGIFC94OnkHUnxUorPUtxk4mnWTfCWA1gP8MDLNwAxilHK4xdUKUaZBiBgveDp583TvnuXdrt9RrvdOqvVar2D4r2t1tRF9NjHXYNfT5xENMr7hnE3E8uBrQd4E8pTJUYpj19U5S+RNQYgcL3ggRcD7zTj/k7CcoR6wZsEnioxCng0dlV8G3KVAQhdL3jgRcITG4CM43c5Qr3gaeepEqOE1+12d1f8DHIxyQtdL3jgRcITGYAc8156O+Aa8gMPPDT/2Hm93moDYOxPPFqMSS944EXCKzUABe/cWRuAAPSCp5WnSowyXtIAGLczjxdj0gseeJHwCg1Aycd2VgYgEL3gaeSpEqOQNzIAxq3577kbYEx6wQMvEl6uARCcsyM2AAHpBU8jT5UYhTw+B8A4Nn+O+fn5pZj0ggdeJLxMAyA8YVdkAALTC55GnioxCnlGeDvgrODi0+/3l2LSCx54kfDWGACLb+uUGoAA9YKnkadKjE4e/8ep+acMQCx6wQMvBt4qA2D5Vd1CAxCoXvA08lSJ0cnjfzg1/4QBiEkveODFwFsxAA7X6cg1AAHrBU8jT5UYnTz+wan5cwzPAYhJL3jgxcDbYwAcL9KVaQAC1wueRp4qMTp5/Aun5s/B3wKITC944AXPo3FahSt0rjEAoesFTzfP68bBK+TxL52a//AxawOgbP7AA692XrvdPr3CFTqX07zQ9YKnl+d14+CV8vgB1+ZvbQAC0AseeMHzOp3OGRWu0Lmc5oWuFzydPK8bB0/E4wddm7+VAQhEL3jgBc9LGgBjeZKuGRqAmPSCp5PndePgiXj8BNfmLzYAAekFD7zgeSMDYOyb/x4DEJte8HTyvG4cPBGPn+Ta/EUGIDC94IEXPI/PATBuzX9kAKLSC55OnteNgyca/ETX5l9qAJrWOzMz80dULJ9ND72D4ksU36X4FcWPKC6j+BDFWRQnUcyPOz9PvI0Uf0rxWoqLKK6guJLi5xTfofX8fKvVejPN29Pm5uZup0BvKe/Odz5yZnq6dxxpfjFpv5Ae+hrF9yl+Pfz/1yneQ/HXFH9MkfnXy7j0GuHtgLOC1nc59PUAbzJ4XjcOnmjwk12bf6EBaErvli177UWF/JmU2xWWb5PeQPGvFMc1mV+SNz09/Uf00Aso3jyMZ1Ds48orye/eFO+juDlvDnLWl5vhE02GQao5v9HYQPEYin8wA+PGBm1XE+vR7/e3077yt6TzKsvP1H9L8QaKHTXozc2vgOdkAIYal8eQH3jglfJUiVHK4xe4Nv9cA9CE3jvd6YjpTqfDX4/6ecVbGHN8gprznZpaD/6Lk/7S5AZya8a2r6d4pg2vJL/bU/xnmWbB+v6S4ukUbVu9FvPHf11flZVfqzX1yfXr1+1Xx3p0u925drt1Jmm8psLZ9By8fhfQa/cf8/FrbQASOpfHkB944JXyVIlRyuMXuTb/TAPQhF6+4iA11M9XLObpYnkz/XX4gp07j52uez0o11cJ8niulJeT39SQkfsXf0qvdH0/a5p5Z+cwit8V5Ucm4LKtW7dsrrIexPkjim9X+B59Vn6/I/P5yDEev1YGIKV1eQz5gQeePU+VGAU8GrsqNP81BqAJvb1e7y6U0y9qbv6JptP6j16vO+uaX1pvt9u5v8n+yz8d/E7AvmW8nPmbNoPPrK31CufvFxR3legVru+MGXzOXpof/eX+4gr784OJcX3NzT+Z29/v3HlMbwzHr9gAZKzvcij1BTzwwtg4eJm8bre7u2KxXEzy6s6PGvM9KKerm2r+Cd4nTA2fga9fv44/37/SIqcnF/Fy5o+b6Ucq6pXENWbwDpFtflnjdRb5XSYBZoxT+V2dppp/gvcmipZtcpbzJzIAOfmV3g64hvzAAw/NP3YeNdjdFYvlYlP5zc3NHtzkX/4ZvA8bweffRXrpofdb5vV6h/l7Z016JcFv2d+x4voebzLeESnIjxuYVYOdmjLH0etvHEPzH8UrbfJzmL9SA1Ayf1YjlnoFXoQ8VWKU8ZIGwLgVysUm8tt7720bWq2pb46x+Y/i5Tbzl9RLDz3JIbe3W87fs2vWK4nvbty4YZvj+m6l+JlDfn0JnAe9djvF/xtj8x/Fn0nyczw+Cg1ASX5WBiCmegVeZDxVYhTyRgbAOBZKvhtgE/m1Wq3Xe2j+HLdQ3EM6fyO9xOSvi13rkN/bLeaPz/a/vma9ovmj9TjPYX35JMX/cMxPZAAOOGD7FO2DH/XQ/Dn4q4Lbi/KrcPzmGgBBfmIDEFu9Ai8ynioxCnl8DoCpUCz57Py68yNXwp/73+Kh+Y+CL5wzI5k//nmaBj38VZf8qLGeK5w/fkv8vxvSK+LRvnKy5fo+rUJ+pQaA82i323/uqfmP4sNF+VU4fjMNgDA/kQGIsV6BFxlPlRiFPCO8HXBWcPHp9/tLdedHTfFzFYo5f2b9LYof0+tvrdAcniGZv6Hev3edv5QBKJq/h0t4OXr5XY0fUFxuBO8gFPAu37BhvegcCTP4yt91wvysDQDP0z777L2eGD+t0Pz5ipHfNIMrJFYxT/fNyq/i8bvGAFjkV2oAYq1X4EXGUyVGJ4//49S8Ugaglvzor8wTHYo5N7hzzeBra+0Rb/v2xfXEexA12U85NAf+Gtw6wfxx8Zd85S9z/hIGoGj+OmbwroRt82cj9BgzuDTwaPDb8rczA9OS+Z38Ah7H6cWruWfwOyJfE/KsDcBoPeiv/+c4NGs2QK+huEOSt3nzps18A55Wa+rrDvvfxcN5XZVfxeN3lQGwnL9CAxB5vQIvJp4qMTp5/A+n5pUwALXlRw3xIsvi+xuK+5XpNYN7AVxtqfXpJfO3xdh95W/N/A0NQNn8PUjKSzSHcyh6JdN/GzP4+qO0+Y9MxVQucTBeb8GzMgCj9dix43ZzxPmxZbP+HsUds3ijteWLQpGx4Hd/Si+ulIrdWbwKx++KAXCYv1wDoKBegRcTT5UYnTz+wal5cQzPAaglv9nZ2cP4bXuLfLj53s5C79HG7kS9bw0v+pLFyzzBzXb+hgagbKo+KuUNm0PmFQZzxnSSL2w2uwt4bMZW1rDC2+prDEByfbvdzkMteV+h2CuPl7G+DzN27+y8r+bj97QK85dpAJTUK/Bi4qkSo5PHv3BqXoMGNlV6O2BpftQMXy3NheImirs76H28jd5er3ufHN5fWORa1AzfXjJVB5icRuTIyxr8TsZPLZrNBQWcn5fk52QA0utL+8qHLHi/HM5jLi9nf3mtRb43842H6jp+aZxWYf7WGABF9Qq8CHleNw5eIY9/6dq8OKwNQF5+9ND/leQyjGc56uXxPqleajRnZ/D4ioG/sMi1aP7KGvYzLHjfoLC+pDHr4ssXWzSba032VRNXDFzF5r/KAKTXl+8GSbwbLFgPSOsV7i/87silkm2wvna7/fS6jl9inV5h/pbTPEX1CrzIeF43Dl4pjx9wbV7WBiAvP2LeoSyPRHCj6zjq5cHbyn17N6X1Z3e4w46ZFO+RFrmWzV+ZAfiMBe9eJaw1Izl/ZHY+bdFsTkmh+CORqwV6rQxA1vp2Op1HWHDenadXuL/8adk2EmbxM3Udv3xCYoX5W07zFNUr8CLied04eCIeP+javKwMQEl+zyrKIxWPqKB3NDI/v8/SS3Fs6rUvk+YqmL8iA7DeDIq5hPdZiejkSM9ft9t9oEWzSee9j1Cv2ADkrS899lYLzhF5eoX7C3/t8dt5/JTW5c2bF/aq4/hNGgCHuVuuoFeUH3jgSXheNw6eiMdPcG1eYgMgyE96DX3+7na3hvlbcwGkAr3PTr1WdK6CcP6KDMDxFrxHSYXvEZ/fXL8l0Ubx/SSPclmqsfn/DzXAfsH6Sj8q+kKZXuH+8vQsfo7eBxSB8kY6v5EBcJy/5YDqC3gTzPO6cfBEPH6Sa/MSGQBBfvz2sfQz9fNrmj/+COHXQr3/kXrt6WV5WsxfkQH4GyGPr4OwVSq8ZP5eVaYtEfuNeAcffCB/Le93dTR/jq1b91rIye82FpwXCvRKxvY0u2A9XiGFjkZWfnwOQIX5Ww6ovoA3wTyvGwdPNPiJrs2r1AAI8zuggJ+OR9c4f+cL9f4s9brNZnAd+KrNv8wAfEjI+6JUsGA9jivINR0PTvJardY5dTR/fv22bVs35eT3QAvWUTUebysXNipZj0/YQPPyM8LbAefM33JA9QW8CeZ53Th4osFPdm1ehQbAIr9Vb3UXxbp1/cW65o/GIy30bkq99oys5znMX5EB+K6Q91KJWOF68FmP+2IAACAASURBVGfevyrJeRQvTPI2btywD+X3I+Frc5t/ygCk8/srIesXW7ZsbtV4vL08mV/BelwpBZash5MBGJ2LEFB9AW+CearEKOXxC1ybV64BsMwv8zPWdFA+P6tz/mZmpo+w0Hu3DMzjTOJyukPGtZZn02caAL7BEBdyYX4Plui1WI9PC/Lms97flebxuQD02Jcynv85U3IlxqTOoQHIyu9fJLlRfKLO443GKRbHx0IZTLAe1gYgkddyHcdHoPUKvIh4qsQo5fGLXJt/pgFwyO8fyrbD+VDD+Xyd83fQQUt94t4k1PuYHBy/M3AqX5e+0+k8bMOG9fvy/Qcs5m+NAdi9x5zM3MFiPQ6X6LVYjzeU5T1cj//O4fGdC+9pBsaOTdJRw9//sIiXjOE5AFm5XSSYU87tnDqPN0uzeHQZT7AeVgYgldtyHcdHoPUKvJh5qsQo4NHYVaH5rzEAjvn9W9E2RjlRUX9b3fPXak1dLtSbeXndLL1kBE4W8DINwIjX63V3C9eDr2eQdVGe3PwE8/fUopwTef3Qcj0yDUDW/sffAshhfKMotxGPDNlz6zzehmbxZuHxcUIZT7AeYgOQMX/LodQX8MALY+PgZfLor9XdFZr/KgNQIb9P5fGTeVFR/191zx+ZitKrAg7jNRLe7sHbXicKmasMQJJHDfBU4Xr81EavcP7WfEXSZKwHxfWW67HGABSYzzwDUPhtkRGD7xVQ9/FG3CuEx8cZEl5JfiIDkDN/pbcDriE/8MBD84+dZ/GXZqEBqJjfZVnsdGEjA/CUuuePHnqTUOc7JbxhftYGIM0jrU8VrselNnqF83enrG1lNRvKc4MEOByrDEDJO09ZBoBPULwlK7c0r9fr3bvu4424X8zbdirOlPBK8is1AAXzZ20AYqlX4EXIUyVGGS9pAIx9899jAGrI7wdpbk5xe3RVvRn5SW/48j4hj4eVAcjiUWN9vvD1a74CWMN63C69nYJms7cUahIGQPCxU5YB6Gfoz+TRjn1s3ccbPfTxvO2n4mUSXkl+hQagZP6sDEBM9Qq8yHiqxCjkjQyAcWv+e+4GWEN+VxlZcXtoVb0Z+Ukv6/thIY+HrQHIajYvEr5+1ffOa9pf9jWy9eBYsuD+UMArMgCbMp6XyaO4vY3g0SiZP+nHRa8W8opGrgEQzJ/YAMRWr8CLjKdKjEIenwNgHJs/x/z8/FIN+a1877ykuFldZlU4f9K/tD9psR5iA9Bqtc7N4f2NkPEBS72SscHI1oPjUAvuD4XNP88A7J1+XgFvf1vRgvk7NyfXdLxeyCsamQZAOH8iAxBjvQIvMp4qMQp5Rng74Kzg4tPv95dqyO+3Rlbc7l1Vb0Z+0gvL/JfFeogMAOtLGYAk75XCvN5tqVcyZoxsPTjuKAFyHvT6NQagQFeWAdjPpOavgHcbG8HC+XtzQb7JeGMN67HGAFiYp1IDEGu9Ai8ynioxOnn8H6fmnzIAzvnR+JWwuIneAbCcvxdK9LZaUxdZrEepARhpTBiANE/6DsAH695f2u32Jotmc9sy3ii/tAEo0ZVlAFbuAyDIb3+pXov5O78k51G8tob1WGUALNaj1ABEXq/Ai4mnSoxOHv/DqfknDECl/IhzpbC4pe9B76I3PV4h0UuN+oMW61FoAJI6hwYgiycyJhSfqnt/mZ+fO9Ci2Wwv443ySxoAga4sA8BX2JM2wx1SvRbzl3kL6XTQmp5Vw3qsGADL5l9oABTUK/Bi4qkSo5PHPzg1f47hOQCV8iPO94TF7TE16E2PwqsQJhr1ey3WI9cApOdvaACyGM8uyivB+1Ld+8vs7MwdLZrNtjLeKLeRAZDoMhkGoNvtzlk0w2Okei3mr/QqhJxPu91+WQ3rcdqIZ9n8cw2AknoFXkw8VWJ08vgXTs1/0MCmSm8HXJYfMb4mLG5PrkFveuR+rptq1G+2WI9MA5BTzPNuBvTnBfOwwqO5+2bd+8v09PRdhOvBVyGcLuMlDUCZpkT007ydO49hxk3CZngvqV6L+Su8DsAoJzIAz6y6HjROc2z+mQZAUb0CL0Ke142DV8jjXzo1/+Fj1gYgnR81148Ji9vLJDzL+fuoRC/l+LcW67HGABTMX54BOCkrrwzer+veX/gqesL1+JWEN8rPFNwLICP6WTzK6yfCZniqVK/F/P0kb3vJde10Oo+suh5kIk53bP5rDICyegVeZDyvGwevlMcPuDZ/awOQlR8113eW5TCMC2rQmx7fF+p9ioXMVQagZP7yDMBd0nnl8davX7dPnfsLNZ/n5W07Fd+U8BLrYW0A0rxWa+rLwmb4Eqle4f7C91u4NWtb6fXodrv3qboeZCLOcGz+qwxAAPUFvAnmed04eCIeP+ja/K0MQF5+Rv6Vt6/VoDc5+O3rZaHeB0mhJmEABPOXZwD2M8L1mJrKvFVx6ShYD+ktdz8m4SXWw8oAZPHILH5A+Pp3SfUK95cjsraTvR5Th0iARfklDYDFnK0yAIHUF/AmmOd14+CJePwE1+YvNgAl+T0mL4dUXGsGt5qta/52WOi1ueDNiQJemQGYorhGmN/pNqJ5lMzfpzPyzIrXCXmjITYAfDfALB49dpaQcbGFXsk4Jb2NnPW4gaIjheblNzIA0vlKxXJA9QW8CeZ53Th4Ih4/ybX5iwyAIL9jc9hZcXSN8/cXQr03GruifqLF/OUZAB4XC/N7i43okvmbNQOjJVmLJwh4ySE2AFu37rWQw3uskHETxUbL/IrGPyb5BevxtUJKxsjKj88BkM5VRiwHVF/Am2Ce142DJxr8RNfmX2oAhPmtNwV3eUvFS2qcvw8I9X5VCuQ86K+3ky3mr8gAvE2YH99LoSXNr2T+7l+Qazp2Wu5/IgPA+rZt27oph3e0RX6n1Hi8fTeZX8F6nGcDzcvPCG8HnDN/ywHVF/AmmOd14+CJBj/ZtfkXGgDL/L5asp1RfhfXNH/8+f81Qr2vlwBHemk8yGL+igzA4y3W42hpfiXzV3hdhERcP03Dcv8rNQAjjQkDkObxOzG/E+b4tpqOt0PT+RWsxxOl0JL1cDIAw5yWK+qV5AceeKU8VWKU8vgFrs0/1wA45Pf3Zdsa5nTr3NzsjqrzR+MUC71/WgZL6k0agDJNJscAMG92dub2Fuvxd9L8CtaD//L8qSBnDpcrEBYagKTOoQHI42V+dTOD96t99tl7Yw3H24vT+RWsx2ESoGA9rA1AIq/linpDrlfgRcRTJUYpj1/k2vwzDYBjfjaXz/3nqvNHnC8I9fIZ1VvLeEm9IwNQpCcRawxAkjclv3zu1Wb4mXdZfgXr8Uhhzv/Tbrde7LD/5RqA9FoMzwHI4zy3LL8Rp91uP73i8cHnRFwlPD6uNIOTNwuHcD2sDEAqt+UKekOvV+DFzFMlRgGPxq4KzX+NAaiQH9+BLvOt3Yz8+GpwNmflr8qv0+k8xELvp8p4ab18DkABr9AApHlkdl5nsR5r3gWwWA/+SGTlc+6i4HxmZ2cOd9j/Mg1A1v7H3wIo4Ny2LL9E/Hzz5oW9KhwfZ1ocH/9YBrNYD7EByMhvOZT6Ah54YWwcvEwe/bW6u0LzX2UAasjvXWl+QfG9xAz+OrPSu25df3EqdfOhEn1PKuJl6TXC2wGblAHI4vV63XtasPhEyvuW5ZezHm+QbGPwDszUNxzXd40BKFjfIgPA45K8/DJ47zeCv8zTg157BMV1FsfHPYp4lushMgA5ektvB1xDfuCBh+YfO48azG6LZphrAGrK736mvLgl4002eg899Laz9Bf1Zyz0Xk+xVx6vQK+1Acjjbdmymc/u/78WvJ9TLFqux6kSduJt9ec5ru8qA1CyvmUG4K/y8svhPcMmUdK4kV7/XYvm/z1T8E0Mh+Oj1AAU6LU2ALHUK/Ai5KkSo4yXNADGvvnvMQA15sd/pX3LyJr/KM42g5PXCvXyZ8rU/P/d0uy8tWz+cvRaGQAB7y8teBzfmZmZPly4HnyC43VlzMS8XbewsPE2juu7YgAE61tmAPh8h99b8LgpPleSJO0n+9DrL7Z8Z+zZeTzH46PQAJTotTIAMdUr8CLjqRKjkDcyAMat+e+5G2Cd+dF4ikXzH8UnKA7O0zs93Ts6ecdBoV6+7vtRZfOXo9fWAJTxNlD8VsocavxNp9N59M6dx07nrAc32FebnOvbZ/CGb/+33lphfX+Y5hWsR5kB4PEGC97KfFNsKWAeP5W44ZBwf2EjsjkLVuH4zTUAQrMjGrHVK/Ai46kSo5DH5wAYx+bPMT8/v1Rnftu379engvYDh48lbjaDC/vwX8t83f4HUzybGv+niHGLA+99kvnL0Ss2ANRQzxXO34skvIzmcIUZ3GuB3+b/EzO4kh5f6//XDrwb5+ZmD3ZdXxo/tGjWpQaA5m7fKbvP6JMNmy/Y84ThnDzMDL7q92UH88nRxF0qMw2AMD+RAYixXoEXGU+VGIU8I7wdcFZw8en3+0t150d/uZ5uUXxtmqGNmVj1fW7L9RAZgOFf1OcK54/vRndVQ3pFPMr1H6us71TiK42C/AoNwGg92u3WWU3pFfJ+aTK+flnD8bvGAFjkV2oAYq1X4EXGUyVGJ4//41wsEwagtvz4bWv6y110sZey/Bybwyst5i9rlBqARFM912L+TmpIr4R3ZbvdXihLMGuM5i9tAEpyyDUAyfXgC/0Q69sezeKji/KrcPyuMgCW+RUagMjrFXgx8VSJ0cnjfzgXy6EBqD0/Ym83g4vbjLv580mIs2X5lei1uajRuZbz986a9Urmj88TOEGaYHIk529KflGjXAOQtR69XneXSd3WuaJe6Ws/LMnP8fhYMQAO+eUaAAX1CryYeKrE6OTxD87FcngOQFP58dcCrQp7xWbIFyK6g+X8ZY0TpPkNDYDNtHFjXPkO/BiaP//+5TYJjkZ6/qaG53YIc5kv46XWY83XAivolcT3TepkwpqP39Mq5JdpAJTUK/Bi4qkSo5PHv3AulvwtgIbze2qV/KSvNYPbxz7AIb+sscsiv3+wmrjB4HdHfjym5v8eI7zTYHJkzR/xviHMhc/BmCrjZazHG2vQKwk+gfIOyQ3XffzSOK1CfmsMgKJ6BV6EPK8bB6+Qx7+sUiytDYCDXr7DWuHtgis2wxvN4JsDrvmlxz4W+T1FCk3mNzc3dzAxvtNw8/+gGVwi2Dq/rPkzg29WSPL5poSXsR5sGl5bQa8kfmNSd15s4vhtt9unV9ifl9M8RfUKvMh4XjcOXimPH6hSLK0MQAW9p5ic78JXbP585bx715Bfevy3ID9+12G7DTSZ37p1/f1brdZnG2r+rzMlF1gqyy9j/h4jzOmvhbyswSbgOWbwLkLdzf9yih0Weq3HiNfpdM6oYO6W0zxF9Qq8iHheNw6eiMcPVvlLSWwAatDLN4H5jGV+RcEnce1bY37JsZPihpL8zrQBZuXHlzemh15qBpctrqP581cNH+oiWDB/bCj+qyQnbrLrhbyicTczeCehjubP7z7xZafXWeq1Gkle0gAI8ss0AIHUF/AmmOd14+CJePyEKn8piQxAjXr5Lzy+cMulFZr/V8zgK3VN5LfC6/V6d6G/0C+ivG5O5Mdn1PNJfA+35ZXkd6AZfEPgJuEcpOfuasr11Z1Oe72rXuH8zVGcZQbfn0/mw5+r8930Fix5RYMNx9MpfpShV7K/8FpdRHFsBb2ikeaNDEBJfrkGIKD6At4E87xuHDwRj5/k2vxFBqApvb1e9z7UtP5lanjp1pz8RvFjMzhJ7O7jym/E2rZt66aZmZnDKMfb08ObqvJK8uPzD55H8TlT8A2K4ZreQPP3n9T0n8T3Shjz/sdGjj/+OJxif5M46a/u9ej356mfdk4hreeT5l8Jmj+/C/EqkzrRr6n8snh8DkBBfhIDEEp9AW+CeV43Dp5o8BOrvE1aaADGpZcvC2sGt8LlS93y5YD57m9cRI8vyjHA9aiTx1+lu7MZXAaYb2vMN8N5AjXDh8/MTN/5oIOW+sr0lvLufOcjZ2ZnZw8xg69qPs4Mvj74NDP42t29TM41/ceV34hnhLcDzgo6XpdjWQ/wdPO8bhw80eAnuzb/QgMQqF7wwIuB52QAhsfscoR6wVPIUyVGKY9f4Nr8cw1AwHrBAy8GnrUBSBy3yxHqBU8hT5UYpTx+UZWz6dcYgMD1ggdeDDwrA5A6dpcj1AveJPBUiVHAo7Gr4lfpVhmA0PWCB14kPLEByDh+lyPUC552nioxSnjdbnd3hea/ygDEoBc88CLhiQxAjnkvvR1wDfmBBx6af+y8Xm+1ATD2Jx4txqQXPPAi4ZUagIJ37qwNQAB6wdPKUyVGGS9pAIzDWccUizHpBQ+8SHiFBqDkYzsrAxCIXvA08lSJUcgbGQDj1vz33A0wJr3ggRcJL9cACM7ZERuAgPSCp5GnSoxCHp8DYBybP8f8/PxSTHrBAy8SXqYBEJ6wKzIAgekFTyNPlRiFPCO8HXBWcPHp9/tLMekFD7xIeGsMgMW3dUoNQIB6wdPIUyVGJ4//49T8UwYgFr3ggRcDb5UBsPyqbqEBCFQveBp5qsTo5PE/nJp/wgDEpBc88GLgrRgAh+t05BqAgPWCp5GnSoxOHv/g1Pw5hucAxKQXPPBi4O0xAI4X6co0AIHrBU8jT5UYnTz+hVPz5+BvAUSmFzzwgufROK3CFTrXGIDQ9YKnm+d14+AV8viXTs1/+Ji1AVA2f+CBVzuv3W6fXuEKnctpXuh6wdPL87px8Ep5/IBr87c2AAHoBQ+84HmdTueMClfoXE7zQtcLnk6e142DJ+Lxg67N38oABKIXPPCC5yUNgLE8SdcMDUBMesHTyfO6cfBEPH6Ca/MXG4CA9IIHXvC8gw5a6i8sbNzabrcXzOAY20FxLMXJFC+g+FeKy0yOAYhNL3g6eV43Dp6Ix09ybf4iAxCYXvDA08Tj4+/xFO+nuMH8wQCEkh94E8zzunHwRIOf6Nr8Sw1AgHrBA08rbyvFc+l4/U6g+YE3YTyvGwdPNPjJrs2/0AAEqhc88FTzDj/8sNmQ8wNvcniqxCjl8Qtcm3+uAQhYL3jggQceeGPgqRKjlMcvcm3+mQYgcL3ggQceeOD54KkSo4BHY1eF5r/GAISuFzzwwAMPPDR/8Oh13W53d4Xmv8oAxKAXPPDAAw88NH/w6PW93moDYOwvOrIYk17wwAMPPPDQ/MEjTtIAGPvmv8cAxKQXPPDAAw88NH/wEgbAuDX/PXcDjEkveOCBBx54Y+KpEqOQx+cAGMfmzzE/P78Uk17wwAMPPPDGxFMlRiHPCG8HnBX8zkG/31+KSS944IEHHnhj4qkSo5PH/3Fq/ikDEIte8MADDzzwxsFTJUYnj//h1PwTBiAmveCBBx544I2Dp0qMTh7/4NT8OYbnAMSkVzxI31Kn035ku93+m3a79XetVuscDnrobNcYMZIBHngFvH+hfe8s2gfP7HY7D960aWFLKMcHeOCJIN42Dp6Ex79wav4c/C2AyPSWjX0oXkpxScUrJIrmDzzwLHk3UXyc4okUM0Y4Aj7ewJsAnteNg1fI419WKW7WBiDQ+etTPJfidybe5gDeZPF+TPHnFG1TMAI93sCbEJ7XjYNXyuMHqhQjKwMQgN6scSczKKaamgN4k8P7JMVmkzECPd7AmxCe142DJ+Lxg1WKkdgABKI3PR5Kca0Jp5iDB54L7zsUh5nECPR4A2+CeF43Dp6Ix0+oUoxEBiAgvclxPMWyCa+YgweeC+9nFPtRhHq8gTdhPK8bB0/E4ydVKUalBiAwvaNxKMVvTLjFHDzwXOKr3W5nPsDjDbwJ5HndOHiiwU+sUowKDUCAennwSVOXmvqLL3jgeee1Wq03BHa8gTehPK8bB080+MlVilGuAQhUL4/HmYaKL3jgBcC7eXZ25vCAjjfwJpSnSoxSHr+gSjHKNAAB6+XvTv+kgt7YmwN4E8BrtVrvDuR4A2+CearEKOXxi6oUozUGIHC9J1fUG31zAG8ieLeQCdjXOIzAj1/wYuapEqOAR2NXxWK0ygBEoPctgRfzy9vt9l/2er1d09PTd+Ggfx9LzKPosay4N8WfUTyL4oMm8ZXGGvK7guI5FPcZbY/z4HxGuQnyS8cxFA82g0vd3lCQ39cpnkxx3DBY30/GtB63UlxI8YipKXNX0ndcp9N5BDXUc4l1c2D7SxGP589qhH78ghcxT5UYJbxut7u7YjFaTPJC1nvAAdtJ3tQvAm7+F2zfvl+/ol7+iIMb7Jcr5vceiukkuO71oFzYOPw+I79/puhkvGQDxaeL8q6p+T8qTy8fL/TQ9ZZMH82f40Kb9Qj9+AUvYp4qMYp4vd5qA2Dsi9BiLHr5xkUBN/8ramj+K4PNDv3VejLl9COH/PhyyAvp+Wtifdvt9ktS+V1C0Sp4KZuA72TlXdN6/IdA76scuD4+RviW7XqEfPyCFylPlRhlvKQBMG6FaDEWvST2noE2//+hRvjMJuZvYWHjbVqt1gcs8/v3PF7d+c3MzByZmr9nChD8UcINppn1eJxA711tuR6aP8f1tusR8vELXoQ8VWIU8kYGwDgWIr4bYCx6u93uA0Ns/vx6Wof7NDV/O3ce06OH3mSR0z8U8erMb9u2rZtS8/cgIeppppn1OF6gd28bpqfmP4qezXqEfPyCFyFPlRiFvOFnms7FiN9Wj0UvaT0pxObPMT3dO67h+eOLH10ozOsNAl4t+W3evLBXatsnWCDfU/d60D5yH4HeTVKe5+bPMZc3eTHWK/Ai46kSo5BnhLcDzgouPv1+fykWvZ1O5yRXrSO9TRXzoQFoev7WUfxUkNvHx7X/kfYjU9sWGQDmLSxs3Eqv/76Hd2JEBiCA5p9rAGKtV+BFxlMlRieP/+NcjBIGIHi99NADXbQm9TZVzHu93t3GNH+nCvK7od+f339M+9/fprZdagCSPDZONH831bUeCQNQpLfUAATS/DMNQOT1CryYeKrE6OTxP5yL0dAAxKLXyQCMo5hTHNuA3rzx9bL8Wq3WJ7du3bK54fW4p1n7lbpCA5DFa7fbzynSUxarjdgeA1Cmt9AABNT81xgABfUKvJh4qsTo5PEPzsVoeA5ALHqtDcAYi7nEAKw3iYvq0GuPmp2dPcRh/s4U5vcjMgJ/Tb9/gBlcwCd5QZ8DyzbCeczMTN9x9UWDutz0H0bxdoqbMnLINQB568tfeaSHP5CnqSjSazE8B6BMWq4BCKz5rzIASuoVeDHxVInRyeNfOBcj/hZARHqtDMCYi7nEAKw6YTPB+UGn03mMxfzdtga9hReZGa0H7R+XWM5fpgEQrO9mih8J+GV67yWYv0wDEGDzXzEAiuoVeBHyvG4cvEIe/7JKMbI2AB71ig2Ah2JuZQByeM8WThlfaOfGinpzDUByPZIGQDhXawyAxfryHGa9q2CzHk4GINDmv8cAKKtX4EXG87px8Ep5/ECVYmRlADzrFRkAT8VcbAAKeMsUhwqn7gcV9WYagPR6jAyAxXydUMQT7C/PK9tGiV5rAxBw8+ePNOaU1SvwIuJ53Th4Ih4/WKUYiQ1AAHpLDYDHYi4yAALey4TT99WKetcYgKz1IN4llnN2QhFPsL/wuxsfyeML9FoZgJCbP8fee2/boKxegRcRz+vGwRPx+AlVipHIAASit9AAeC7mhQaAddFfc/cT8P5VOIU/rKh3lQHIWw8zNBoWcUIRT7i/bKFYc+dAoV6xAQi9+fPr99ln743K6hV4EfG8bhw8EY+fVKUYlRqAgPTmGoAAinmuARjpTRuAHM45kvmbyr4Ln5MBKFkPawNQ0/5yDzP4SMR2PUoNQLvd3hTA/iLiJQyAlnoFXkQ8rxsHTzT4iVWKUaEBCExvpgEIpJhnGoCk3qQBKOD8Wdn88UV+atB7YTq/nPVwMQB17S8vNPbrUWgAOI+NGzdsC2B/EfGGBkBTvQIvIp7XjYMnGvzkKsUo1wAEqHeNAQik+WcagLTekQEoYFxKkfu224jX6XQeVYPeC4XrYWUA+BbGde0vW7ZsbrVaUx+3XI9cAzDSu2nTwrYA9hcRb3gOgNP8BXj8ghcZT5UYpTx+QZVilGkAAtW7ygAE1PzXGIAsvWwACl7/TYolyfxRV3xzDXovFK6H2ABwPqTx5Dr3lw0b1i8S9yoLvZkGIDl/SQNQYf7Gsv/xtwCqzF9gxy94kfFUiVHK4xdVKUZrDEDAelcMQGDNf5UByNNLzDvRwx9PxMco3klxBsW0ZP6oefENdK6pqpdMxLuF6yEyAImGdbJgffnOhreX6OXo9brHE/sWobY1BiDNGxmAKvM3xv3P2gAEfPyCFztPlRgFPBq7KhajVQYgcL17DECAzX/FADQ9f9S4/6kOvcR5jzC/UgOQ+ov1ZIFe/sviG8biRjf00EuF+u5VxuNzAKrO3xj3PysDEPjxC17MPFVilPCo4K75brmxK0CLSV7Iemk8MNDmv8cAND1/nU7nNMrv1jr0JgxAWX6FBiA9d8NzAMqkdYevf0uR3lR+/K7BpwQa71XG428BVJ2/Me5/YgMQ+vELXsQ8VWIU8Xq91QbA2BehxVj0UnM5KdDmz689tsn527HjdnPUtLlh3lyH3qEBkOSXawBy5q/0dsDmDwaA47QsvTnztw/Fz0t03kvAczIAnsynyADEcPyCFylPlRhlvKQBMG6FaDEWvTROCrH5c9BC3G1M83cQxUer6h2eAyBJJ9MAFMyfrQHg6xnssNhfjqcoOh/gXoL9z9oAeHznqdQAxHL8ghchT5UYhbyRATCOhYjvBhiL3qQBcNVrGirm09O948Y4f3y53BdRiD4OyNFbeDfAxFhjAErmz9YA8Ou/sffe2xYs5u/lBXrvJZg/KwPg+WOnQgMQW70CLzKeKjEKeXwOgKlQjObn55di0TsyAFX0NlXMEwZgnPP3jAp6nQyAYP6sDEDiHYl3WMxfh+KzMEa9HAAAHQRJREFUWXppH7mPYP7EBsBz8+f4pFn9zZFVQQb+Ipq7RExdVPT8shgjj+/3sFC20MkRY32OnqdKjEKeEd4OOCu4+PT7/aVY9PI5AK5aR3qbKuZDA+Bj/l7rqNfaAAjnT2wA0qx2u32GxfzxuSu/TOvt9VYZgLz5ExmAAJq/Zt6bBGu8MmKtz9HzVInRyeP/OB+cCQMQvF4jvB1wkd6mitvwHIBa9Qp5fP2Ayxz0WhkAi/krNQBzc7PdHN71FEcI8+JxfzP8GOQP67BiAIrmr9QARN5cQ+fxOu9XurrDEXl9jpunSoxOHv/D+eAcGoBY9DoZgHEUNwrJ7YBt9UrHiQ56xQbAcv4KDQDrOvjgA+cKeGxm5i20v3q1EdtjAMrmr9AARN5cY+C9umxRR0NBfY6bp0qMTh7/4HxwDs8BiEWvtQEYY3GTGID0lQAzPiNtXUC/fwrFRoupmzKDSwnb6C01ADzv9PpLLOcv1wCM1veQQw6eL+G9XSJ6ZCZozr44Yg3PASh7aa4BUNBcQ+ddTbG5bIF4KKnPcfNUidHJ4184H5z8LYCI9FoZgDEXN4kBWHXCZgnv1xQPtpjCF1rqLTQAo/Wg/eMSy/nLNADJ9U0agALOYyX5Ma/fnz+QWL8c8kpvB2xyDICC5hoD7wWC9dFUn1XwvG4cvEIe/7LKwWltADzqFRsAD8XNygAI8+Pvu5eaAJ6n6eneMZZ6cw1Acj2SBkA4V2sMQHp9RwaghHMtxR3K8htFp9PheeLzAZwMgJLmGjrvKiP4eEdZfY6e53Xj4JXy+IEqB6eVAfCsV2QAPBU3sQGwzO83puAt09H88ZUCiXODhd5MA5Bej5EBsJivE4p4HPy2vZB1BcW6Ml5if+FvRFgbACXNNQbeX5QtTAD1FDzXEboYpTx+sMrBKTYAAegtNQAei5vIADjm95eS+aNmfZmF3jUGIGs9iHeJ5ZydUMTjn/lbABa8d5TxEvtLz8j25xUDoKi5hs777nB9ckcA9QW8FM/rxsET8fgJVQ5OkQEIRG+hAfBcLAsNAOvqdrv3c8zvPZL5IwPwGQt9F5bx+GcjvB1wIk4o4g3X18YAcJxR8/63xwAoaq4x8B5RtCCB1BfwUjyvGwdPxOMnVTk4Sw1AQHpzDUAAxTLXAIz0pg2ART6flswfPfRhC+aFZbzhelgbAMH62hqA66anp4+sa//juwEGsL9MEo/fRWrlrUdA9QW8FM/rxsETDX5ilYOz0AAEpjfTAARSLDMNQFJv0gBY5vRe4fxZvwMgWA8XA1C2vlYGYDhn396yZa+96tj/Nm7csC2A/WWSeA8oWo+A6gt4KZ7XjYMnGvzkKgdnrgEIUO8aAxBAcRvFGgOQ1jsyAA55PUc4f1dYMC8UroeVAeh0OicL1ldsAJLrwNdIqGP/27RpYVsA+8uk8D5bth4B1RfwUjxVYpTy+AVVDvZMAxCo3lUGIIDiloxVBiBLLxsAh7yuo9hXMH98sN5kwb1QuB5iA8DzRRpPFqyvyADkrMfjsoBlIzl/SQNgMV8hNtcYeHcrW4+A6gt4KZ4qMUp5/KIqB/saAxCw3hUDEEhxS8aKASg4mFzu3Pjnwvm7uw2X/pp+t3A9RAZgNGcJA1C0vqUGoGA9+DryR+aBs0Z6/kYGwGa+LPID7w/xfsl6BFRfwCvjqRKjgEdjV8WDfZUBCFzvHgMQSHFLx7ECvTYGgP/yf6LF/L3CRi8ZgPcI16PUACTnbWgAyta30AAI1uNbFP2iDYxG1vzxOQDSuXLMr04efwPkApugtb2QDV4iLrRkfLkGvXwRqzUXcgq8voCH5h8Xjwrumu+WG7sCtJjkhayXxgMDbf57DIBA7zEUF5fEf1K80Mje9h+NDsUPC3L7CcWlzCd9X261pr7cbrdeLVyPd6Xy4+b727z5G54DUMTjkWsALNbjvLKN5M0ffwugYK5Cav4cc2U6y/Q6HG//VYPed6ShodcX8ND8o+P1eqsNgLEvQoux6KXmclKgzZ9fe6zH+XtCRk7LZvCuwD4OvLLRprgnm4mM+Su9HbDJMQAO6/H4vA2U6HUyAJ7Mp8gA1Li+dXzMdiPFAQ3lBx6aP3gjXtIAGLdCtBiLXhonjbn4ioMW4m6e5o/fCr8qI6cnO/LE+W3btnVTqzX1rdT8ORkAx/Xgj0mOyMuvQK+1AfD4zlOpAahxffm7+pfUoPd1DeUHHpo/eEneyAAYx0LEdwOMRW/SALjqNQ0V8+np3nGe5u9/Z+TEHwe0HXlW+XU6nTNS82dtACqux6r7BQj1WhkAzx87FRqAmtf3z2rQew3F1obyA2/cPFViFPL4HABToRjNz88vxaJ3ZACq6G2qmCcMwDjn71QzuANeOq93OvKs85ubmzs4tW0rA1DTerzLUu9mKdtz8y80ADWvb4/iuzXofWlD+YHng6dKjEKeEd4OOCv44O73+0ux6CUDcF9XrSO9TRXzoQEY5/zxtw6uy8nttePa/3q97mxq2ycKcNOm/vV4goXeAyXMAJo/m7vMS+jWvb40nlyD3v9Hsb6J/MDzxFMlRieP/+NcjBIGIHi9lO+RLlqTepsq5sKz3630FvAeQvH7gvzeNMb9L/3X9CPLeK1Wa82leGtYj+tnZqaPFuo9UcDz3fw5fu2wHtaj2+3MUz5X1aD3GU3kB55HnioxOnn8D+diNDQAsejlz3qz3vIOoZi/vgG96cFv0760bA4on0vGuP/9cWr7rynjUcM5saH1+PbWrVs2C/SeL+T5bP4cX3RYD6vBr2u3Wy+qQS+fdzKjoJ6ClwLoEaOTxz84F6PhOQAx6b24it4Gizm/Hb/mwic16OUxRfEwiu9I8+v1uvcZ03r8eyoHfht4cx5v585jeq1W62NNrQex379ly+bcO8+ZwdfcbpHyPDZ/jsbPpt+wYcNtKKera9D7WCX1FLw0xNvGwZPw+BfOxYi/BRCZ3hdV0St9rSPvSjP4i7guvftTPM0Mv5plmd8v+C/tBteDv3742pxcvkCxlOZRY95EDfrsMawH3z1x75QkvljSUyhucOD5aP4cK3fRa+p4o7/+X1OD3ss2bFjfVlJPwas6QhejjMe/rFKMrA2AZ713rKh3HMWcG/ZbKc7OC2qE56Rj+Bi/7qOm+Mp+Nvl92wzOks/NxTI/jg9RXF2S081mcCe4Nw94Ux+mnH47xvXg7X+C4k1m8Jb/lQHvL1nxczP4tkRjx1u/P38g5XV9DXpP9lgPwGuY53Xj4JXy+IEqxcjKAASgl8cH0xqNXK+PYg4eeLbR+Al1ZOreWoPe/8Mf6yiqp+C5jtDFKOXxg1WKkdgABKKXB3/Wvmzc9GpoDuDp5n2fYrrJ4212duaOlNvNVfXydUgCqAfgNcTzunHwRDx+QpViJDIAAekdjdcZN72xNwfwdPP4Gx4nNX280V//76yqt9Wa+mhA9QC8BnheNw6eiMdPqlKMSg1AYHpHg3fOT5qwizl44NnGS5o+3virv5TfTRX13jozM31MQPUAvAZ4XjcOnmjwE6sUo0IDEKDe5OCvm10ecDEHDzybOP+AA7ZPNX28tdvtv6qqt9Vq/VuA9QC8mnleNw6eaPCTqxSjXAMQqN5VvIWFjVupGH08wGIOHnjS4Lf9X8HXLxjH8UYPfayi3pvm5mZ3hFgPwKuXp0qMUh6/oEoxyjQAAetdw9ux43Zz7XbrLNJ7Y47GmJsDeLp5/HW/h435ePtVFb18LYeQ6wF49fFUiVHK4xdVKUZrDEDgenN5pJlv8vIuE+7lgsEDbxR8Lwe+rHN/zMfblop6r123rr9/DPUAvAZ4qsQo4NHYVbEYrTIAoesV8vaneB7FRRS/MfE1B/B08n5CcQHFY42/u+YdUkUvv9MWYT0Arw6eKjFKePw93IrFbTHJC12vI28vioMojkoGzdVRvV7v2Onp6buMgn/m36efKwnwguB9zrg36480kN8RZnD74fn0Tunp+NhRoL/U7HQ67dMU1APwbHmqxCji9XqrDYCx/4tmMSa94IFXMvgyxa5/qZ83hvx88/Y11d7p+J4Z3JUyFr3gVeWpEqOMlzQAxu0tzcWY9IIHXsnYYwAc36bPNACB67Xl8U2RrjfVPuZ4UkR6wavCUyVGIW9kAIxb899zN8CY9IIHXsn4UIXP6NcYgND1OvK+YtybP8eVFHMR6QXPladKjEIenwNgHJs/x/z8/FJMesEDr4g3vOug6zkx56V5oet15J1l3Jv/KJ4fkV7wXHmqxCjkGeHtgLOCD26+LGhMesEDr4jXarU+7Nj8VxmAWPQ68u5qqjV/Dv52zaZI9ILnylMlRieP/+PU/FMGIBa94IGXy0saAGN/XJwXm94KvC8a9+Y/ildFpBc8F54qMTp5/A+n5p8wADHpBQ+8XN7IABi3d8XOi01vBd5DTLXmz3GdGXyrIAa94LnwVInRyeMfnJo/x/AcgJj0ggdeLo/PATCOH4mZgQGISm8F3hTFF2q4SNLZkegFz4WnSoxOHv/Cqflz8LcAItMLHni5PJO4DoBttFqt82PTW4XX7Xb/uIYrJC5T3D4GveC587xuHLxCHv/SqfkPH7M2AMrmDzxdPCcDMDDDqwxALHor8UjzRRWvI8Lxb7HoBa/hEboYhTx+wLX5WxuAAPSCB14Rz9oA/OHdsBUDEJPeSrzp6em7knbrm2eZ1fN36/R077gY9ILX4AhdjFIeP+ja/K0MQCB6wQOviGdlAFZ/HLbHAMSmtzKPHrrQuDf/0dx9LBa94Ml5XjcOnojHT3Bt/mIDEJBe8MAr4okNwNrzYfYYgKbzC5F3CMXNxrH5j6Lb7R4fiV7whDyvGwdPxOMnuTZ/kQEITC944BXxRAYg5/jIvRlQjfmFyvsXU6H5D+fvS2bw7YIY9IIn4HndOHiiwU90bf6lBiBAveCBV8QrNQAFx4e1AQhAb128fSiuNe7NfxQPiUQveAKe142DJxr8ZNfmX2gAAtULHnhFLys0ACXHh5UBCERvnbzcewQYeX25wgzuOBiDXvBKeKrEKOXxC1ybf64BCFgveOAVjVwDIDg+xAYgIL118jZS/Mq4z98ozohEL3glPFVilPL4RVUu57nGAASuFzzwikamARAeHyIDEJjeunlnmmrNn+MnFLOR6AXPhqdKjAIejV0Vmv8aAxC6XvDAKxlrDIDF8VFqAALUWzePGzc38CofK3I8MxK94KH5x8vrdru7KzT/VQYgBr3ggVcyPmjcm9cXKE4pik6n83CKUxPx8LLXRMi7wHH+kvFLig0NrC94aP7gjXi93moDYOya/4oBiEUveOCVjH8z1ZtX1c/AwRvE3zSwvuCh+YM34iUNgHE70Bdj0gseeCXjdSbMZjiJvGsotgW+v4CH5h8vb2QAjOOBzncDjEkveOCVjCcG2gwnlff6kPcX8Ep4qsQo5PE5AKbCwT4/P78Uk17wwCviTU9PHxlwM5xE3k1zc3OHhrq/gFfCUyVGIc8IbwecFXxw9/v9pZj0ggdeEW/nzmOnab/+XqDNcCJ5rVbrXaHuL+CV8FSJ0cnj/zgfnAkDEIte8MAr5LXb7ZeE2gwnlHfL9PT0nULdX8ArfrEeMTp5/A/ng3NoAGLSCx54hbytW/daoId+ZsJshpPK+2Bd6xv6/qeKp0qMTh7/4HxwDs8BqDW/Vqu1hR5+LMVrKM62CXrtOalgxqMpNteVX4beFsWxFC+k+CfL/M6x1aiQ9wozuAnMfE3rIRolvKeacJvhpPJ21bi+1gM8B54qMTp5/Avng5O/BVBXfsO/vPhrWDdKcyrLL/H49RSvNgWXGC3LL2f+7kHxlRryC734joP3azO4AlyrwnqIhoDH58d8LrL50877XI3razXAq8bzunHwCnn8yyoHp7UByMqv3+9vp4e+JsnFMr90XEyxV03z9ziKm2vOL9TiO07ev1P0HNZDNCx4vJ98N8L508w7scb1FQ3w0Pw18/iBKgenlQHIym9paX9+6/eLZXk45pcVn6ZoV5y/4ymWG8oPPGPOsVwP0XDgHWFKzgcIdP608r5uMt4hqrC+hQM8NH/tPH6wysEpNgB5+dFDTyvKoWJ+eXF6hfnjnL/TcH4Tz5uaMscFcHzw2JfiS7HNn2Leo2pe38wBXnWe142DJ+LxE6ocnCIDUJKf6G1Wx/zy4tIK8/fgMeQ38bxWq/XuAI6P0eB3qV5PcVMs86eY9z2T+IiopvVdNcCrh+d14+CJePykKgdnqQEoye+QHO44itF+jvN3zpjym3Te7/jCPIEdbwdTnE+53RzB/GnmPXW0IIHVU/ASPK8bB080+IlVDs5CAyDI7/gCdtPF6O6O83fRmPKbeN7GjRv2DvF4W79+3X7tdvsp/C4F5XmFSbwzUEVv6OsREI/Py+gHWE/BS/C8bhw80eAnVzk4cw2AML/7lfCbLEa7HOfvE2PKb+J569b1FyM63qYpFqRBBmJhYWHj1k2bFlaCf+bf23Amldfvz3cCrKfgJXiqxCjl8QuqFPNMA2CR32GCbTTSbObmZm/rOH9vHUd+4E1du2XL5twzvotGwMcbeOBNDE+VGKU8flGVYr7GAFjmN0Xxo7LtNNBsvl1h/k4dQ37gGfN+6YIkR+DHG3jgTS5PlRgFPBq7KhbzVQbAMb/nF22jiWbTbrf/ssL8zZiEaYm0ucbAu4/NovAI/XgDD7yJ5akSo4TX7XZ3Vyzmi0meY35zFJdl8ZtoNq3W1FcOOmipX3H+TqG4NeLmGjrvQtsFieF4Aw+8ieSpEqOI1+utNgDGvogv1pTfQRTfN803m2/3+/MH1jF/7XbrBcS7NcLmGjrvsxR92/WI4XgDD7yJ46kSo4yXNADGrZAv1pgf3wXwfNPMX9a3tFqtd/CZx3XOX7fbeSixvx9Rcw2ZxzdseqVJXeTFZj1CP97AA2+ieKrEKOSNDIBxLOR8N8C685uZmTms3W6/kBr2Oyk+Rtvg791/3CE+SvEOYj1/bm729k2tx/bt+/Ffq39iBncyfL9tnqyPdCbCWW+MvI9QvJ1+/ySKvetYj5CPN/DAmyieKjEKeXwOgKnwl9z8/PxSTHrBAw888MAbE0+VGIU8I7wdcFbwOwf9fn8pJr3ggQceeOCNiadKjE4e/8f5M9yEAYhFL3jggQceeOPgqRKjk8f/cD6Ba2gAYtILHnjggQfeOHiqxOjk8Q/OZ28PzwGISS944IEHHnjj4KkSo5PHv3D+6hZ/CyAyveCBBx544I2R53Xj4BXy+JdVvgdubQCUzR944IEHHnh1jNDFKOTxA1UuAmNlAALQCx54wfN6vd7dW63WOaOgh862iDfGphc8nTyvGwdPxOMHq1wBTmwAAtELHnjB8zqdzhkVrri4HJte8HTyvG4cPBGPn+Da/MUGICC94IEXPG9kAIzbNTqWY9MLnk6e142DJ+Lxk1ybv8gABKYXPPCC57Xb7dONW/MfGYCo9IKnk+d14+CJBj/RtfmXGoAA9YIHXvA8eug042gA6Hhdjk0veDp5XjcOnmjwk12bf6EBCFQveODFwHMyAMNjdjlCveAp5KkSo5THL3Bt/rkGIGC94IEXA8/aACSO2+UI9YKnkKdKjFIev6jK/d7XGIDA9YIHXgw8KwOQOnaXI9QL3iTwVIlRwKOxq0LzX2MAQtcLHniR8MQGIOP4XY5QL3jaearEKOF1u93dFZr/KgMQg17wwIuEJzIAOeZ9eQz5gQcemn/svF5vtQEw9iceLcakFzzwIuGVGoCCd+6sDUAAesHTylMlRhkvaQCMw1nHFIsx6QUPvEh4hQag5GM7KwMQiF7wNPJUiVHIGxkA49b899wNMCa94IEXCS/XAAjO2REbgID0gqeRp0qMQh6fA2Acmz/H/Pz8Ukx6wQMvEl6mARCesCsyAIHpBU8jT5UYhTwjvB1wVnDxmZmZ+aNNmxa2ciwsbNzabrcX6DHr4Nfx60cs8MCbcN6TjFvzFxmAWOsVeJHxVInRydtpHJt/xW8PgAceeM3wfm8KRuT1CryYeKrE6OTtMHEVN/DAA6/4NT8xOUNBvQIvJp4qMTp5M2bwlmEsxQ088MArjk+bjKGkXoEXE0+VGL28i008xQ088MArjr8zqaGsXoEXGc/rxsEr5b3IxFPcwAMPvOK4v0mMAOoLeBPM87px8ES8w008xQ088MDLj19QrNyFLZD6At6E8rxuHDwr3sdN+MUNPPDAK47nmuEIrL6AN4E8rxsHz4p3BMUtJuziBh544OUHn/0/RxFifQFvAnleNw6eNe8tJtziBh544BXHIyhCri/gTRjP68bBsx6zFP8n0OIGHnjg5cfrKEKvL+BNGM/rxsGz5/G1/akA/TSw4gYeeODlx0cpOjHUF/Ami6dKzKTw1q3rH9BqTV0cSHEDDzzw8uNdFLMx1RfwJoenSswk8bZt27qRHjqX4lajp1iCB54W3nUUz6CIsr6AN6E8VWImg3eMGVxaNOZiCR54Wnj8TZ0LKA6g0FBfwJsUnioxk8e7O8U/U3zXxFMswQNPA4/v1fElipdQHGyGQ1l9AU8zT5UY8DZR3IXivhSnjKLT6Tyc4tREPDz5uG2AB94E8x5CsdsMrs/B385ZNQKrB+CBh+YPHnjggQceeOCFsHHwwAMPPPDAA88PT5UY8MADDzzwwANPxlMlBjzwwAMPPPDAk/FUiQEPPPDAAw888GQ8VWLAAw888MADDzwxQI8Y8MADDzzwwANPDvG2cfDAAw888MADzyvP68bBAw888MADD7zx87xuHDzwwAMPPPDAGz/P68bBAw888MADDzw/PK8bBw888MADDzzw/PC8bhw88MADDzzwwPPD87px8MADDzzwwAPPD8/rxsEDDzzwwAMPPD88VWLAAw888MADDzwZT5UY8MADDzzwwAPPkadKDHjggQceeOCBh+YPHnjggQceeOCFtHHwwAMPPPDAAw/NHzzwwAMPPPDAa5inSgx44IEHHnjggSfjqRIDHnjggQceeODJeKrEgAceeOCBBx54Mp4qMeCBBx544IEHnoynSgx44IEHHnjggScG6BEDHnjggQceeODJId42Dh544IEHHnjgeeV53Th44IEHHnjggTd+nteNgwceeOCBBx544+d53Th44IEHHnjggeeH53Xj4IEHHnjggQeeH57XjYMHHnjggQceeH54XjcOHnjggQceeOD54XndOHjggQceeOCB54enSgx44IEHHnjggSfjqRIDHnjggQceeOA58lSJAQ888MADDzzw0PzBAw888MADD7yQNg4eeOCBBx544KH5gwceeOCBBx54DfNUiQEPPPDAAw888GQ8VWLAAw888MADDzwZT5UY8MADDzzwwANPxlMlBjzwwAMPPPDAk/FUiQEPPPDAAw888MQAPWLAAw888MADDzw5xNvGwQMPPPDAAw88rzyvGwcPPPDAAw888MbP87px8MADDzzwwANv/DyvGwcPPPDAAw888PzwvG4cPPDAAw888MDzw/O6cfDAAw888MADzw/P68bBAw888MADDzw/PK8bBw888MADDzzw/PBUiQEPPPDAAw888GQ8VWLAAw888MADDzxHniox4IEHHnjggQcemj944IEHHnjggRfSxsEDDzzwwAMPPDR/8MADDzzwwAOvYZ4qMeCBBx544IEHnoynSgx44IEHHnjggSfjqRIDHnjggQceeODJeKrEgAceeOCBBx54Mp4qMeCBBx544IEHnhigRwx44IEHHnjggSeHeNs4eOCBBx544IHnled14+CBBx544IEH3vh5XjcOHnjggQceeOCNn+d14+CBBx544IEHnh+e142DBx544IEHHnh+eF43Dh544IEHHnjg+eF53Th44IEHHnjggeeH53Xj4IEHHnjggQeeH54qMeCBBx544IEHnoynSgx44IEHHnjggSfj/X8CcZtPRhXXMwAAAABJRU5ErkJggg==;" vertex="1" parent="SrgSx0D-FuNyG_olPb56-41">
          <mxGeometry x="305" y="126" width="30" height="30" as="geometry" />
        </mxCell>
        <mxCell id="SrgSx0D-FuNyG_olPb56-47" style="edgeStyle=orthogonalEdgeStyle;rounded=0;orthogonalLoop=1;jettySize=auto;html=1;entryX=0;entryY=0.5;entryDx=0;entryDy=0;" edge="1" parent="SrgSx0D-FuNyG_olPb56-41" source="lqRVle8zpSfQ94BdNM4T-2" target="SrgSx0D-FuNyG_olPb56-44">
          <mxGeometry relative="1" as="geometry">
            <Array as="points">
              <mxPoint x="143" y="93" />
              <mxPoint x="143" y="153" />
            </Array>
          </mxGeometry>
        </mxCell>
        <mxCell id="SrgSx0D-FuNyG_olPb56-48" value="Compile program with main entry" style="text;html=1;strokeColor=none;fillColor=none;align=center;verticalAlign=middle;whiteSpace=wrap;rounded=0;" vertex="1" parent="SrgSx0D-FuNyG_olPb56-41">
          <mxGeometry x="140" y="158" width="120" height="30" as="geometry" />
        </mxCell>
        <mxCell id="SrgSx0D-FuNyG_olPb56-49" value="&lt;font color=&quot;#ffffff&quot;&gt;1&lt;/font&gt;" style="ellipse;whiteSpace=wrap;html=1;aspect=fixed;fillColor=#000000;" vertex="1" parent="SrgSx0D-FuNyG_olPb56-41">
          <mxGeometry x="120" y="162" width="20" height="20" as="geometry" />
        </mxCell>
        <mxCell id="SrgSx0D-FuNyG_olPb56-19" value="Run main program on any host" style="text;html=1;strokeColor=none;fillColor=none;align=center;verticalAlign=middle;whiteSpace=wrap;rounded=0;" vertex="1" parent="SrgSx0D-FuNyG_olPb56-41">
          <mxGeometry x="408" y="160" width="110" height="30" as="geometry" />
        </mxCell>
        <mxCell id="SrgSx0D-FuNyG_olPb56-18" value="&lt;font color=&quot;#ffffff&quot;&gt;3&lt;/font&gt;" style="ellipse;whiteSpace=wrap;html=1;aspect=fixed;fillColor=#000000;" vertex="1" parent="SrgSx0D-FuNyG_olPb56-41">
          <mxGeometry x="388" y="165" width="20" height="20" as="geometry" />
        </mxCell>
      </root>
    </mxGraphModel>
  </diagram>
</mxfile>
